JuraRegular.ufo
<glyph name="exclam" format="2">
  <advance width="244"/>
  <unicode hex="0021"/>
  <outline>
    <contour>
      <point x="174.0" y="12.0"/>
      <point x="140.0" y="-12.0"/>
      <point x="106.0" y="-12.0"/>
      <point x="71.0" y="12.0"/>
      <point x="71.0" y="46.0"/>
      <point x="106.0" y="70.0"/>
      <point x="139.0" y="70.0"/>
      <point x="174.0" y="46.0"/>
    </contour>
    <contour>
      <point x="148.0" y="616.0" type="qcurve" smooth="yes"/>
      <point x="148.0" y="197.0" type="line" smooth="yes"/>
      <point x="148.0" y="164.0"/>
      <point x="96.0" y="164.0"/>
      <point x="96.0" y="197.0" type="qcurve" smooth="yes"/>
      <point x="96.0" y="616.0" type="line" smooth="yes"/>
      <point x="96.0" y="649.0"/>
      <point x="148.0" y="649.0"/>
    </contour>
  </outline>
</glyph>
<glyph name="quotedbl" format="2">
  <advance width="295"/>
  <unicode hex="0022"/>
  <outline>
    <contour>
      <point x="224.0" y="466.0" type="line" smooth="yes"/>
      <point x="224.0" y="433.0"/>
      <point x="172.0" y="433.0"/>
      <point x="172.0" y="466.0" type="qcurve" smooth="yes"/>
      <point x="172.0" y="615.0" type="line" smooth="yes"/>
      <point x="172.0" y="648.0"/>
      <point x="224.0" y="648.0"/>
      <point x="224.0" y="615.0" type="qcurve" smooth="yes"/>
    </contour>
    <contour>
      <point x="122.0" y="466.0" type="line" smooth="yes"/>
      <point x="122.0" y="433.0"/>
      <point x="71.0" y="433.0"/>
      <point x="71.0" y="466.0" type="qcurve" smooth="yes"/>
      <point x="71.0" y="615.0" type="line" smooth="yes"/>
      <point x="71.0" y="648.0"/>
      <point x="122.0" y="648.0"/>
      <point x="122.0" y="615.0" type="qcurve" smooth="yes"/>
    </contour>
  </outline>
</glyph>
<glyph name="numbersign" format="2">
  <advance width="603"/>
  <unicode hex="0023"/>
  <outline>
    <contour>
      <point x="496.0" y="630.0" type="qcurve" smooth="yes"/>
      <point x="522.0" y="630.0"/>
      <point x="522.0" y="604.0" type="qcurve" smooth="yes"/>
      <point x="522.0" y="597.0"/>
      <point x="519.0" y="588.0" type="qcurve" smooth="yes"/>
      <point x="463.0" y="436.0" type="line"/>
      <point x="526.0" y="436.0" type="line" smooth="yes"/>
      <point x="559.0" y="436.0"/>
      <point x="559.0" y="384.0"/>
      <point x="526.0" y="384.0" type="qcurve" smooth="yes"/>
      <point x="444.0" y="384.0" type="line"/>
      <point x="396.0" y="252.0" type="line"/>
      <point x="495.0" y="252.0" type="line" smooth="yes"/>
      <point x="528.0" y="252.0"/>
      <point x="528.0" y="200.0"/>
      <point x="495.0" y="200.0" type="qcurve" smooth="yes"/>
      <point x="377.0" y="200.0" type="line"/>
      <point x="315.0" y="30.0" type="line" smooth="yes"/>
      <point x="307.0" y="6.0"/>
      <point x="288.0" y="6.0" type="qcurve" smooth="yes"/>
      <point x="262.0" y="6.0"/>
      <point x="262.0" y="32.0" type="qcurve" smooth="yes"/>
      <point x="262.0" y="39.0"/>
      <point x="265.0" y="48.0" type="qcurve" smooth="yes"/>
      <point x="322.0" y="200.0" type="line"/>
      <point x="197.0" y="200.0" type="line"/>
      <point x="136.0" y="30.0" type="line" smooth="yes"/>
      <point x="128.0" y="6.0"/>
      <point x="109.0" y="6.0" type="qcurve" smooth="yes"/>
      <point x="84.0" y="6.0"/>
      <point x="84.0" y="31.0" type="qcurve" smooth="yes"/>
      <point x="84.0" y="36.0"/>
      <point x="87.0" y="48.0" type="qcurve"/>
      <point x="143.0" y="200.0" type="line"/>
      <point x="77.0" y="200.0" type="line" smooth="yes"/>
      <point x="44.0" y="200.0"/>
      <point x="44.0" y="252.0"/>
      <point x="77.0" y="252.0" type="qcurve" smooth="yes"/>
      <point x="162.0" y="252.0" type="line"/>
      <point x="210.0" y="384.0" type="line"/>
      <point x="107.0" y="384.0" type="line" smooth="yes"/>
      <point x="75.0" y="384.0"/>
      <point x="75.0" y="436.0"/>
      <point x="107.0" y="436.0" type="qcurve" smooth="yes"/>
      <point x="229.0" y="436.0" type="line"/>
      <point x="291.0" y="606.0" type="line" smooth="yes"/>
      <point x="301.0" y="630.0"/>
      <point x="317.0" y="630.0" type="qcurve" smooth="yes"/>
      <point x="343.0" y="630.0"/>
      <point x="343.0" y="605.0" type="qcurve" smooth="yes"/>
      <point x="343.0" y="600.0"/>
      <point x="340.0" y="588.0" type="qcurve"/>
      <point x="283.0" y="436.0" type="line"/>
      <point x="407.0" y="436.0" type="line"/>
      <point x="469.0" y="606.0" type="line" smooth="yes"/>
      <point x="478.0" y="630.0"/>
    </contour>
    <contour>
      <point x="265.0" y="384.0" type="line"/>
      <point x="217.0" y="252.0" type="line"/>
      <point x="340.0" y="252.0" type="line"/>
      <point x="388.0" y="384.0" type="line"/>
    </contour>
  </outline>
</glyph>
<glyph name="dollar" format="2">
  <advance width="587"/>
  <unicode hex="0024"/>
  <outline>
    <contour>
      <point x="399.0" y="353.0" type="line" smooth="yes"/>
      <point x="527.0" y="353.0"/>
      <point x="527.0" y="90.0"/>
      <point x="399.0" y="90.0" type="qcurve" smooth="yes"/>
      <point x="324.0" y="90.0" type="line"/>
      <point x="324.0" y="25.0" type="line" smooth="yes"/>
      <point x="324.0" y="-7.0"/>
      <point x="272.0" y="-7.0"/>
      <point x="272.0" y="24.0" type="qcurve" smooth="yes"/>
      <point x="272.0" y="89.0" type="line"/>
      <point x="161.0" y="89.0" type="line" smooth="yes"/>
      <point x="76.0" y="89.0"/>
      <point x="64.0" y="159.0" type="qcurve" smooth="yes"/>
      <point x="61.0" y="176.0"/>
      <point x="61.0" y="234.0"/>
      <point x="113.0" y="234.0"/>
      <point x="113.0" y="167.0"/>
      <point x="137.0" y="141.0"/>
      <point x="168.0" y="141.0" type="qcurve" smooth="yes"/>
      <point x="272.0" y="141.0" type="line"/>
      <point x="272.0" y="301.0" type="line"/>
      <point x="190.0" y="301.0" type="line" smooth="yes"/>
      <point x="61.0" y="301.0"/>
      <point x="61.0" y="432.0" type="qcurve" smooth="yes"/>
      <point x="61.0" y="553.0"/>
      <point x="190.0" y="553.0" type="qcurve" smooth="yes"/>
      <point x="272.0" y="553.0" type="line"/>
      <point x="272.0" y="610.0" type="line" smooth="yes"/>
      <point x="272.0" y="643.0"/>
      <point x="324.0" y="643.0"/>
      <point x="324.0" y="611.0" type="qcurve" smooth="yes"/>
      <point x="324.0" y="554.0" type="line"/>
      <point x="425.0" y="554.0" type="line" smooth="yes"/>
      <point x="510.0" y="554.0"/>
      <point x="522.0" y="484.0" type="qcurve" smooth="yes"/>
      <point x="525.0" y="467.0"/>
      <point x="525.0" y="409.0"/>
      <point x="473.0" y="409.0"/>
      <point x="473.0" y="476.0"/>
      <point x="449.0" y="501.0"/>
      <point x="418.0" y="501.0" type="qcurve" smooth="yes"/>
      <point x="324.0" y="501.0" type="line"/>
      <point x="324.0" y="353.0" type="line"/>
    </contour>
    <contour>
      <point x="416.0" y="301.0" type="qcurve" smooth="yes"/>
      <point x="324.0" y="301.0" type="line"/>
      <point x="324.0" y="141.0" type="line"/>
      <point x="416.0" y="141.0" type="line" smooth="yes"/>
      <point x="475.0" y="141.0"/>
      <point x="475.0" y="214.0" type="qcurve" smooth="yes"/>
      <point x="475.0" y="252.0"/>
      <point x="442.0" y="301.0"/>
    </contour>
    <contour>
      <point x="172.0" y="353.0" type="qcurve" smooth="yes"/>
      <point x="272.0" y="353.0" type="line"/>
      <point x="272.0" y="501.0" type="line"/>
      <point x="172.0" y="501.0" type="line" smooth="yes"/>
      <point x="113.0" y="501.0"/>
      <point x="113.0" y="434.0" type="qcurve" smooth="yes"/>
      <point x="113.0" y="395.0"/>
      <point x="146.0" y="353.0"/>
    </contour>
  </outline>
</glyph>
<glyph name="percent" format="2">
  <advance width="559"/>
  <unicode hex="0025"/>
  <outline>
    <contour>
      <point x="385.0" y="213.0"/>
      <point x="367.0" y="196.0"/>
      <point x="367.0" y="171.0"/>
      <point x="385.0" y="153.0"/>
      <point x="410.0" y="153.0"/>
      <point x="427.0" y="171.0"/>
      <point x="427.0" y="196.0"/>
      <point x="409.0" y="213.0"/>
    </contour>
    <contour>
      <point x="312.0" y="149.0"/>
      <point x="312.0" y="217.0"/>
      <point x="362.0" y="265.0"/>
      <point x="431.0" y="265.0"/>
      <point x="479.0" y="217.0"/>
      <point x="479.0" y="149.0"/>
      <point x="431.0" y="101.0"/>
      <point x="362.0" y="101.0"/>
    </contour>
    <contour>
      <point x="134.0" y="478.0"/>
      <point x="134.0" y="454.0"/>
      <point x="152.0" y="436.0"/>
      <point x="175.0" y="436.0"/>
      <point x="194.0" y="453.0"/>
      <point x="194.0" y="479.0"/>
      <point x="175.0" y="496.0"/>
      <point x="152.0" y="496.0"/>
    </contour>
    <contour>
      <point x="81.0" y="432.0"/>
      <point x="81.0" y="500.0"/>
      <point x="130.0" y="548.0"/>
      <point x="199.0" y="548.0"/>
      <point x="248.0" y="500.0"/>
      <point x="248.0" y="432.0"/>
      <point x="199.0" y="384.0"/>
      <point x="130.0" y="384.0"/>
    </contour>
    <contour>
      <point x="442.0" y="516.0" type="line" smooth="yes"/>
      <point x="455.0" y="528.0"/>
      <point x="474.0" y="528.0"/>
      <point x="491.0" y="513.0"/>
      <point x="491.0" y="492.0"/>
      <point x="479.0" y="479.0" type="qcurve"/>
      <point x="119.0" y="133.0" type="line" smooth="yes"/>
      <point x="106.0" y="121.0"/>
      <point x="86.0" y="121.0"/>
      <point x="69.0" y="136.0"/>
      <point x="69.0" y="158.0"/>
      <point x="81.0" y="170.0" type="qcurve" smooth="yes"/>
    </contour>
  </outline>
</glyph>
<glyph name="ampersand" format="2">
  <advance width="508"/>
  <unicode hex="0026"/>
  <outline>
    <contour>
      <point x="123.0" y="357.0" type="qcurve"/>
      <point x="64.0" y="427.0"/>
      <point x="64.0" y="552.0"/>
      <point x="177.0" y="652.0"/>
      <point x="243.0" y="652.0" type="qcurve" smooth="yes"/>
      <point x="324.0" y="652.0"/>
      <point x="376.0" y="554.0" type="qcurve" smooth="yes"/>
      <point x="386.0" y="535.0"/>
      <point x="386.0" y="518.0"/>
      <point x="371.0" y="503.0"/>
      <point x="348.0" y="503.0"/>
      <point x="336.0" y="518.0" type="qcurve"/>
      <point x="326.0" y="534.0"/>
      <point x="316.0" y="552.0" type="qcurve" smooth="yes"/>
      <point x="289.0" y="600.0"/>
      <point x="243.0" y="600.0" type="qcurve" smooth="yes"/>
      <point x="195.0" y="600.0"/>
      <point x="118.0" y="532.0"/>
      <point x="118.0" y="440.0"/>
      <point x="156.0" y="397.0" type="qcurve" smooth="yes"/>
      <point x="392.0" y="125.0" type="line"/>
      <point x="421.0" y="169.0"/>
      <point x="421.0" y="263.0"/>
      <point x="472.0" y="263.0"/>
      <point x="472.0" y="227.0" type="qcurve" smooth="yes"/>
      <point x="472.0" y="147.0"/>
      <point x="427.0" y="84.0" type="qcurve"/>
      <point x="473.0" y="32.0" type="line" smooth="yes"/>
      <point x="480.0" y="24.0"/>
      <point x="480.0" y="11.0" type="qcurve" smooth="yes"/>
      <point x="480.0" y="-12.0"/>
      <point x="458.0" y="-12.0" type="qcurve" smooth="yes"/>
      <point x="443.0" y="-12.0"/>
      <point x="428.0" y="4.0" type="qcurve" smooth="yes"/>
      <point x="393.0" y="45.0" type="line"/>
      <point x="326.0" y="-14.0"/>
      <point x="248.0" y="-14.0" type="qcurve" smooth="yes"/>
      <point x="177.0" y="-14.0"/>
      <point x="128.0" y="18.0" type="qcurve" smooth="yes"/>
      <point x="39.0" y="77.0"/>
      <point x="39.0" y="298.0"/>
    </contour>
    <contour>
      <point x="359.0" y="84.0" type="qcurve"/>
      <point x="157.0" y="319.0" type="line"/>
      <point x="91.0" y="277.0"/>
      <point x="91.0" y="107.0"/>
      <point x="187.0" y="38.0"/>
      <point x="307.0" y="38.0"/>
    </contour>
  </outline>
</glyph>
<glyph name="quotesingle" format="2">
  <advance width="194"/>
  <unicode hex="0027"/>
  <outline>
    <contour>
      <point x="122.0" y="466.0" type="line" smooth="yes"/>
      <point x="122.0" y="433.0"/>
      <point x="71.0" y="433.0"/>
      <point x="71.0" y="466.0" type="qcurve" smooth="yes"/>
      <point x="71.0" y="615.0" type="line" smooth="yes"/>
      <point x="71.0" y="648.0"/>
      <point x="122.0" y="648.0"/>
      <point x="122.0" y="615.0" type="qcurve" smooth="yes"/>
    </contour>
  </outline>
</glyph>
<glyph name="parenleft" format="2">
  <advance width="248"/>
  <unicode hex="0028"/>
  <outline>
    <contour>
      <point x="125.0" y="503.0" type="qcurve" smooth="yes"/>
      <point x="125.0" y="133.0" type="line" smooth="yes"/>
      <point x="125.0" y="43.0"/>
      <point x="132.0" y="29.0" type="qcurve" smooth="yes"/>
      <point x="140.0" y="14.0"/>
      <point x="151.0" y="10.0" type="qcurve" smooth="yes"/>
      <point x="165.0" y="5.0"/>
      <point x="203.0" y="5.0" type="qcurve"/>
      <point x="203.0" y="-47.0" type="line"/>
      <point x="137.0" y="-47.0"/>
      <point x="88.0" y="-2.0"/>
      <point x="73.0" y="72.0"/>
      <point x="73.0" y="133.0" type="qcurve" smooth="yes"/>
      <point x="73.0" y="503.0" type="line" smooth="yes"/>
      <point x="73.0" y="624.0"/>
      <point x="107.0" y="656.0" type="qcurve" smooth="yes"/>
      <point x="136.0" y="683.0"/>
      <point x="198.0" y="683.0" type="qcurve" smooth="yes"/>
      <point x="200.0" y="683.0"/>
      <point x="203.0" y="683.0" type="qcurve"/>
      <point x="203.0" y="631.0" type="line"/>
      <point x="144.0" y="630.0"/>
      <point x="136.0" y="614.0" type="qcurve" smooth="yes"/>
      <point x="125.0" y="594.0"/>
      <point x="125.0" y="516.0" type="qcurve" smooth="yes"/>
      <point x="125.0" y="510.0"/>
    </contour>
  </outline>
</glyph>
<glyph name="parenright" format="2">
  <advance width="248"/>
  <unicode hex="0029"/>
  <outline>
    <contour>
      <point x="123.0" y="503.0" type="line" smooth="yes"/>
      <point x="123.0" y="593.0"/>
      <point x="116.0" y="607.0" type="qcurve" smooth="yes"/>
      <point x="108.0" y="622.0"/>
      <point x="97.0" y="626.0" type="qcurve" smooth="yes"/>
      <point x="83.0" y="631.0"/>
      <point x="55.0" y="631.0" type="qcurve" smooth="yes"/>
      <point x="50.0" y="631.0"/>
      <point x="45.0" y="631.0" type="qcurve"/>
      <point x="45.0" y="683.0" type="line"/>
      <point x="111.0" y="683.0"/>
      <point x="160.0" y="638.0"/>
      <point x="175.0" y="564.0"/>
      <point x="175.0" y="503.0" type="qcurve" smooth="yes"/>
      <point x="175.0" y="133.0" type="line" smooth="yes"/>
      <point x="175.0" y="12.0"/>
      <point x="141.0" y="-20.0" type="qcurve" smooth="yes"/>
      <point x="111.0" y="-47.0"/>
      <point x="45.0" y="-47.0" type="qcurve"/>
      <point x="45.0" y="5.0" type="line"/>
      <point x="104.0" y="6.0"/>
      <point x="112.0" y="22.0" type="qcurve"/>
      <point x="123.0" y="41.0"/>
      <point x="123.0" y="120.0" type="qcurve" smooth="yes"/>
      <point x="123.0" y="127.0"/>
      <point x="123.0" y="133.0" type="qcurve" smooth="yes"/>
    </contour>
  </outline>
</glyph>
<glyph name="asterisk" format="2">
  <advance width="397"/>
  <unicode hex="002A"/>
  <outline>
    <contour>
      <point x="287.0" y="410.0" type="qcurve"/>
      <point x="224.0" y="446.0" type="line"/>
      <point x="224.0" y="374.0" type="line" smooth="yes"/>
      <point x="224.0" y="341.0"/>
      <point x="172.0" y="341.0"/>
      <point x="172.0" y="374.0" type="qcurve" smooth="yes"/>
      <point x="172.0" y="446.0" type="line"/>
      <point x="109.0" y="410.0" type="line"/>
      <point x="97.0" y="404.0"/>
      <point x="79.0" y="404.0"/>
      <point x="65.0" y="420.0"/>
      <point x="65.0" y="444.0"/>
      <point x="83.0" y="455.0" type="qcurve" smooth="yes"/>
      <point x="146.0" y="492.0" type="line"/>
      <point x="83.0" y="527.0" type="line" smooth="yes"/>
      <point x="65.0" y="538.0"/>
      <point x="65.0" y="549.0" type="qcurve" smooth="yes"/>
      <point x="65.0" y="578.0"/>
      <point x="89.0" y="578.0" type="qcurve" smooth="yes"/>
      <point x="97.0" y="578.0"/>
      <point x="109.0" y="572.0" type="qcurve"/>
      <point x="172.0" y="536.0" type="line"/>
      <point x="172.0" y="608.0" type="line" smooth="yes"/>
      <point x="172.0" y="641.0"/>
      <point x="224.0" y="641.0"/>
      <point x="224.0" y="608.0" type="qcurve" smooth="yes"/>
      <point x="224.0" y="536.0" type="line"/>
      <point x="287.0" y="572.0" type="line"/>
      <point x="299.0" y="578.0"/>
      <point x="318.0" y="578.0"/>
      <point x="332.0" y="562.0"/>
      <point x="332.0" y="539.0"/>
      <point x="313.0" y="527.0" type="qcurve" smooth="yes"/>
      <point x="251.0" y="492.0" type="line"/>
      <point x="313.0" y="455.0" type="line" smooth="yes"/>
      <point x="332.0" y="443.0"/>
      <point x="332.0" y="422.0"/>
      <point x="319.0" y="404.0"/>
      <point x="299.0" y="404.0"/>
    </contour>
  </outline>
</glyph>
<glyph name="plus" format="2">
  <advance width="518"/>
  <unicode hex="002B"/>
  <outline>
    <contour>
      <point x="447.0" y="257.0" type="line" smooth="yes"/>
      <point x="481.0" y="257.0"/>
      <point x="481.0" y="204.0"/>
      <point x="447.0" y="204.0" type="qcurve" smooth="yes"/>
      <point x="285.0" y="204.0" type="line"/>
      <point x="285.0" y="20.0" type="line" smooth="yes"/>
      <point x="285.0" y="-12.0"/>
      <point x="233.0" y="-12.0"/>
      <point x="233.0" y="20.0" type="qcurve" smooth="yes"/>
      <point x="233.0" y="204.0" type="line"/>
      <point x="69.0" y="204.0" type="line" smooth="yes"/>
      <point x="38.0" y="204.0"/>
      <point x="38.0" y="257.0"/>
      <point x="69.0" y="257.0" type="qcurve" smooth="yes"/>
      <point x="233.0" y="257.0" type="line"/>
      <point x="233.0" y="440.0" type="line" smooth="yes"/>
      <point x="233.0" y="473.0"/>
      <point x="285.0" y="473.0"/>
      <point x="285.0" y="440.0" type="qcurve" smooth="yes"/>
      <point x="285.0" y="257.0" type="line"/>
    </contour>
  </outline>
</glyph>
<glyph name="comma" format="2">
  <advance width="210"/>
  <unicode hex="002C"/>
  <outline>
    <contour>
      <point x="137.0" y="22.0" type="qcurve" smooth="yes"/>
      <point x="96.0" y="-61.0" type="line"/>
      <point x="86.0" y="-85.0"/>
      <point x="71.0" y="-85.0" type="qcurve" smooth="yes"/>
      <point x="49.0" y="-85.0"/>
      <point x="49.0" y="-60.0" type="qcurve" smooth="yes"/>
      <point x="49.0" y="-56.0"/>
      <point x="52.0" y="-44.0" type="qcurve" smooth="yes"/>
      <point x="76.0" y="43.0" type="line" smooth="yes"/>
      <point x="83.0" y="66.0"/>
      <point x="101.0" y="66.0" type="qcurve" smooth="yes"/>
      <point x="112.0" y="66.0"/>
      <point x="142.0" y="54.0"/>
      <point x="142.0" y="31.0"/>
    </contour>
  </outline>
</glyph>
<glyph name="period" format="2">
  <advance width="232"/>
  <unicode hex="002E"/>
  <outline>
    <contour>
      <point x="65.0" y="46.0"/>
      <point x="99.0" y="70.0"/>
      <point x="132.0" y="70.0"/>
      <point x="167.0" y="46.0"/>
      <point x="167.0" y="12.0"/>
      <point x="132.0" y="-12.0"/>
      <point x="99.0" y="-12.0"/>
      <point x="65.0" y="12.0"/>
    </contour>
  </outline>
</glyph>
<glyph name="slash" format="2">
  <advance width="359"/>
  <unicode hex="002F"/>
  <outline>
    <contour>
      <point x="289.0" y="650.0" type="qcurve" smooth="yes"/>
      <point x="316.0" y="650.0"/>
      <point x="316.0" y="626.0" type="qcurve" smooth="yes"/>
      <point x="316.0" y="618.0"/>
      <point x="313.0" y="608.0" type="qcurve"/>
      <point x="95.0" y="10.0" type="line" smooth="yes"/>
      <point x="87.0" y="-13.0"/>
      <point x="69.0" y="-13.0" type="qcurve" smooth="yes"/>
      <point x="43.0" y="-13.0"/>
      <point x="43.0" y="11.0" type="qcurve" smooth="yes"/>
      <point x="43.0" y="17.0"/>
      <point x="46.0" y="29.0" type="qcurve"/>
      <point x="264.0" y="627.0" type="line" smooth="yes"/>
      <point x="272.0" y="650.0"/>
    </contour>
  </outline>
</glyph>
<glyph name="zero" format="2">
  <advance width="592"/>
  <unicode hex="0030"/>
  <outline>
    <contour>
      <point x="116.0" y="497.0" type="qcurve" smooth="yes"/>
      <point x="116.0" y="138.0" type="line" smooth="yes"/>
      <point x="116.0" y="104.0"/>
      <point x="183.0" y="47.0"/>
      <point x="233.0" y="47.0" type="qcurve" smooth="yes"/>
      <point x="359.0" y="47.0" type="line" smooth="yes"/>
      <point x="409.0" y="47.0"/>
      <point x="476.0" y="104.0"/>
      <point x="476.0" y="138.0" type="qcurve" smooth="yes"/>
      <point x="476.0" y="497.0" type="line" smooth="yes"/>
      <point x="476.0" y="531.0"/>
      <point x="409.0" y="588.0"/>
      <point x="359.0" y="588.0" type="qcurve" smooth="yes"/>
      <point x="233.0" y="588.0" type="line" smooth="yes"/>
      <point x="183.0" y="588.0"/>
      <point x="116.0" y="531.0"/>
    </contour>
    <contour>
      <point x="528.0" y="154.0" type="line" smooth="yes"/>
      <point x="528.0" y="84.0"/>
      <point x="427.0" y="-5.0"/>
      <point x="350.0" y="-5.0" type="qcurve" smooth="yes"/>
      <point x="242.0" y="-5.0" type="line" smooth="yes"/>
      <point x="165.0" y="-5.0"/>
      <point x="64.0" y="84.0"/>
      <point x="64.0" y="154.0" type="qcurve" smooth="yes"/>
      <point x="64.0" y="482.0" type="line" smooth="yes"/>
      <point x="64.0" y="552.0"/>
      <point x="165.0" y="641.0"/>
      <point x="242.0" y="641.0" type="qcurve" smooth="yes"/>
      <point x="350.0" y="641.0" type="line" smooth="yes"/>
      <point x="427.0" y="641.0"/>
      <point x="528.0" y="552.0"/>
      <point x="528.0" y="482.0" type="qcurve" smooth="yes"/>
    </contour>
  </outline>
</glyph>
<glyph name="one" format="2">
  <advance width="592"/>
  <unicode hex="0031"/>
  <outline>
    <contour>
      <point x="225.0" y="562.0" type="qcurve" smooth="yes"/>
      <point x="201.0" y="562.0"/>
      <point x="201.0" y="584.0" type="qcurve" smooth="yes"/>
      <point x="201.0" y="597.0"/>
      <point x="215.0" y="610.0" type="qcurve" smooth="yes"/>
      <point x="276.0" y="672.0" type="line"/>
      <point x="291.0" y="685.0"/>
      <point x="302.0" y="685.0" type="qcurve" smooth="yes"/>
      <point x="331.0" y="685.0"/>
      <point x="331.0" y="657.0" type="qcurve" smooth="yes"/>
      <point x="331.0" y="25.0" type="line" smooth="yes"/>
      <point x="331.0" y="-7.0"/>
      <point x="279.0" y="-7.0"/>
      <point x="279.0" y="25.0" type="qcurve" smooth="yes"/>
      <point x="279.0" y="600.0" type="line"/>
      <point x="254.0" y="576.0" type="line" smooth="yes"/>
      <point x="240.0" y="562.0"/>
    </contour>
  </outline>
</glyph>
<glyph name="two" format="2">
  <advance width="592"/>
  <unicode hex="0032"/>
  <outline>
    <contour>
      <point x="528.0" y="460.0" type="qcurve" smooth="yes"/>
      <point x="528.0" y="370.0"/>
      <point x="385.0" y="298.0" type="qcurve" smooth="yes"/>
      <point x="325.0" y="268.0"/>
      <point x="205.0" y="203.0"/>
      <point x="119.0" y="107.0"/>
      <point x="117.0" y="47.0" type="qcurve"/>
      <point x="493.0" y="47.0" type="line" smooth="yes"/>
      <point x="528.0" y="47.0"/>
      <point x="528.0" y="-5.0"/>
      <point x="493.0" y="-5.0" type="qcurve" smooth="yes"/>
      <point x="65.0" y="-5.0" type="line"/>
      <point x="65.0" y="44.0" type="line" smooth="yes"/>
      <point x="65.0" y="115.0"/>
      <point x="150.0" y="224.0"/>
      <point x="270.0" y="292.0"/>
      <point x="330.0" y="320.0" type="qcurve" smooth="yes"/>
      <point x="476.0" y="388.0"/>
      <point x="476.0" y="466.0" type="qcurve" smooth="yes"/>
      <point x="476.0" y="543.0"/>
      <point x="406.0" y="589.0"/>
      <point x="312.0" y="589.0" type="qcurve" smooth="yes"/>
      <point x="171.0" y="589.0" type="line" smooth="yes"/>
      <point x="139.0" y="589.0"/>
      <point x="117.0" y="562.0"/>
      <point x="117.0" y="494.0"/>
      <point x="65.0" y="494.0"/>
      <point x="65.0" y="542.0" type="qcurve" smooth="yes"/>
      <point x="65.0" y="641.0"/>
      <point x="162.0" y="641.0" type="qcurve" smooth="yes"/>
      <point x="163.0" y="641.0"/>
      <point x="164.0" y="641.0" type="qcurve" smooth="yes"/>
      <point x="312.0" y="641.0" type="line" smooth="yes"/>
      <point x="423.0" y="641.0"/>
      <point x="528.0" y="568.0"/>
    </contour>
  </outline>
</glyph>
<glyph name="three" format="2">
  <advance width="592"/>
  <unicode hex="0033"/>
  <outline>
    <contour>
      <point x="338.0" y="589.0" type="qcurve" smooth="yes"/>
      <point x="254.0" y="589.0" type="line" smooth="yes"/>
      <point x="207.0" y="589.0"/>
      <point x="162.0" y="572.0" type="qcurve" smooth="yes"/>
      <point x="116.0" y="554.0"/>
      <point x="116.0" y="494.0"/>
      <point x="64.0" y="494.0"/>
      <point x="64.0" y="574.0"/>
      <point x="163.0" y="641.0"/>
      <point x="247.0" y="641.0" type="qcurve" smooth="yes"/>
      <point x="327.0" y="641.0" type="line" smooth="yes"/>
      <point x="436.0" y="641.0"/>
      <point x="528.0" y="556.0"/>
      <point x="528.0" y="451.0" type="qcurve" smooth="yes"/>
      <point x="528.0" y="418.0"/>
      <point x="440.0" y="340.0"/>
      <point x="401.0" y="326.0" type="qcurve"/>
      <point x="438.0" y="315.0"/>
      <point x="528.0" y="220.0"/>
      <point x="528.0" y="185.0" type="qcurve" smooth="yes"/>
      <point x="528.0" y="80.0"/>
      <point x="436.0" y="-5.0"/>
      <point x="327.0" y="-5.0" type="qcurve" smooth="yes"/>
      <point x="247.0" y="-5.0" type="line" smooth="yes"/>
      <point x="163.0" y="-5.0"/>
      <point x="64.0" y="62.0"/>
      <point x="64.0" y="142.0"/>
      <point x="116.0" y="142.0"/>
      <point x="116.0" y="82.0"/>
      <point x="207.0" y="47.0"/>
      <point x="254.0" y="47.0" type="qcurve" smooth="yes"/>
      <point x="338.0" y="47.0" type="line" smooth="yes"/>
      <point x="417.0" y="47.0"/>
      <point x="477.0" y="108.0"/>
      <point x="477.0" y="220.0"/>
      <point x="413.0" y="260.0" type="qcurve" smooth="yes"/>
      <point x="348.0" y="299.0"/>
      <point x="252.0" y="299.0"/>
      <point x="252.0" y="326.0" type="qcurve" smooth="yes"/>
      <point x="252.0" y="352.0"/>
      <point x="352.0" y="352.0"/>
      <point x="477.0" y="418.0"/>
      <point x="477.0" y="528.0"/>
      <point x="417.0" y="589.0"/>
    </contour>
  </outline>
</glyph>
<glyph name="four" format="2">
  <advance width="592"/>
  <unicode hex="0034"/>
  <outline>
    <contour>
      <point x="498.0" y="170.0" type="qcurve" smooth="yes"/>
      <point x="442.0" y="170.0" type="line"/>
      <point x="442.0" y="24.0" type="line" smooth="yes"/>
      <point x="442.0" y="-7.0"/>
      <point x="390.0" y="-7.0"/>
      <point x="389.0" y="24.0" type="qcurve" smooth="yes"/>
      <point x="389.0" y="170.0" type="line"/>
      <point x="62.0" y="170.0" type="line"/>
      <point x="62.0" y="233.0" type="line"/>
      <point x="376.0" y="641.0" type="line"/>
      <point x="442.0" y="641.0" type="line"/>
      <point x="442.0" y="222.0" type="line"/>
      <point x="498.0" y="222.0" type="line" smooth="yes"/>
      <point x="530.0" y="222.0"/>
      <point x="530.0" y="170.0"/>
    </contour>
    <contour>
      <point x="114.0" y="222.0" type="line"/>
      <point x="389.0" y="222.0" type="line"/>
      <point x="389.0" y="579.0" type="line"/>
    </contour>
  </outline>
</glyph>
<glyph name="five" format="2">
  <advance width="592"/>
  <unicode hex="0035"/>
  <outline>
    <contour>
      <point x="92.0" y="121.0" type="qcurve" smooth="yes"/>
      <point x="93.0" y="121.0" type="line" smooth="yes"/>
      <point x="100.0" y="121.0"/>
      <point x="126.0" y="102.0" type="qcurve" smooth="yes"/>
      <point x="207.0" y="44.0"/>
      <point x="292.0" y="44.0" type="qcurve" smooth="yes"/>
      <point x="294.0" y="44.0"/>
      <point x="295.0" y="44.0" type="qcurve" smooth="yes"/>
      <point x="378.0" y="44.0"/>
      <point x="424.0" y="92.0" type="qcurve" smooth="yes"/>
      <point x="471.0" y="141.0"/>
      <point x="471.0" y="229.0" type="qcurve" smooth="yes"/>
      <point x="471.0" y="230.0"/>
      <point x="471.0" y="231.0" type="qcurve" smooth="yes"/>
      <point x="471.0" y="345.0"/>
      <point x="366.0" y="379.0" type="qcurve" smooth="yes"/>
      <point x="342.0" y="387.0"/>
      <point x="317.0" y="387.0" type="qcurve" smooth="yes"/>
      <point x="75.0" y="387.0" type="line"/>
      <point x="84.0" y="512.0" type="line" smooth="yes"/>
      <point x="89.0" y="584.0"/>
      <point x="141.0" y="641.0"/>
      <point x="198.0" y="641.0" type="qcurve" smooth="yes"/>
      <point x="449.0" y="641.0" type="line" smooth="yes"/>
      <point x="481.0" y="641.0"/>
      <point x="481.0" y="589.0"/>
      <point x="449.0" y="589.0" type="qcurve" smooth="yes"/>
      <point x="192.0" y="589.0" type="line" smooth="yes"/>
      <point x="167.0" y="589.0"/>
      <point x="141.0" y="563.0"/>
      <point x="138.0" y="529.0" type="qcurve" smooth="yes"/>
      <point x="132.0" y="439.0" type="line"/>
      <point x="308.0" y="439.0" type="line" smooth="yes"/>
      <point x="392.0" y="439.0"/>
      <point x="523.0" y="325.0"/>
      <point x="523.0" y="118.0"/>
      <point x="394.0" y="-9.0"/>
      <point x="291.0" y="-9.0" type="qcurve" smooth="yes"/>
      <point x="228.0" y="-9.0"/>
      <point x="69.0" y="61.0"/>
      <point x="69.0" y="95.0" type="qcurve" smooth="yes"/>
      <point x="69.0" y="105.0"/>
      <point x="85.0" y="121.0"/>
    </contour>
  </outline>
</glyph>
<glyph name="six" format="2">
  <advance width="592"/>
  <unicode hex="0036"/>
  <outline>
    <contour>
      <point x="139.0" y="497.0" type="qcurve" smooth="yes"/>
      <point x="170.0" y="546.0"/>
      <point x="205.0" y="580.0" type="qcurve" smooth="yes"/>
      <point x="270.0" y="644.0"/>
      <point x="333.0" y="644.0"/>
      <point x="333.0" y="621.0" type="qcurve" smooth="yes"/>
      <point x="333.0" y="605.0"/>
      <point x="259.0" y="567.0"/>
      <point x="164.0" y="456.0"/>
      <point x="139.0" y="375.0" type="qcurve"/>
      <point x="203.0" y="428.0"/>
      <point x="396.0" y="428.0"/>
      <point x="528.0" y="305.0"/>
      <point x="528.0" y="114.0"/>
      <point x="396.0" y="-9.0"/>
      <point x="195.0" y="-9.0"/>
      <point x="64.0" y="113.0"/>
      <point x="64.0" y="296.0"/>
      <point x="108.0" y="449.0"/>
    </contour>
    <contour>
      <point x="212.0" y="376.0"/>
      <point x="116.0" y="285.0"/>
      <point x="116.0" y="134.0"/>
      <point x="212.0" y="43.0"/>
      <point x="380.0" y="43.0"/>
      <point x="476.0" y="134.0"/>
      <point x="476.0" y="285.0"/>
      <point x="380.0" y="376.0"/>
    </contour>
  </outline>
</glyph>
<glyph name="seven" format="2">
  <advance width="592"/>
  <unicode hex="0037"/>
  <outline>
    <contour>
      <point x="270.0" y="-10.0" type="qcurve" smooth="yes"/>
      <point x="241.0" y="-10.0"/>
      <point x="241.0" y="14.0" type="qcurve" smooth="yes"/>
      <point x="241.0" y="24.0"/>
      <point x="246.0" y="35.0" type="qcurve"/>
      <point x="457.0" y="594.0" type="line"/>
      <point x="181.0" y="594.0" type="line" smooth="yes"/>
      <point x="149.0" y="594.0"/>
      <point x="125.0" y="567.0"/>
      <point x="125.0" y="499.0"/>
      <point x="99.0" y="499.0" type="qcurve" smooth="yes"/>
      <point x="98.0" y="499.0" type="line" smooth="yes"/>
      <point x="73.0" y="499.0"/>
      <point x="73.0" y="546.0" type="qcurve" smooth="yes"/>
      <point x="73.0" y="646.0"/>
      <point x="173.0" y="646.0" type="qcurve" smooth="yes"/>
      <point x="493.0" y="646.0" type="line" smooth="yes"/>
      <point x="519.0" y="646.0"/>
      <point x="519.0" y="623.0" type="qcurve" smooth="yes"/>
      <point x="519.0" y="614.0"/>
      <point x="515.0" y="602.0" type="qcurve" smooth="yes"/>
      <point x="297.0" y="16.0" type="line" smooth="yes"/>
      <point x="287.0" y="-10.0"/>
    </contour>
  </outline>
</glyph>
<glyph name="eight" format="2">
  <advance width="592"/>
  <unicode hex="0038"/>
  <outline>
    <contour>
      <point x="124.0" y="105.0" type="qcurve" smooth="yes"/>
      <point x="133.0" y="78.0"/>
      <point x="156.0" y="66.0" type="qcurve" smooth="yes"/>
      <point x="192.0" y="47.0"/>
      <point x="273.0" y="47.0" type="qcurve" smooth="yes"/>
      <point x="277.0" y="47.0"/>
      <point x="281.0" y="47.0" type="qcurve" smooth="yes"/>
      <point x="312.0" y="47.0" type="line" smooth="yes"/>
      <point x="400.0" y="47.0"/>
      <point x="459.0" y="79.0"/>
      <point x="476.0" y="131.0"/>
      <point x="476.0" y="256.0"/>
      <point x="406.0" y="302.0"/>
      <point x="312.0" y="302.0" type="qcurve" smooth="yes"/>
      <point x="281.0" y="302.0" type="line" smooth="yes"/>
      <point x="191.0" y="302.0"/>
      <point x="133.0" y="269.0"/>
      <point x="116.0" y="217.0"/>
      <point x="116.0" y="131.0"/>
    </contour>
    <contour>
      <point x="312.0" y="-5.0" type="qcurve" smooth="yes"/>
      <point x="281.0" y="-5.0" type="line" smooth="yes"/>
      <point x="148.0" y="-5.0"/>
      <point x="102.0" y="44.0" type="qcurve" smooth="yes"/>
      <point x="64.0" y="86.0"/>
      <point x="64.0" y="286.0"/>
      <point x="128.0" y="326.0" type="qcurve"/>
      <point x="64.0" y="361.0"/>
      <point x="64.0" y="472.0" type="qcurve" smooth="yes"/>
      <point x="64.0" y="600.0"/>
      <point x="150.0" y="626.0" type="qcurve" smooth="yes"/>
      <point x="197.0" y="640.0"/>
      <point x="281.0" y="641.0" type="qcurve" smooth="yes"/>
      <point x="312.0" y="641.0" type="line" smooth="yes"/>
      <point x="315.0" y="641.0"/>
      <point x="318.0" y="641.0" type="qcurve" smooth="yes"/>
      <point x="451.0" y="641.0"/>
      <point x="490.0" y="600.0" type="qcurve" smooth="yes"/>
      <point x="528.0" y="559.0"/>
      <point x="528.0" y="361.0"/>
      <point x="465.0" y="326.0" type="qcurve"/>
      <point x="528.0" y="285.0"/>
      <point x="528.0" y="63.0"/>
      <point x="417.0" y="-5.0"/>
    </contour>
    <contour>
      <point x="426.0" y="580.0" type="qcurve" smooth="yes"/>
      <point x="418.0" y="584.0"/>
      <point x="396.0" y="586.0" type="qcurve" smooth="yes"/>
      <point x="363.0" y="589.0"/>
      <point x="312.0" y="589.0" type="qcurve" smooth="yes"/>
      <point x="281.0" y="589.0" type="line" smooth="yes"/>
      <point x="277.0" y="589.0"/>
      <point x="272.0" y="589.0" type="qcurve" smooth="yes"/>
      <point x="159.0" y="589.0"/>
      <point x="140.0" y="564.0" type="qcurve" smooth="yes"/>
      <point x="116.0" y="533.0"/>
      <point x="116.0" y="437.0"/>
      <point x="130.0" y="393.0"/>
      <point x="140.0" y="380.0" type="qcurve" smooth="yes"/>
      <point x="150.0" y="368.0"/>
      <point x="174.0" y="362.0" type="qcurve" smooth="yes"/>
      <point x="206.0" y="354.0"/>
      <point x="281.0" y="354.0" type="qcurve" smooth="yes"/>
      <point x="312.0" y="354.0" type="line" smooth="yes"/>
      <point x="418.0" y="354.0"/>
      <point x="448.0" y="376.0"/>
      <point x="469.0" y="402.0"/>
      <point x="476.0" y="443.0"/>
      <point x="476.0" y="497.0"/>
      <point x="469.0" y="533.0"/>
      <point x="460.0" y="559.0"/>
      <point x="436.0" y="575.0"/>
    </contour>
  </outline>
</glyph>
<glyph name="nine" format="2">
  <advance width="592"/>
  <unicode hex="0039"/>
  <outline>
    <contour>
      <point x="312.0" y="641.0" type="qcurve" smooth="yes"/>
      <point x="528.0" y="641.0"/>
      <point x="528.0" y="470.0" type="qcurve" smooth="yes"/>
      <point x="528.0" y="364.0"/>
      <point x="464.0" y="178.0"/>
      <point x="414.0" y="116.0" type="qcurve" smooth="yes"/>
      <point x="308.0" y="-16.0"/>
      <point x="170.0" y="-16.0" type="qcurve" smooth="yes"/>
      <point x="139.0" y="-16.0"/>
      <point x="139.0" y="37.0"/>
      <point x="205.0" y="37.0"/>
      <point x="288.0" y="72.0"/>
      <point x="331.0" y="106.0" type="qcurve" smooth="yes"/>
      <point x="428.0" y="182.0"/>
      <point x="463.0" y="334.0" type="qcurve"/>
      <point x="412.0" y="302.0"/>
      <point x="312.0" y="302.0" type="qcurve" smooth="yes"/>
      <point x="64.0" y="302.0"/>
      <point x="64.0" y="641.0"/>
    </contour>
    <contour>
      <point x="312.0" y="354.0" type="qcurve" smooth="yes"/>
      <point x="476.0" y="354.0"/>
      <point x="476.0" y="589.0"/>
      <point x="312.0" y="589.0" type="qcurve" smooth="yes"/>
      <point x="116.0" y="589.0"/>
      <point x="116.0" y="471.0" type="qcurve" smooth="yes"/>
      <point x="116.0" y="394.0"/>
      <point x="183.0" y="372.0" type="qcurve" smooth="yes"/>
      <point x="236.0" y="354.0"/>
    </contour>
  </outline>
</glyph>
<glyph name="colon" format="2">
  <advance width="248"/>
  <unicode hex="003A"/>
  <outline>
    <contour>
      <point x="73.0" y="97.0"/>
      <point x="107.0" y="121.0"/>
      <point x="140.0" y="121.0"/>
      <point x="175.0" y="97.0"/>
      <point x="175.0" y="63.0"/>
      <point x="140.0" y="39.0"/>
      <point x="107.0" y="39.0"/>
      <point x="73.0" y="63.0"/>
    </contour>
    <contour>
      <point x="73.0" y="450.0"/>
      <point x="107.0" y="474.0"/>
      <point x="140.0" y="474.0"/>
      <point x="175.0" y="450.0"/>
      <point x="175.0" y="416.0"/>
      <point x="140.0" y="392.0"/>
      <point x="107.0" y="392.0"/>
      <point x="73.0" y="416.0"/>
    </contour>
  </outline>
</glyph>
<glyph name="semicolon" format="2">
  <advance width="251"/>
  <unicode hex="003B"/>
  <outline>
    <contour>
      <point x="168.0" y="73.0" type="qcurve" smooth="yes"/>
      <point x="127.0" y="-10.0" type="line"/>
      <point x="117.0" y="-34.0"/>
      <point x="102.0" y="-34.0" type="qcurve" smooth="yes"/>
      <point x="80.0" y="-34.0"/>
      <point x="80.0" y="-9.0" type="qcurve" smooth="yes"/>
      <point x="80.0" y="-5.0"/>
      <point x="83.0" y="7.0" type="qcurve" smooth="yes"/>
      <point x="107.0" y="94.0" type="line" smooth="yes"/>
      <point x="114.0" y="117.0"/>
      <point x="132.0" y="117.0" type="qcurve" smooth="yes"/>
      <point x="143.0" y="117.0"/>
      <point x="173.0" y="105.0"/>
      <point x="173.0" y="82.0"/>
    </contour>
    <contour>
      <point x="73.0" y="450.0"/>
      <point x="107.0" y="474.0"/>
      <point x="140.0" y="474.0"/>
      <point x="175.0" y="450.0"/>
      <point x="175.0" y="416.0"/>
      <point x="140.0" y="392.0"/>
      <point x="107.0" y="392.0"/>
      <point x="73.0" y="416.0"/>
    </contour>
  </outline>
</glyph>
<glyph name="less" format="2">
  <advance width="530"/>
  <unicode hex="003C"/>
  <outline>
    <contour>
      <point x="435.0" y="574.0" type="qcurve" smooth="yes"/>
      <point x="460.0" y="574.0"/>
      <point x="460.0" y="551.0" type="qcurve" smooth="yes"/>
      <point x="460.0" y="531.0"/>
      <point x="441.0" y="523.0" type="qcurve"/>
      <point x="110.0" y="333.0" type="line"/>
      <point x="440.0" y="141.0" type="line"/>
      <point x="460.0" y="131.0"/>
      <point x="460.0" y="120.0" type="qcurve" smooth="yes"/>
      <point x="460.0" y="89.0"/>
      <point x="436.0" y="89.0" type="qcurve" smooth="yes"/>
      <point x="426.0" y="89.0"/>
      <point x="415.0" y="96.0" type="qcurve" smooth="yes"/>
      <point x="51.0" y="306.0" type="line" smooth="yes"/>
      <point x="33.0" y="317.0"/>
      <point x="33.0" y="348.0"/>
      <point x="51.0" y="358.0" type="qcurve" smooth="yes"/>
      <point x="415.0" y="568.0" type="line"/>
      <point x="423.0" y="574.0"/>
    </contour>
  </outline>
</glyph>
<glyph name="equal" format="2">
  <advance width="468"/>
  <unicode hex="003D"/>
  <outline>
    <contour>
      <point x="355.0" y="410.0" type="line" smooth="yes"/>
      <point x="389.0" y="410.0"/>
      <point x="389.0" y="357.0"/>
      <point x="355.0" y="357.0" type="qcurve" smooth="yes"/>
      <point x="110.0" y="357.0" type="line" smooth="yes"/>
      <point x="79.0" y="357.0"/>
      <point x="79.0" y="410.0"/>
      <point x="110.0" y="410.0" type="qcurve" smooth="yes"/>
    </contour>
    <contour>
      <point x="355.0" y="307.0" type="line" smooth="yes"/>
      <point x="389.0" y="307.0"/>
      <point x="389.0" y="254.0"/>
      <point x="355.0" y="254.0" type="qcurve" smooth="yes"/>
      <point x="110.0" y="254.0" type="line" smooth="yes"/>
      <point x="79.0" y="254.0"/>
      <point x="79.0" y="307.0"/>
      <point x="110.0" y="307.0" type="qcurve" smooth="yes"/>
    </contour>
  </outline>
</glyph>
<glyph name="greater" format="2">
  <advance width="530"/>
  <unicode hex="003E"/>
  <outline>
    <contour>
      <point x="95.0" y="574.0" type="qcurve" smooth="yes"/>
      <point x="107.0" y="574.0"/>
      <point x="115.0" y="568.0" type="qcurve"/>
      <point x="479.0" y="358.0" type="line" smooth="yes"/>
      <point x="497.0" y="348.0"/>
      <point x="497.0" y="317.0"/>
      <point x="479.0" y="306.0" type="qcurve" smooth="yes"/>
      <point x="115.0" y="96.0" type="line" smooth="yes"/>
      <point x="104.0" y="89.0"/>
      <point x="82.0" y="89.0"/>
      <point x="70.0" y="109.0"/>
      <point x="70.0" y="131.0"/>
      <point x="90.0" y="141.0" type="qcurve"/>
      <point x="420.0" y="333.0" type="line"/>
      <point x="89.0" y="523.0" type="line"/>
      <point x="70.0" y="531.0"/>
      <point x="70.0" y="574.0"/>
    </contour>
  </outline>
</glyph>
<glyph name="question" format="2">
  <advance width="536"/>
  <unicode hex="003F"/>
  <outline>
    <contour>
      <point x="200.0" y="46.0"/>
      <point x="234.0" y="70.0"/>
      <point x="267.0" y="70.0"/>
      <point x="302.0" y="46.0"/>
      <point x="302.0" y="12.0"/>
      <point x="267.0" y="-12.0"/>
      <point x="234.0" y="-12.0"/>
      <point x="200.0" y="12.0"/>
    </contour>
    <contour>
      <point x="277.0" y="194.0" type="line" smooth="yes"/>
      <point x="277.0" y="161.0"/>
      <point x="225.0" y="161.0"/>
      <point x="225.0" y="194.0" type="qcurve" smooth="yes"/>
      <point x="225.0" y="338.0" type="line"/>
      <point x="382.0" y="381.0" type="line" smooth="yes"/>
      <point x="408.0" y="388.0"/>
      <point x="442.0" y="444.0"/>
      <point x="442.0" y="526.0"/>
      <point x="395.0" y="597.0"/>
      <point x="345.0" y="597.0" type="qcurve" smooth="yes"/>
      <point x="252.0" y="597.0" type="line" smooth="yes"/>
      <point x="138.0" y="597.0"/>
      <point x="114.0" y="566.0" type="qcurve" smooth="yes"/>
      <point x="91.0" y="536.0"/>
      <point x="91.0" y="476.0" type="qcurve" smooth="yes"/>
      <point x="91.0" y="473.0"/>
      <point x="91.0" y="471.0" type="qcurve" smooth="yes"/>
      <point x="91.0" y="438.0"/>
      <point x="38.0" y="438.0"/>
      <point x="38.0" y="527.0"/>
      <point x="67.0" y="600.0"/>
      <point x="98.0" y="618.0" type="qcurve" smooth="yes"/>
      <point x="151.0" y="649.0"/>
      <point x="252.0" y="649.0" type="qcurve" smooth="yes"/>
      <point x="328.0" y="649.0" type="line" smooth="yes"/>
      <point x="416.0" y="649.0"/>
      <point x="494.0" y="552.0"/>
      <point x="494.0" y="417.0"/>
      <point x="437.0" y="343.0"/>
      <point x="367.0" y="324.0" type="qcurve" smooth="yes"/>
      <point x="277.0" y="299.0" type="line"/>
    </contour>
  </outline>
</glyph>
<glyph name="at" format="2">
  <advance width="593"/>
  <unicode hex="0040"/>
  <outline>
    <contour>
      <point x="283.0" y="-5.0" type="line" smooth="yes"/>
      <point x="186.0" y="-5.0"/>
      <point x="70.0" y="126.0"/>
      <point x="70.0" y="241.0" type="qcurve" smooth="yes"/>
      <point x="70.0" y="395.0" type="line" smooth="yes"/>
      <point x="70.0" y="510.0"/>
      <point x="186.0" y="641.0"/>
      <point x="283.0" y="641.0" type="qcurve" smooth="yes"/>
      <point x="312.0" y="641.0" type="line" smooth="yes"/>
      <point x="409.0" y="641.0"/>
      <point x="525.0" y="510.0"/>
      <point x="525.0" y="395.0" type="qcurve" smooth="yes"/>
      <point x="525.0" y="294.0"/>
      <point x="495.0" y="244.0"/>
      <point x="478.0" y="228.0" type="qcurve" smooth="yes"/>
      <point x="462.0" y="212.0"/>
      <point x="438.0" y="204.0" type="qcurve" smooth="yes"/>
      <point x="378.0" y="184.0"/>
      <point x="306.0" y="184.0" type="qcurve" smooth="yes"/>
      <point x="228.0" y="185.0"/>
      <point x="175.0" y="253.0"/>
      <point x="175.0" y="410.0"/>
      <point x="228.0" y="478.0"/>
      <point x="374.0" y="478.0"/>
      <point x="428.0" y="410.0"/>
      <point x="428.0" y="281.0"/>
      <point x="418.0" y="250.0" type="qcurve"/>
      <point x="450.0" y="259.0"/>
      <point x="473.0" y="315.0"/>
      <point x="473.0" y="487.0"/>
      <point x="391.0" y="589.0"/>
      <point x="312.0" y="589.0" type="qcurve" smooth="yes"/>
      <point x="283.0" y="589.0" type="line" smooth="yes"/>
      <point x="203.0" y="589.0"/>
      <point x="122.0" y="487.0"/>
      <point x="122.0" y="395.0" type="qcurve" smooth="yes"/>
      <point x="122.0" y="241.0" type="line" smooth="yes"/>
      <point x="122.0" y="149.0"/>
      <point x="203.0" y="47.0"/>
      <point x="283.0" y="47.0" type="qcurve" smooth="yes"/>
      <point x="417.0" y="47.0" type="line" smooth="yes"/>
      <point x="448.0" y="47.0"/>
      <point x="473.0" y="74.0"/>
      <point x="473.0" y="142.0"/>
      <point x="525.0" y="142.0"/>
      <point x="525.0" y="83.0"/>
      <point x="522.0" y="66.0" type="qcurve"/>
      <point x="518.0" y="50.0"/>
      <point x="508.0" y="32.0" type="qcurve" smooth="yes"/>
      <point x="487.0" y="-5.0"/>
      <point x="424.0" y="-5.0" type="qcurve" smooth="yes"/>
    </contour>
    <contour>
      <point x="227.0" y="274.0"/>
      <point x="253.0" y="237.0"/>
      <point x="350.0" y="237.0"/>
      <point x="376.0" y="275.0"/>
      <point x="376.0" y="389.0"/>
      <point x="350.0" y="426.0"/>
      <point x="253.0" y="426.0"/>
      <point x="227.0" y="389.0"/>
    </contour>
  </outline>
</glyph>
<glyph name="A" format="2">
  <advance width="570"/>
  <unicode hex="0041"/>
  <outline>
    <contour>
      <point x="50.0" y="-16.0" type="qcurve" smooth="yes"/>
      <point x="24.0" y="-16.0"/>
      <point x="24.0" y="9.0" type="qcurve" smooth="yes"/>
      <point x="24.0" y="16.0"/>
      <point x="27.0" y="25.0" type="qcurve" smooth="yes"/>
      <point x="254.0" y="636.0" type="line"/>
      <point x="316.0" y="636.0" type="line"/>
      <point x="543.0" y="25.0" type="line" smooth="yes"/>
      <point x="546.0" y="16.0"/>
      <point x="546.0" y="9.0" type="qcurve" smooth="yes"/>
      <point x="546.0" y="-16.0"/>
      <point x="520.0" y="-16.0" type="qcurve" smooth="yes"/>
      <point x="503.0" y="-16.0"/>
      <point x="493.0" y="7.0" type="qcurve"/>
      <point x="422.0" y="199.0" type="line"/>
      <point x="148.0" y="199.0" type="line"/>
      <point x="77.0" y="7.0" type="line"/>
      <point x="67.0" y="-16.0"/>
    </contour>
    <contour>
      <point x="284.0" y="560.0" type="line"/>
      <point x="168.0" y="251.0" type="line"/>
      <point x="402.0" y="251.0" type="line"/>
    </contour>
  </outline>
</glyph>
<glyph name="B" format="2">
  <advance width="605"/>
  <unicode hex="0042"/>
  <outline>
    <contour>
      <point x="136.0" y="332.0" type="line"/>
      <point x="136.0" y="52.0" type="line"/>
      <point x="326.0" y="52.0" type="line" smooth="yes"/>
      <point x="424.0" y="52.0"/>
      <point x="496.0" y="97.0"/>
      <point x="496.0" y="178.0" type="qcurve" smooth="yes"/>
      <point x="496.0" y="206.0" type="line" smooth="yes"/>
      <point x="496.0" y="287.0"/>
      <point x="426.0" y="332.0"/>
      <point x="332.0" y="332.0" type="qcurve" smooth="yes"/>
    </contour>
    <contour>
      <point x="457.0" y="374.0" type="qcurve"/>
      <point x="548.0" y="340.0"/>
      <point x="548.0" y="209.0" type="qcurve" smooth="yes"/>
      <point x="548.0" y="180.0" type="line" smooth="yes"/>
      <point x="548.0" y="72.0"/>
      <point x="441.0" y="0.0"/>
      <point x="326.0" y="0.0" type="qcurve" smooth="yes"/>
      <point x="108.0" y="0.0" type="line" smooth="yes"/>
      <point x="84.0" y="0.0"/>
      <point x="84.0" y="36.0" type="qcurve" smooth="yes"/>
      <point x="84.0" y="600.0" type="line" smooth="yes"/>
      <point x="84.0" y="636.0"/>
      <point x="108.0" y="636.0" type="qcurve" smooth="yes"/>
      <point x="288.0" y="636.0" type="line" smooth="yes"/>
      <point x="399.0" y="636.0"/>
      <point x="506.0" y="574.0"/>
      <point x="506.0" y="410.0"/>
    </contour>
    <contour>
      <point x="288.0" y="384.0" type="line" smooth="yes"/>
      <point x="380.0" y="384.0"/>
      <point x="454.0" y="422.0"/>
      <point x="454.0" y="544.0"/>
      <point x="381.0" y="579.0"/>
      <point x="288.0" y="579.0" type="qcurve" smooth="yes"/>
      <point x="136.0" y="579.0" type="line"/>
      <point x="136.0" y="384.0" type="line"/>
    </contour>
  </outline>
</glyph>
<glyph name="C" format="2">
  <advance width="592"/>
  <unicode hex="0043"/>
  <outline>
    <contour>
      <point x="436.0" y="0.0" type="qcurve" smooth="yes"/>
      <point x="295.0" y="0.0" type="line" smooth="yes"/>
      <point x="179.0" y="0.0"/>
      <point x="72.0" y="72.0"/>
      <point x="72.0" y="180.0" type="qcurve" smooth="yes"/>
      <point x="72.0" y="456.0" type="line" smooth="yes"/>
      <point x="72.0" y="564.0"/>
      <point x="178.0" y="636.0"/>
      <point x="289.0" y="636.0" type="qcurve" smooth="yes"/>
      <point x="436.0" y="636.0" type="line" smooth="yes"/>
      <point x="520.0" y="636.0"/>
      <point x="533.0" y="565.0" type="qcurve" smooth="yes"/>
      <point x="536.0" y="548.0"/>
      <point x="536.0" y="489.0"/>
      <point x="484.0" y="489.0"/>
      <point x="484.0" y="557.0"/>
      <point x="460.0" y="584.0"/>
      <point x="429.0" y="584.0" type="qcurve" smooth="yes"/>
      <point x="289.0" y="584.0" type="line" smooth="yes"/>
      <point x="199.0" y="584.0"/>
      <point x="141.0" y="551.0"/>
      <point x="124.0" y="499.0"/>
      <point x="124.0" y="456.0" type="qcurve" smooth="yes"/>
      <point x="124.0" y="180.0" type="line" smooth="yes"/>
      <point x="124.0" y="97.0"/>
      <point x="196.0" y="52.0"/>
      <point x="295.0" y="52.0" type="qcurve" smooth="yes"/>
      <point x="429.0" y="52.0" type="line" smooth="yes"/>
      <point x="461.0" y="52.0"/>
      <point x="484.0" y="80.0"/>
      <point x="484.0" y="147.0"/>
      <point x="536.0" y="147.0"/>
      <point x="536.0" y="88.0"/>
      <point x="530.0" y="54.0"/>
      <point x="520.0" y="36.0" type="qcurve" smooth="yes"/>
      <point x="500.0" y="0.0"/>
    </contour>
  </outline>
</glyph>
<glyph name="E" format="2">
  <advance width="598"/>
  <unicode hex="0045"/>
  <outline>
    <contour>
      <point x="136.0" y="332.0" type="line"/>
      <point x="136.0" y="52.0" type="line"/>
      <point x="514.0" y="52.0" type="line" smooth="yes"/>
      <point x="548.0" y="52.0"/>
      <point x="548.0" y="0.0"/>
      <point x="514.0" y="0.0" type="qcurve" smooth="yes"/>
      <point x="108.0" y="0.0" type="line" smooth="yes"/>
      <point x="84.0" y="0.0"/>
      <point x="84.0" y="36.0" type="qcurve" smooth="yes"/>
      <point x="84.0" y="600.0" type="line" smooth="yes"/>
      <point x="84.0" y="636.0"/>
      <point x="108.0" y="636.0" type="qcurve" smooth="yes"/>
      <point x="514.0" y="636.0" type="line" smooth="yes"/>
      <point x="548.0" y="636.0"/>
      <point x="548.0" y="584.0"/>
      <point x="514.0" y="584.0" type="qcurve" smooth="yes"/>
      <point x="136.0" y="584.0" type="line"/>
      <point x="136.0" y="384.0" type="line"/>
      <point x="395.0" y="384.0" type="line" smooth="yes"/>
      <point x="431.0" y="384.0"/>
      <point x="431.0" y="332.0"/>
      <point x="395.0" y="332.0" type="qcurve" smooth="yes"/>
    </contour>
  </outline>
</glyph>
<glyph name="F" format="2">
  <advance width="577"/>
  <unicode hex="0046"/>
  <outline>
    <contour>
      <point x="136.0" y="27.0" type="line" smooth="yes"/>
      <point x="136.0" y="-7.0"/>
      <point x="84.0" y="-7.0"/>
      <point x="84.0" y="28.0" type="qcurve" smooth="yes"/>
      <point x="84.0" y="600.0" type="line" smooth="yes"/>
      <point x="84.0" y="636.0"/>
      <point x="108.0" y="636.0" type="qcurve" smooth="yes"/>
      <point x="514.0" y="636.0" type="line" smooth="yes"/>
      <point x="548.0" y="636.0"/>
      <point x="548.0" y="584.0"/>
      <point x="514.0" y="584.0" type="qcurve" smooth="yes"/>
      <point x="136.0" y="584.0" type="line"/>
      <point x="136.0" y="384.0" type="line"/>
      <point x="395.0" y="384.0" type="line" smooth="yes"/>
      <point x="431.0" y="384.0"/>
      <point x="431.0" y="332.0"/>
      <point x="395.0" y="332.0" type="qcurve" smooth="yes"/>
      <point x="136.0" y="332.0" type="line"/>
    </contour>
  </outline>
</glyph>
<glyph name="G" format="2">
  <advance width="606"/>
  <unicode hex="0047"/>
  <outline>
    <contour>
      <point x="484.0" y="246.0" type="line"/>
      <point x="353.0" y="246.0" type="line" smooth="yes"/>
      <point x="317.0" y="246.0"/>
      <point x="317.0" y="298.0"/>
      <point x="353.0" y="298.0" type="qcurve" smooth="yes"/>
      <point x="536.0" y="298.0" type="line"/>
      <point x="536.0" y="109.0" type="line" smooth="yes"/>
      <point x="536.0" y="60.0"/>
      <point x="497.0" y="0.0"/>
      <point x="436.0" y="0.0" type="qcurve" smooth="yes"/>
      <point x="289.0" y="0.0" type="line" smooth="yes"/>
      <point x="184.0" y="0.0"/>
      <point x="101.0" y="49.0"/>
      <point x="72.0" y="121.0"/>
      <point x="72.0" y="177.0" type="qcurve" smooth="yes"/>
      <point x="72.0" y="459.0" type="line" smooth="yes"/>
      <point x="72.0" y="565.0"/>
      <point x="179.0" y="636.0"/>
      <point x="295.0" y="636.0" type="qcurve" smooth="yes"/>
      <point x="436.0" y="636.0" type="line" smooth="yes"/>
      <point x="520.0" y="636.0"/>
      <point x="533.0" y="565.0" type="qcurve" smooth="yes"/>
      <point x="536.0" y="548.0"/>
      <point x="536.0" y="489.0"/>
      <point x="484.0" y="489.0"/>
      <point x="484.0" y="556.0"/>
      <point x="461.0" y="584.0"/>
      <point x="429.0" y="584.0" type="qcurve" smooth="yes"/>
      <point x="295.0" y="584.0" type="line" smooth="yes"/>
      <point x="196.0" y="584.0"/>
      <point x="124.0" y="539.0"/>
      <point x="124.0" y="458.0" type="qcurve" smooth="yes"/>
      <point x="124.0" y="178.0" type="line" smooth="yes"/>
      <point x="124.0" y="97.0"/>
      <point x="195.0" y="52.0"/>
      <point x="289.0" y="52.0" type="qcurve" smooth="yes"/>
      <point x="429.0" y="52.0" type="line" smooth="yes"/>
      <point x="461.0" y="52.0"/>
      <point x="484.0" y="79.0"/>
      <point x="484.0" y="112.0" type="qcurve" smooth="yes"/>
    </contour>
  </outline>
</glyph>
<glyph name="H" format="2">
  <advance width="632"/>
  <unicode hex="0048"/>
  <outline>
    <contour>
      <point x="136.0" y="27.0" type="line" smooth="yes"/>
      <point x="136.0" y="-7.0"/>
      <point x="84.0" y="-7.0"/>
      <point x="84.0" y="27.0" type="qcurve" smooth="yes"/>
      <point x="84.0" y="608.0" type="line" smooth="yes"/>
      <point x="84.0" y="643.0"/>
      <point x="136.0" y="643.0"/>
      <point x="136.0" y="608.0" type="qcurve" smooth="yes"/>
      <point x="136.0" y="369.0" type="line"/>
      <point x="496.0" y="369.0" type="line"/>
      <point x="496.0" y="608.0" type="line" smooth="yes"/>
      <point x="496.0" y="643.0"/>
      <point x="548.0" y="643.0"/>
      <point x="548.0" y="608.0" type="qcurve" smooth="yes"/>
      <point x="548.0" y="27.0" type="line" smooth="yes"/>
      <point x="548.0" y="-7.0"/>
      <point x="496.0" y="-7.0"/>
      <point x="496.0" y="27.0" type="qcurve" smooth="yes"/>
      <point x="496.0" y="317.0" type="line"/>
      <point x="136.0" y="317.0" type="line"/>
    </contour>
  </outline>
</glyph>
<glyph name="I" format="2">
  <advance width="220"/>
  <unicode hex="0049"/>
  <outline>
    <contour>
      <point x="136.0" y="25.0" type="line" smooth="yes"/>
      <point x="136.0" y="-7.0"/>
      <point x="84.0" y="-7.0"/>
      <point x="84.0" y="25.0" type="qcurve" smooth="yes"/>
      <point x="84.0" y="610.0" type="line" smooth="yes"/>
      <point x="84.0" y="643.0"/>
      <point x="136.0" y="643.0"/>
      <point x="136.0" y="610.0" type="qcurve" smooth="yes"/>
    </contour>
  </outline>
</glyph>
<glyph name="J" format="2">
  <advance width="550"/>
  <unicode hex="004A"/>
  <outline>
    <contour>
      <point x="417.0" y="170.0" type="qcurve" smooth="yes"/>
      <point x="417.0" y="611.0" type="line" smooth="yes"/>
      <point x="417.0" y="643.0"/>
      <point x="469.0" y="643.0"/>
      <point x="469.0" y="610.0" type="qcurve" smooth="yes"/>
      <point x="469.0" y="169.0" type="line" smooth="yes"/>
      <point x="469.0" y="167.0"/>
      <point x="469.0" y="165.0" type="qcurve" smooth="yes"/>
      <point x="469.0" y="57.0"/>
      <point x="410.0" y="23.0" type="qcurve" smooth="yes"/>
      <point x="357.0" y="-8.0"/>
      <point x="196.0" y="-8.0"/>
      <point x="160.0" y="-2.0" type="qcurve" smooth="yes"/>
      <point x="123.0" y="6.0"/>
      <point x="92.0" y="24.0" type="qcurve" smooth="yes"/>
      <point x="32.0" y="59.0"/>
      <point x="32.0" y="172.0" type="qcurve" smooth="yes"/>
      <point x="32.0" y="205.0"/>
      <point x="85.0" y="205.0"/>
      <point x="85.0" y="172.0" type="qcurve" smooth="yes"/>
      <point x="85.0" y="89.0"/>
      <point x="155.0" y="44.0"/>
      <point x="346.0" y="44.0"/>
      <point x="417.0" y="89.0"/>
    </contour>
  </outline>
</glyph>
<glyph name="K" format="2">
  <advance width="518"/>
  <unicode hex="004B"/>
  <outline>
    <contour>
      <point x="463.0" y="8.0" type="qcurve" smooth="yes"/>
      <point x="189.0" y="322.0" type="line"/>
      <point x="136.0" y="258.0" type="line"/>
      <point x="136.0" y="25.0" type="line" smooth="yes"/>
      <point x="136.0" y="-7.0"/>
      <point x="84.0" y="-7.0"/>
      <point x="84.0" y="25.0" type="qcurve" smooth="yes"/>
      <point x="84.0" y="610.0" type="line" smooth="yes"/>
      <point x="84.0" y="643.0"/>
      <point x="136.0" y="643.0"/>
      <point x="136.0" y="610.0" type="qcurve" smooth="yes"/>
      <point x="136.0" y="330.0" type="line"/>
      <point x="397.0" y="628.0" type="line"/>
      <point x="408.0" y="643.0"/>
      <point x="430.0" y="643.0"/>
      <point x="438.0" y="636.0" type="qcurve" smooth="yes"/>
      <point x="447.0" y="628.0"/>
      <point x="447.0" y="608.0"/>
      <point x="437.0" y="595.0" type="qcurve"/>
      <point x="224.0" y="356.0" type="line"/>
      <point x="503.0" y="41.0" type="line" smooth="yes"/>
      <point x="514.0" y="28.0"/>
      <point x="514.0" y="8.0"/>
      <point x="496.0" y="-7.0"/>
      <point x="476.0" y="-7.0"/>
    </contour>
  </outline>
</glyph>
<glyph name="L" format="2">
  <advance width="516"/>
  <unicode hex="004C"/>
  <outline>
    <contour>
      <point x="108.0" y="0.0" type="line" smooth="yes"/>
      <point x="84.0" y="0.0"/>
      <point x="84.0" y="35.0" type="qcurve" smooth="yes"/>
      <point x="84.0" y="611.0" type="line" smooth="yes"/>
      <point x="84.0" y="643.0"/>
      <point x="136.0" y="643.0"/>
      <point x="136.0" y="611.0" type="qcurve" smooth="yes"/>
      <point x="136.0" y="52.0" type="line"/>
      <point x="459.0" y="52.0" type="line" smooth="yes"/>
      <point x="492.0" y="52.0"/>
      <point x="492.0" y="0.0"/>
      <point x="459.0" y="0.0" type="qcurve" smooth="yes"/>
    </contour>
  </outline>
</glyph>
<glyph name="M" format="2">
  <advance width="653"/>
  <unicode hex="004D"/>
  <outline>
    <contour>
      <point x="344.0" y="287.0" type="line"/>
      <point x="338.0" y="279.0"/>
      <point x="315.0" y="279.0"/>
      <point x="309.0" y="287.0" type="qcurve"/>
      <point x="136.0" y="545.0" type="line"/>
      <point x="136.0" y="28.0" type="line" smooth="yes"/>
      <point x="136.0" y="-7.0"/>
      <point x="84.0" y="-7.0"/>
      <point x="84.0" y="27.0" type="qcurve" smooth="yes"/>
      <point x="84.0" y="608.0" type="line" smooth="yes"/>
      <point x="84.0" y="643.0"/>
      <point x="108.0" y="643.0" type="qcurve" smooth="yes"/>
      <point x="126.0" y="643.0"/>
      <point x="138.0" y="624.0" type="qcurve" smooth="yes"/>
      <point x="326.0" y="346.0" type="line"/>
      <point x="515.0" y="624.0" type="line" smooth="yes"/>
      <point x="528.0" y="643.0"/>
      <point x="544.0" y="643.0" type="qcurve" smooth="yes"/>
      <point x="569.0" y="643.0"/>
      <point x="569.0" y="608.0" type="qcurve" smooth="yes"/>
      <point x="569.0" y="27.0" type="line" smooth="yes"/>
      <point x="569.0" y="-7.0"/>
      <point x="517.0" y="-7.0"/>
      <point x="517.0" y="28.0" type="qcurve" smooth="yes"/>
      <point x="517.0" y="545.0" type="line"/>
    </contour>
  </outline>
</glyph>
<glyph name="O" format="2">
  <advance width="594"/>
  <unicode hex="004F"/>
  <outline>
    <contour>
      <point x="65.0" y="228.0" type="qcurve" smooth="yes"/>
      <point x="65.0" y="408.0" type="line" smooth="yes"/>
      <point x="65.0" y="519.0"/>
      <point x="195.0" y="645.0"/>
      <point x="399.0" y="645.0"/>
      <point x="529.0" y="518.0"/>
      <point x="529.0" y="408.0" type="qcurve" smooth="yes"/>
      <point x="529.0" y="228.0" type="line" smooth="yes"/>
      <point x="529.0" y="118.0"/>
      <point x="399.0" y="-9.0"/>
      <point x="195.0" y="-9.0"/>
      <point x="65.0" y="117.0"/>
    </contour>
    <contour>
      <point x="117.0" y="407.0" type="qcurve" smooth="yes"/>
      <point x="117.0" y="229.0" type="line" smooth="yes"/>
      <point x="117.0" y="141.0"/>
      <point x="211.0" y="43.0"/>
      <point x="383.0" y="43.0"/>
      <point x="477.0" y="141.0"/>
      <point x="477.0" y="229.0" type="qcurve" smooth="yes"/>
      <point x="477.0" y="407.0" type="line" smooth="yes"/>
      <point x="477.0" y="495.0"/>
      <point x="383.0" y="593.0"/>
      <point x="211.0" y="593.0"/>
      <point x="117.0" y="495.0"/>
    </contour>
  </outline>
</glyph>
<glyph name="P" format="2">
  <advance width="540"/>
  <unicode hex="0050"/>
  <outline>
    <contour>
      <point x="136.0" y="25.0" type="line" smooth="yes"/>
      <point x="136.0" y="-7.0"/>
      <point x="84.0" y="-7.0"/>
      <point x="84.0" y="25.0" type="qcurve" smooth="yes"/>
      <point x="84.0" y="600.0" type="line" smooth="yes"/>
      <point x="84.0" y="636.0"/>
      <point x="108.0" y="636.0" type="qcurve" smooth="yes"/>
      <point x="289.0" y="636.0" type="line" smooth="yes"/>
      <point x="397.0" y="636.0"/>
      <point x="506.0" y="570.0"/>
      <point x="506.0" y="488.0" type="qcurve" smooth="yes"/>
      <point x="506.0" y="327.0"/>
      <point x="333.0" y="327.0" type="qcurve" smooth="yes"/>
      <point x="136.0" y="327.0" type="line"/>
    </contour>
    <contour>
      <point x="289.0" y="379.0" type="line" smooth="yes"/>
      <point x="381.0" y="379.0"/>
      <point x="454.0" y="419.0"/>
      <point x="454.0" y="545.0"/>
      <point x="380.0" y="584.0"/>
      <point x="289.0" y="584.0" type="qcurve" smooth="yes"/>
      <point x="136.0" y="584.0" type="line"/>
      <point x="136.0" y="379.0" type="line"/>
    </contour>
  </outline>
</glyph>
<glyph name="Q" format="2">
  <advance width="594"/>
  <unicode hex="0051"/>
  <outline>
    <contour>
      <point x="117.0" y="407.0" type="qcurve" smooth="yes"/>
      <point x="117.0" y="229.0" type="line" smooth="yes"/>
      <point x="117.0" y="141.0"/>
      <point x="211.0" y="43.0"/>
      <point x="365.0" y="43.0"/>
      <point x="406.0" y="72.0" type="qcurve"/>
      <point x="350.0" y="124.0" type="line" smooth="yes"/>
      <point x="337.0" y="135.0"/>
      <point x="337.0" y="157.0"/>
      <point x="352.0" y="173.0"/>
      <point x="375.0" y="173.0"/>
      <point x="389.0" y="160.0" type="qcurve" smooth="yes"/>
      <point x="443.0" y="107.0" type="line"/>
      <point x="477.0" y="153.0"/>
      <point x="477.0" y="229.0" type="qcurve" smooth="yes"/>
      <point x="477.0" y="407.0" type="line" smooth="yes"/>
      <point x="477.0" y="495.0"/>
      <point x="383.0" y="593.0"/>
      <point x="211.0" y="593.0"/>
      <point x="117.0" y="495.0"/>
    </contour>
    <contour>
      <point x="443.0" y="34.0" type="line"/>
      <point x="383.0" y="-9.0"/>
      <point x="195.0" y="-9.0"/>
      <point x="65.0" y="117.0"/>
      <point x="65.0" y="228.0" type="qcurve" smooth="yes"/>
      <point x="65.0" y="408.0" type="line" smooth="yes"/>
      <point x="65.0" y="519.0"/>
      <point x="195.0" y="645.0"/>
      <point x="399.0" y="645.0"/>
      <point x="529.0" y="518.0"/>
      <point x="529.0" y="408.0" type="qcurve" smooth="yes"/>
      <point x="529.0" y="228.0" type="line" smooth="yes"/>
      <point x="529.0" y="131.0"/>
      <point x="480.0" y="71.0" type="qcurve"/>
      <point x="515.0" y="37.0" type="line"/>
      <point x="526.0" y="24.0"/>
      <point x="526.0" y="4.0"/>
      <point x="512.0" y="-12.0"/>
      <point x="489.0" y="-12.0"/>
      <point x="478.0" y="-1.0" type="qcurve" smooth="yes"/>
    </contour>
  </outline>
</glyph>
<glyph name="R" format="2">
  <advance width="569"/>
  <unicode hex="0052"/>
  <outline>
    <contour>
      <point x="288.0" y="374.0" type="line" smooth="yes"/>
      <point x="381.0" y="374.0"/>
      <point x="454.0" y="414.0"/>
      <point x="454.0" y="540.0"/>
      <point x="380.0" y="579.0"/>
      <point x="288.0" y="579.0" type="qcurve" smooth="yes"/>
      <point x="136.0" y="579.0" type="line"/>
      <point x="136.0" y="374.0" type="line"/>
    </contour>
    <contour>
      <point x="514.0" y="25.0" type="qcurve" smooth="yes"/>
      <point x="514.0" y="-7.0"/>
      <point x="462.0" y="-7.0"/>
      <point x="462.0" y="25.0" type="qcurve" smooth="yes"/>
      <point x="462.0" y="38.0"/>
      <point x="434.0" y="144.0"/>
      <point x="366.0" y="290.0"/>
      <point x="324.0" y="322.0" type="qcurve"/>
      <point x="136.0" y="322.0" type="line"/>
      <point x="136.0" y="25.0" type="line" smooth="yes"/>
      <point x="136.0" y="-7.0"/>
      <point x="84.0" y="-7.0"/>
      <point x="84.0" y="25.0" type="qcurve" smooth="yes"/>
      <point x="84.0" y="600.0" type="line" smooth="yes"/>
      <point x="84.0" y="636.0"/>
      <point x="108.0" y="636.0" type="qcurve" smooth="yes"/>
      <point x="288.0" y="636.0" type="line" smooth="yes"/>
      <point x="397.0" y="636.0"/>
      <point x="506.0" y="570.0"/>
      <point x="506.0" y="481.0" type="qcurve" smooth="yes"/>
      <point x="506.0" y="356.0"/>
      <point x="389.0" y="332.0" type="qcurve"/>
      <point x="422.0" y="300.0"/>
      <point x="484.0" y="150.0"/>
      <point x="514.0" y="36.0"/>
    </contour>
  </outline>
</glyph>
<glyph name="S" format="2">
  <advance width="599"/>
  <unicode hex="0053"/>
  <outline>
    <contour>
      <point x="173.0" y="379.0" type="qcurve" smooth="yes"/>
      <point x="410.0" y="328.0" type="line" smooth="yes"/>
      <point x="537.0" y="300.0"/>
      <point x="537.0" y="156.0" type="qcurve" smooth="yes"/>
      <point x="537.0" y="89.0"/>
      <point x="458.0" y="-8.0"/>
      <point x="367.0" y="-8.0" type="qcurve" smooth="yes"/>
      <point x="284.0" y="-8.0" type="line" smooth="yes"/>
      <point x="175.0" y="-8.0"/>
      <point x="90.0" y="42.0"/>
      <point x="61.0" y="115.0"/>
      <point x="61.0" y="172.0" type="qcurve" smooth="yes"/>
      <point x="61.0" y="205.0"/>
      <point x="114.0" y="205.0"/>
      <point x="114.0" y="172.0" type="qcurve" smooth="yes"/>
      <point x="114.0" y="89.0"/>
      <point x="185.0" y="44.0"/>
      <point x="284.0" y="44.0" type="qcurve" smooth="yes"/>
      <point x="386.0" y="44.0" type="line" smooth="yes"/>
      <point x="439.0" y="44.0"/>
      <point x="485.0" y="116.0"/>
      <point x="485.0" y="206.0"/>
      <point x="446.0" y="267.0"/>
      <point x="425.0" y="272.0" type="qcurve" smooth="yes"/>
      <point x="190.0" y="324.0" type="line" smooth="yes"/>
      <point x="120.0" y="339.0"/>
      <point x="61.0" y="414.0"/>
      <point x="61.0" y="549.0"/>
      <point x="143.0" y="644.0"/>
      <point x="238.0" y="644.0" type="qcurve" smooth="yes"/>
      <point x="314.0" y="644.0" type="line" smooth="yes"/>
      <point x="421.0" y="644.0"/>
      <point x="508.0" y="595.0"/>
      <point x="537.0" y="523.0"/>
      <point x="537.0" y="466.0" type="qcurve" smooth="yes"/>
      <point x="537.0" y="433.0"/>
      <point x="484.0" y="433.0"/>
      <point x="484.0" y="466.0" type="qcurve" smooth="yes"/>
      <point x="484.0" y="549.0"/>
      <point x="414.0" y="592.0"/>
      <point x="314.0" y="592.0" type="qcurve" smooth="yes"/>
      <point x="216.0" y="592.0" type="line" smooth="yes"/>
      <point x="162.0" y="592.0"/>
      <point x="113.0" y="522.0"/>
      <point x="113.0" y="441.0"/>
      <point x="148.0" y="384.0"/>
    </contour>
  </outline>
</glyph>
<glyph name="T" format="2">
  <advance width="481"/>
  <unicode hex="0054"/>
  <outline>
    <contour>
      <point x="421.0" y="636.0" type="line" smooth="yes"/>
      <point x="454.0" y="636.0"/>
      <point x="454.0" y="584.0"/>
      <point x="421.0" y="584.0" type="qcurve" smooth="yes"/>
      <point x="269.0" y="584.0" type="line"/>
      <point x="269.0" y="25.0" type="line" smooth="yes"/>
      <point x="269.0" y="24.0"/>
      <point x="269.0" y="23.0" type="qcurve" smooth="yes"/>
      <point x="269.0" y="-7.0"/>
      <point x="242.0" y="-7.0" type="qcurve" smooth="yes"/>
      <point x="214.0" y="-7.0"/>
      <point x="214.0" y="25.0" type="qcurve" smooth="yes"/>
      <point x="214.0" y="584.0" type="line"/>
      <point x="60.0" y="584.0" type="line" smooth="yes"/>
      <point x="27.0" y="584.0"/>
      <point x="27.0" y="636.0"/>
      <point x="60.0" y="636.0" type="qcurve" smooth="yes"/>
    </contour>
  </outline>
</glyph>
<glyph name="U" format="2">
  <advance width="620"/>
  <unicode hex="0055"/>
  <outline>
    <contour>
      <point x="490.0" y="611.0" type="line" smooth="yes"/>
      <point x="490.0" y="643.0"/>
      <point x="542.0" y="643.0"/>
      <point x="542.0" y="610.0" type="qcurve" smooth="yes"/>
      <point x="542.0" y="228.0" type="line" smooth="yes"/>
      <point x="542.0" y="118.0"/>
      <point x="412.0" y="-9.0"/>
      <point x="208.0" y="-9.0"/>
      <point x="78.0" y="117.0"/>
      <point x="78.0" y="228.0" type="qcurve" smooth="yes"/>
      <point x="78.0" y="610.0" type="line" smooth="yes"/>
      <point x="78.0" y="643.0"/>
      <point x="130.0" y="643.0"/>
      <point x="130.0" y="611.0" type="qcurve" smooth="yes"/>
      <point x="130.0" y="229.0" type="line" smooth="yes"/>
      <point x="130.0" y="141.0"/>
      <point x="224.0" y="43.0"/>
      <point x="396.0" y="43.0"/>
      <point x="490.0" y="141.0"/>
      <point x="490.0" y="229.0" type="qcurve" smooth="yes"/>
    </contour>
  </outline>
</glyph>
<glyph name="V" format="2">
  <advance width="570"/>
  <unicode hex="0056"/>
  <outline>
    <contour>
      <point x="24.0" y="627.0" type="qcurve" smooth="yes"/>
      <point x="24.0" y="652.0"/>
      <point x="50.0" y="652.0" type="qcurve" smooth="yes"/>
      <point x="67.0" y="652.0"/>
      <point x="77.0" y="629.0" type="qcurve" smooth="yes"/>
      <point x="286.0" y="76.0" type="line"/>
      <point x="493.0" y="629.0" type="line"/>
      <point x="503.0" y="652.0"/>
      <point x="520.0" y="652.0" type="qcurve" smooth="yes"/>
      <point x="546.0" y="652.0"/>
      <point x="546.0" y="627.0" type="qcurve" smooth="yes"/>
      <point x="546.0" y="620.0"/>
      <point x="543.0" y="611.0" type="qcurve" smooth="yes"/>
      <point x="316.0" y="0.0" type="line"/>
      <point x="254.0" y="0.0" type="line"/>
      <point x="27.0" y="611.0" type="line" smooth="yes"/>
      <point x="24.0" y="620.0"/>
    </contour>
  </outline>
</glyph>
<glyph name="W" format="2">
  <advance width="915"/>
  <unicode hex="0057"/>
  <outline>
    <contour>
      <point x="664.0" y="72.0" type="line"/>
      <point x="836.0" y="627.0" type="line" smooth="yes"/>
      <point x="844.0" y="649.0"/>
      <point x="888.0" y="649.0"/>
      <point x="888.0" y="630.0" type="qcurve" smooth="yes"/>
      <point x="888.0" y="624.0"/>
      <point x="884.0" y="612.0" type="qcurve" smooth="yes"/>
      <point x="692.0" y="0.0" type="line"/>
      <point x="634.0" y="0.0" type="line"/>
      <point x="457.0" y="553.0" type="line"/>
      <point x="281.0" y="0.0" type="line"/>
      <point x="224.0" y="0.0" type="line"/>
      <point x="31.0" y="616.0" type="line" smooth="yes"/>
      <point x="27.0" y="628.0"/>
      <point x="27.0" y="634.0" type="qcurve" smooth="yes"/>
      <point x="27.0" y="653.0"/>
      <point x="71.0" y="653.0"/>
      <point x="79.0" y="631.0" type="qcurve" smooth="yes"/>
      <point x="253.0" y="72.0" type="line"/>
      <point x="428.0" y="626.0" type="line" smooth="yes"/>
      <point x="436.0" y="652.0"/>
      <point x="480.0" y="652.0"/>
      <point x="488.0" y="626.0" type="qcurve" smooth="yes"/>
    </contour>
  </outline>
</glyph>
<glyph name="X" format="2">
  <advance width="559"/>
  <unicode hex="0058"/>
  <outline>
    <contour>
      <point x="472.0" y="625.0" type="line" smooth="yes"/>
      <point x="486.0" y="643.0"/>
      <point x="496.0" y="643.0" type="qcurve" smooth="yes"/>
      <point x="523.0" y="643.0"/>
      <point x="523.0" y="619.0" type="qcurve" smooth="yes"/>
      <point x="523.0" y="618.0"/>
      <point x="523.0" y="617.0" type="qcurve" smooth="yes"/>
      <point x="523.0" y="605.0"/>
      <point x="515.0" y="596.0" type="qcurve"/>
      <point x="312.0" y="317.0" type="line"/>
      <point x="515.0" y="39.0" type="line" smooth="yes"/>
      <point x="523.0" y="28.0"/>
      <point x="523.0" y="6.0"/>
      <point x="506.0" y="-7.0"/>
      <point x="484.0" y="-7.0"/>
      <point x="472.0" y="9.0" type="qcurve" smooth="yes"/>
      <point x="279.0" y="277.0" type="line"/>
      <point x="87.0" y="9.0" type="line" smooth="yes"/>
      <point x="75.0" y="-7.0"/>
      <point x="52.0" y="-7.0"/>
      <point x="36.0" y="7.0"/>
      <point x="36.0" y="28.0"/>
      <point x="44.0" y="39.0" type="qcurve" smooth="yes"/>
      <point x="247.0" y="317.0" type="line"/>
      <point x="44.0" y="596.0" type="line"/>
      <point x="36.0" y="605.0"/>
      <point x="36.0" y="631.0"/>
      <point x="54.0" y="643.0"/>
      <point x="74.0" y="643.0"/>
      <point x="87.0" y="625.0" type="qcurve" smooth="yes"/>
      <point x="279.0" y="358.0" type="line"/>
    </contour>
  </outline>
</glyph>
<glyph name="Y" format="2">
  <advance width="521"/>
  <unicode hex="0059"/>
  <outline>
    <contour>
      <point x="234.0" y="308.0" type="line"/>
      <point x="25.0" y="597.0" type="line" smooth="yes"/>
      <point x="17.0" y="609.0"/>
      <point x="17.0" y="629.0"/>
      <point x="33.0" y="643.0"/>
      <point x="53.0" y="643.0"/>
      <point x="67.0" y="625.0" type="qcurve" smooth="yes"/>
      <point x="260.0" y="358.0" type="line"/>
      <point x="452.0" y="625.0" type="line" smooth="yes"/>
      <point x="466.0" y="643.0"/>
      <point x="486.0" y="643.0"/>
      <point x="503.0" y="628.0"/>
      <point x="503.0" y="608.0"/>
      <point x="495.0" y="597.0" type="qcurve" smooth="yes"/>
      <point x="287.0" y="308.0" type="line"/>
      <point x="287.0" y="24.0" type="line"/>
      <point x="286.0" y="-7.0"/>
      <point x="234.0" y="-7.0"/>
      <point x="234.0" y="24.0" type="qcurve" smooth="yes"/>
    </contour>
  </outline>
</glyph>
<glyph name="Z" format="2">
  <advance width="555"/>
  <unicode hex="005A"/>
  <outline>
    <contour>
      <point x="46.0" y="0.0" type="line"/>
      <point x="46.0" y="51.0" type="line"/>
      <point x="447.0" y="594.0" type="line"/>
      <point x="81.0" y="594.0" type="line" smooth="yes"/>
      <point x="45.0" y="594.0"/>
      <point x="45.0" y="646.0"/>
      <point x="81.0" y="646.0" type="qcurve" smooth="yes"/>
      <point x="509.0" y="646.0" type="line"/>
      <point x="509.0" y="593.0" type="line"/>
      <point x="110.0" y="52.0" type="line"/>
      <point x="474.0" y="52.0" type="line" smooth="yes"/>
      <point x="509.0" y="52.0"/>
      <point x="509.0" y="0.0"/>
      <point x="474.0" y="0.0" type="qcurve" smooth="yes"/>
    </contour>
  </outline>
</glyph>
<glyph name="bracketleft" format="2">
  <advance width="255"/>
  <unicode hex="005B"/>
  <outline>
    <contour>
      <point x="132.0" y="631.0" type="line"/>
      <point x="132.0" y="5.0" type="line"/>
      <point x="210.0" y="5.0" type="line"/>
      <point x="210.0" y="-47.0" type="line"/>
      <point x="80.0" y="-47.0" type="line"/>
      <point x="80.0" y="683.0" type="line"/>
      <point x="210.0" y="683.0" type="line"/>
      <point x="210.0" y="631.0" type="line"/>
    </contour>
  </outline>
</glyph>
<glyph name="bracketright" format="2">
  <advance width="255"/>
  <unicode hex="005D"/>
  <outline>
    <contour>
      <point x="123.0" y="5.0" type="line"/>
      <point x="123.0" y="631.0" type="line"/>
      <point x="45.0" y="631.0" type="line"/>
      <point x="45.0" y="683.0" type="line"/>
      <point x="175.0" y="683.0" type="line"/>
      <point x="175.0" y="-47.0" type="line"/>
      <point x="45.0" y="-47.0" type="line"/>
      <point x="45.0" y="5.0" type="line"/>
    </contour>
  </outline>
</glyph>
<glyph name="asciicircum" format="2">
  <advance width="443"/>
  <unicode hex="005E"/>
  <outline>
    <contour>
      <point x="132.0" y="381.0" type="line"/>
      <point x="121.0" y="360.0"/>
      <point x="80.0" y="360.0"/>
      <point x="80.0" y="383.0" type="qcurve" smooth="yes"/>
      <point x="80.0" y="387.0"/>
      <point x="82.0" y="395.0" type="qcurve"/>
      <point x="192.0" y="641.0" type="line"/>
      <point x="252.0" y="641.0" type="line"/>
      <point x="361.0" y="395.0" type="line" smooth="yes"/>
      <point x="363.0" y="391.0"/>
      <point x="363.0" y="383.0" type="qcurve" smooth="yes"/>
      <point x="363.0" y="360.0"/>
      <point x="322.0" y="360.0"/>
      <point x="311.0" y="381.0" type="qcurve"/>
      <point x="222.0" y="581.0" type="line"/>
    </contour>
  </outline>
</glyph>
<glyph name="underscore" format="2">
  <advance width="475"/>
  <unicode hex="005F"/>
  <outline>
    <contour>
      <point x="28.0" y="-47.0" type="line" smooth="yes"/>
      <point x="-5.0" y="-47.0"/>
      <point x="-5.0" y="5.0"/>
      <point x="28.0" y="5.0" type="qcurve" smooth="yes"/>
      <point x="447.0" y="5.0" type="line" smooth="yes"/>
      <point x="480.0" y="5.0"/>
      <point x="480.0" y="-47.0"/>
      <point x="447.0" y="-47.0" type="qcurve" smooth="yes"/>
    </contour>
  </outline>
</glyph>
<glyph name="c" format="2">
  <advance width="584"/>
  <unicode hex="0063"/>
  <outline>
    <contour>
      <point x="426.0" y="0.0" type="qcurve" smooth="yes"/>
      <point x="285.0" y="0.0" type="line" smooth="yes"/>
      <point x="170.0" y="0.0"/>
      <point x="62.0" y="71.0"/>
      <point x="62.0" y="176.0" type="qcurve" smooth="yes"/>
      <point x="62.0" y="285.0" type="line" smooth="yes"/>
      <point x="62.0" y="390.0"/>
      <point x="170.0" y="461.0"/>
      <point x="285.0" y="461.0" type="qcurve" smooth="yes"/>
      <point x="426.0" y="461.0" type="line" smooth="yes"/>
      <point x="510.0" y="461.0"/>
      <point x="523.0" y="389.0" type="qcurve" smooth="yes"/>
      <point x="526.0" y="372.0"/>
      <point x="526.0" y="314.0"/>
      <point x="474.0" y="314.0"/>
      <point x="474.0" y="382.0"/>
      <point x="450.0" y="409.0"/>
      <point x="419.0" y="409.0" type="qcurve" smooth="yes"/>
      <point x="285.0" y="409.0" type="line" smooth="yes"/>
      <point x="192.0" y="409.0"/>
      <point x="131.0" y="377.0"/>
      <point x="114.0" y="327.0"/>
      <point x="114.0" y="284.0" type="qcurve" smooth="yes"/>
      <point x="114.0" y="177.0" type="line" smooth="yes"/>
      <point x="114.0" y="94.0"/>
      <point x="155.0" y="72.0" type="qcurve" smooth="yes"/>
      <point x="192.0" y="52.0"/>
      <point x="285.0" y="52.0" type="qcurve" smooth="yes"/>
      <point x="419.0" y="52.0" type="line" smooth="yes"/>
      <point x="451.0" y="52.0"/>
      <point x="474.0" y="80.0"/>
      <point x="474.0" y="147.0"/>
      <point x="526.0" y="147.0"/>
      <point x="526.0" y="88.0"/>
      <point x="520.0" y="54.0"/>
      <point x="510.0" y="36.0" type="qcurve" smooth="yes"/>
      <point x="490.0" y="0.0"/>
    </contour>
  </outline>
</glyph>
<glyph name="d" format="2">
  <advance width="611"/>
  <unicode hex="0064"/>
  <outline>
    <contour>
      <point x="484.0" y="461.0" type="line"/>
      <point x="484.0" y="607.0" type="line" smooth="yes"/>
      <point x="484.0" y="643.0"/>
      <point x="536.0" y="643.0"/>
      <point x="536.0" y="607.0" type="qcurve" smooth="yes"/>
      <point x="536.0" y="27.0" type="line" smooth="yes"/>
      <point x="536.0" y="-7.0"/>
      <point x="484.0" y="-7.0"/>
      <point x="484.0" y="28.0" type="qcurve" smooth="yes"/>
      <point x="484.0" y="63.0" type="line"/>
      <point x="425.0" y="0.0"/>
      <point x="313.0" y="0.0" type="qcurve" smooth="yes"/>
      <point x="284.0" y="0.0" type="line" smooth="yes"/>
      <point x="169.0" y="0.0"/>
      <point x="62.0" y="71.0"/>
      <point x="62.0" y="176.0" type="qcurve" smooth="yes"/>
      <point x="62.0" y="285.0" type="line" smooth="yes"/>
      <point x="62.0" y="390.0"/>
      <point x="169.0" y="461.0"/>
      <point x="284.0" y="461.0" type="qcurve" smooth="yes"/>
    </contour>
    <contour>
      <point x="484.0" y="409.0" type="line"/>
      <point x="284.0" y="409.0" type="line" smooth="yes"/>
      <point x="191.0" y="409.0"/>
      <point x="131.0" y="377.0"/>
      <point x="114.0" y="327.0"/>
      <point x="114.0" y="284.0" type="qcurve" smooth="yes"/>
      <point x="114.0" y="177.0" type="line" smooth="yes"/>
      <point x="114.0" y="94.0"/>
      <point x="154.0" y="72.0" type="qcurve" smooth="yes"/>
      <point x="191.0" y="52.0"/>
      <point x="284.0" y="52.0" type="qcurve" smooth="yes"/>
      <point x="313.0" y="52.0" type="line" smooth="yes"/>
      <point x="484.0" y="52.0"/>
      <point x="484.0" y="228.0" type="qcurve" smooth="yes"/>
    </contour>
  </outline>
</glyph>
<glyph name="f" format="2">
  <advance width="323"/>
  <unicode hex="0066"/>
  <outline>
    <contour>
      <point x="284.0" y="636.0" type="qcurve" smooth="yes"/>
      <point x="328.0" y="636.0"/>
      <point x="328.0" y="610.0" type="qcurve"/>
      <point x="329.0" y="609.0" type="line"/>
      <point x="329.0" y="608.0" type="line" smooth="yes"/>
      <point x="329.0" y="584.0"/>
      <point x="288.0" y="584.0" type="qcurve" smooth="yes"/>
      <point x="246.0" y="584.0"/>
      <point x="220.0" y="580.0" type="qcurve" smooth="yes"/>
      <point x="194.0" y="577.0"/>
      <point x="172.0" y="565.0" type="qcurve" smooth="yes"/>
      <point x="132.0" y="543.0"/>
      <point x="132.0" y="461.0" type="qcurve"/>
      <point x="270.0" y="461.0" type="line" smooth="yes"/>
      <point x="306.0" y="461.0"/>
      <point x="306.0" y="409.0"/>
      <point x="270.0" y="409.0" type="qcurve" smooth="yes"/>
      <point x="132.0" y="409.0" type="line"/>
      <point x="132.0" y="28.0" type="line" smooth="yes"/>
      <point x="132.0" y="-7.0"/>
      <point x="80.0" y="-7.0"/>
      <point x="80.0" y="28.0" type="qcurve" smooth="yes"/>
      <point x="80.0" y="410.0" type="line"/>
      <point x="49.0" y="412.0"/>
      <point x="49.0" y="459.0"/>
      <point x="80.0" y="461.0" type="qcurve"/>
      <point x="82.0" y="571.0"/>
      <point x="140.0" y="606.0" type="qcurve" smooth="yes"/>
      <point x="190.0" y="636.0"/>
    </contour>
  </outline>
</glyph>
<glyph name="g" format="2">
  <advance width="611"/>
  <unicode hex="0067"/>
  <outline>
    <contour>
      <point x="536.0" y="-87.0" type="line" smooth="yes"/>
      <point x="536.0" y="-152.0"/>
      <point x="498.0" y="-205.0"/>
      <point x="445.0" y="-205.0" type="qcurve" smooth="yes"/>
      <point x="162.0" y="-205.0" type="line" smooth="yes"/>
      <point x="78.0" y="-205.0"/>
      <point x="65.0" y="-133.0" type="qcurve" smooth="yes"/>
      <point x="62.0" y="-116.0"/>
      <point x="62.0" y="-58.0"/>
      <point x="114.0" y="-58.0"/>
      <point x="114.0" y="-126.0"/>
      <point x="138.0" y="-153.0"/>
      <point x="169.0" y="-153.0" type="qcurve" smooth="yes"/>
      <point x="438.0" y="-153.0" type="line" smooth="yes"/>
      <point x="467.0" y="-153.0"/>
      <point x="484.0" y="-133.0"/>
      <point x="484.0" y="-103.0" type="qcurve" smooth="yes"/>
      <point x="484.0" y="0.0" type="line"/>
      <point x="284.0" y="0.0" type="line" smooth="yes"/>
      <point x="169.0" y="0.0"/>
      <point x="62.0" y="71.0"/>
      <point x="62.0" y="176.0" type="qcurve" smooth="yes"/>
      <point x="62.0" y="285.0" type="line" smooth="yes"/>
      <point x="62.0" y="390.0"/>
      <point x="169.0" y="461.0"/>
      <point x="284.0" y="461.0" type="qcurve" smooth="yes"/>
      <point x="313.0" y="461.0" type="line" smooth="yes"/>
      <point x="425.0" y="461.0"/>
      <point x="484.0" y="398.0" type="qcurve"/>
      <point x="484.0" y="433.0" type="line" smooth="yes"/>
      <point x="484.0" y="468.0"/>
      <point x="536.0" y="468.0"/>
      <point x="536.0" y="434.0" type="qcurve" smooth="yes"/>
    </contour>
    <contour>
      <point x="484.0" y="52.0" type="line"/>
      <point x="484.0" y="233.0" type="line" smooth="yes"/>
      <point x="484.0" y="409.0"/>
      <point x="313.0" y="409.0" type="qcurve" smooth="yes"/>
      <point x="284.0" y="409.0" type="line" smooth="yes"/>
      <point x="191.0" y="409.0"/>
      <point x="131.0" y="377.0"/>
      <point x="114.0" y="327.0"/>
      <point x="114.0" y="284.0" type="qcurve" smooth="yes"/>
      <point x="114.0" y="177.0" type="line" smooth="yes"/>
      <point x="114.0" y="94.0"/>
      <point x="154.0" y="72.0" type="qcurve" smooth="yes"/>
      <point x="191.0" y="52.0"/>
      <point x="284.0" y="52.0" type="qcurve" smooth="yes"/>
    </contour>
  </outline>
</glyph>
<glyph name="i" format="2">
  <advance width="200"/>
  <unicode hex="0069"/>
  <outline>
    <contour>
      <point x="126.0" y="20.0" type="line" smooth="yes"/>
      <point x="126.0" y="-12.0"/>
      <point x="74.0" y="-12.0"/>
      <point x="74.0" y="20.0" type="qcurve" smooth="yes"/>
      <point x="74.0" y="440.0" type="line" smooth="yes"/>
      <point x="74.0" y="473.0"/>
      <point x="126.0" y="473.0"/>
      <point x="126.0" y="440.0" type="qcurve" smooth="yes"/>
    </contour>
    <contour>
      <point x="49.0" y="618.0"/>
      <point x="83.0" y="642.0"/>
      <point x="116.0" y="642.0"/>
      <point x="151.0" y="618.0"/>
      <point x="151.0" y="584.0"/>
      <point x="116.0" y="560.0"/>
      <point x="83.0" y="560.0"/>
      <point x="49.0" y="584.0"/>
    </contour>
  </outline>
</glyph>
<glyph name="j" format="2">
  <advance width="202"/>
  <unicode hex="006A"/>
  <outline>
    <contour>
      <point x="48.0" y="618.0"/>
      <point x="82.0" y="642.0"/>
      <point x="115.0" y="642.0"/>
      <point x="150.0" y="618.0"/>
      <point x="150.0" y="584.0"/>
      <point x="115.0" y="560.0"/>
      <point x="82.0" y="560.0"/>
      <point x="48.0" y="584.0"/>
    </contour>
    <contour>
      <point x="127.0" y="0.0" type="line" smooth="yes"/>
      <point x="127.0" y="-2.0"/>
      <point x="127.0" y="-4.0" type="qcurve" smooth="yes"/>
      <point x="127.0" y="-111.0"/>
      <point x="68.0" y="-145.0" type="qcurve" smooth="yes"/>
      <point x="17.0" y="-175.0"/>
      <point x="-86.0" y="-175.0" type="qcurve" smooth="yes"/>
      <point x="-122.0" y="-175.0"/>
      <point x="-122.0" y="-123.0"/>
      <point x="-86.0" y="-123.0" type="qcurve" smooth="yes"/>
      <point x="6.0" y="-123.0"/>
      <point x="75.0" y="-79.0"/>
      <point x="75.0" y="0.0" type="qcurve" smooth="yes"/>
      <point x="75.0" y="432.0" type="line" smooth="yes"/>
      <point x="75.0" y="468.0"/>
      <point x="127.0" y="468.0"/>
      <point x="127.0" y="432.0" type="qcurve" smooth="yes"/>
    </contour>
  </outline>
</glyph>
<glyph name="k" format="2">
  <advance width="454"/>
  <unicode hex="006B"/>
  <outline>
    <contour>
      <point x="431.0" y="43.0" type="line"/>
      <point x="442.0" y="30.0"/>
      <point x="442.0" y="10.0"/>
      <point x="428.0" y="-6.0"/>
      <point x="407.0" y="-6.0"/>
      <point x="393.0" y="6.0" type="qcurve"/>
      <point x="156.0" y="235.0" type="line"/>
      <point x="127.0" y="206.0" type="line"/>
      <point x="127.0" y="25.0" type="line" smooth="yes"/>
      <point x="127.0" y="-7.0"/>
      <point x="75.0" y="-7.0"/>
      <point x="75.0" y="24.0" type="qcurve" smooth="yes"/>
      <point x="75.0" y="610.0" type="line" smooth="yes"/>
      <point x="75.0" y="643.0"/>
      <point x="127.0" y="643.0"/>
      <point x="127.0" y="610.0" type="qcurve" smooth="yes"/>
      <point x="127.0" y="269.0" type="line"/>
      <point x="321.0" y="454.0" type="line" smooth="yes"/>
      <point x="334.0" y="466.0"/>
      <point x="354.0" y="466.0"/>
      <point x="370.0" y="451.0"/>
      <point x="370.0" y="429.0"/>
      <point x="358.0" y="417.0" type="qcurve" smooth="yes"/>
      <point x="192.0" y="265.0" type="line"/>
    </contour>
  </outline>
</glyph>
<glyph name="l" format="2">
  <advance width="271"/>
  <unicode hex="006C"/>
  <outline>
    <contour>
      <point x="197.0" y="0.0" type="qcurve" smooth="yes"/>
      <point x="190.0" y="0.0" type="line" smooth="yes"/>
      <point x="132.0" y="0.0"/>
      <point x="90.0" y="57.0"/>
      <point x="90.0" y="127.0" type="qcurve" smooth="yes"/>
      <point x="90.0" y="608.0" type="line" smooth="yes"/>
      <point x="90.0" y="643.0"/>
      <point x="142.0" y="643.0"/>
      <point x="142.0" y="608.0" type="qcurve" smooth="yes"/>
      <point x="142.0" y="110.0" type="line" smooth="yes"/>
      <point x="142.0" y="78.0"/>
      <point x="154.0" y="65.0" type="qcurve"/>
      <point x="164.0" y="52.0"/>
      <point x="232.0" y="52.0"/>
      <point x="232.0" y="0.0"/>
    </contour>
  </outline>
</glyph>
<glyph name="m" format="2">
  <advance width="830"/>
  <unicode hex="006D"/>
  <outline>
    <contour>
      <point x="265.0" y="409.0" type="qcurve" smooth="yes"/>
      <point x="126.0" y="409.0"/>
      <point x="126.0" y="231.0" type="qcurve" smooth="yes"/>
      <point x="126.0" y="27.0" type="line" smooth="yes"/>
      <point x="126.0" y="-7.0"/>
      <point x="74.0" y="-7.0"/>
      <point x="74.0" y="27.0" type="qcurve" smooth="yes"/>
      <point x="74.0" y="433.0" type="line" smooth="yes"/>
      <point x="74.0" y="468.0"/>
      <point x="126.0" y="468.0"/>
      <point x="126.0" y="432.0" type="qcurve" smooth="yes"/>
      <point x="126.0" y="398.0" type="line"/>
      <point x="154.0" y="432.0"/>
      <point x="212.0" y="461.0"/>
      <point x="268.0" y="461.0" type="qcurve" smooth="yes"/>
      <point x="395.0" y="461.0"/>
      <point x="428.0" y="381.0" type="qcurve"/>
      <point x="479.0" y="461.0"/>
      <point x="667.0" y="461.0"/>
      <point x="759.0" y="389.0"/>
      <point x="759.0" y="285.0" type="qcurve" smooth="yes"/>
      <point x="759.0" y="27.0" type="line" smooth="yes"/>
      <point x="759.0" y="-7.0"/>
      <point x="707.0" y="-7.0"/>
      <point x="707.0" y="27.0" type="qcurve" smooth="yes"/>
      <point x="707.0" y="284.0" type="line" smooth="yes"/>
      <point x="707.0" y="368.0"/>
      <point x="676.0" y="390.0" type="qcurve" smooth="yes"/>
      <point x="649.0" y="409.0"/>
      <point x="586.0" y="409.0" type="qcurve" smooth="yes"/>
      <point x="583.0" y="409.0"/>
      <point x="580.0" y="409.0" type="qcurve" smooth="yes"/>
      <point x="442.0" y="409.0"/>
      <point x="442.0" y="231.0" type="qcurve" smooth="yes"/>
      <point x="442.0" y="27.0" type="line" smooth="yes"/>
      <point x="442.0" y="-7.0"/>
      <point x="390.0" y="-7.0"/>
      <point x="390.0" y="27.0" type="qcurve" smooth="yes"/>
      <point x="390.0" y="284.0" type="line" smooth="yes"/>
      <point x="390.0" y="365.0"/>
      <point x="335.0" y="409.0"/>
    </contour>
  </outline>
</glyph>
<glyph name="o" format="2">
  <advance width="598"/>
  <unicode hex="006F"/>
  <outline>
    <contour>
      <point x="314.0" y="0.0" type="qcurve" smooth="yes"/>
      <point x="285.0" y="0.0" type="line" smooth="yes"/>
      <point x="170.0" y="0.0"/>
      <point x="62.0" y="71.0"/>
      <point x="62.0" y="176.0" type="qcurve" smooth="yes"/>
      <point x="62.0" y="285.0" type="line" smooth="yes"/>
      <point x="62.0" y="390.0"/>
      <point x="170.0" y="461.0"/>
      <point x="285.0" y="461.0" type="qcurve" smooth="yes"/>
      <point x="314.0" y="461.0" type="line" smooth="yes"/>
      <point x="429.0" y="461.0"/>
      <point x="536.0" y="390.0"/>
      <point x="536.0" y="285.0" type="qcurve" smooth="yes"/>
      <point x="536.0" y="176.0" type="line" smooth="yes"/>
      <point x="536.0" y="71.0"/>
      <point x="429.0" y="0.0"/>
    </contour>
    <contour>
      <point x="285.0" y="52.0" type="qcurve" smooth="yes"/>
      <point x="314.0" y="52.0" type="line" smooth="yes"/>
      <point x="407.0" y="52.0"/>
      <point x="467.0" y="84.0"/>
      <point x="484.0" y="134.0"/>
      <point x="484.0" y="177.0" type="qcurve" smooth="yes"/>
      <point x="484.0" y="284.0" type="line" smooth="yes"/>
      <point x="484.0" y="368.0"/>
      <point x="444.0" y="390.0" type="qcurve" smooth="yes"/>
      <point x="409.0" y="409.0"/>
      <point x="323.0" y="409.0" type="qcurve" smooth="yes"/>
      <point x="319.0" y="409.0"/>
      <point x="314.0" y="409.0" type="qcurve" smooth="yes"/>
      <point x="285.0" y="409.0" type="line" smooth="yes"/>
      <point x="192.0" y="409.0"/>
      <point x="131.0" y="377.0"/>
      <point x="114.0" y="327.0"/>
      <point x="114.0" y="284.0" type="qcurve" smooth="yes"/>
      <point x="114.0" y="177.0" type="line" smooth="yes"/>
      <point x="114.0" y="94.0"/>
      <point x="155.0" y="72.0" type="qcurve" smooth="yes"/>
      <point x="192.0" y="52.0"/>
    </contour>
  </outline>
</glyph>
<glyph name="q" format="2">
  <advance width="611"/>
  <unicode hex="0071"/>
  <outline>
    <contour>
      <point x="114.0" y="284.0" type="qcurve" smooth="yes"/>
      <point x="114.0" y="177.0" type="line" smooth="yes"/>
      <point x="114.0" y="94.0"/>
      <point x="154.0" y="72.0" type="qcurve" smooth="yes"/>
      <point x="191.0" y="52.0"/>
      <point x="284.0" y="52.0" type="qcurve" smooth="yes"/>
      <point x="484.0" y="52.0" type="line"/>
      <point x="484.0" y="232.0" type="line" smooth="yes"/>
      <point x="484.0" y="409.0"/>
      <point x="314.0" y="409.0" type="qcurve" smooth="yes"/>
      <point x="285.0" y="409.0" type="line" smooth="yes"/>
      <point x="192.0" y="409.0"/>
      <point x="131.0" y="377.0"/>
      <point x="114.0" y="327.0"/>
    </contour>
    <contour>
      <point x="62.0" y="176.0" type="qcurve" smooth="yes"/>
      <point x="62.0" y="285.0" type="line" smooth="yes"/>
      <point x="62.0" y="390.0"/>
      <point x="170.0" y="461.0"/>
      <point x="285.0" y="461.0" type="qcurve" smooth="yes"/>
      <point x="314.0" y="461.0" type="line" smooth="yes"/>
      <point x="427.0" y="461.0"/>
      <point x="484.0" y="398.0" type="qcurve"/>
      <point x="484.0" y="433.0" type="line" smooth="yes"/>
      <point x="484.0" y="468.0"/>
      <point x="536.0" y="468.0"/>
      <point x="536.0" y="434.0" type="qcurve" smooth="yes"/>
      <point x="536.0" y="-147.0" type="line" smooth="yes"/>
      <point x="536.0" y="-182.0"/>
      <point x="484.0" y="-182.0"/>
      <point x="484.0" y="-147.0" type="qcurve" smooth="yes"/>
      <point x="484.0" y="0.0" type="line"/>
      <point x="284.0" y="0.0" type="line" smooth="yes"/>
      <point x="169.0" y="0.0"/>
      <point x="62.0" y="71.0"/>
    </contour>
  </outline>
</glyph>
<glyph name="r" format="2">
  <advance width="383"/>
  <unicode hex="0072"/>
  <outline>
    <contour>
      <point x="287.0" y="409.0" type="line" smooth="yes"/>
      <point x="209.0" y="409.0"/>
      <point x="126.0" y="317.0"/>
      <point x="126.0" y="231.0" type="qcurve" smooth="yes"/>
      <point x="126.0" y="27.0" type="line" smooth="yes"/>
      <point x="126.0" y="-7.0"/>
      <point x="74.0" y="-7.0"/>
      <point x="74.0" y="27.0" type="qcurve" smooth="yes"/>
      <point x="74.0" y="433.0" type="line" smooth="yes"/>
      <point x="74.0" y="468.0"/>
      <point x="126.0" y="468.0"/>
      <point x="126.0" y="432.0" type="qcurve" smooth="yes"/>
      <point x="126.0" y="398.0" type="line"/>
      <point x="185.0" y="461.0"/>
      <point x="287.0" y="461.0" type="qcurve" smooth="yes"/>
      <point x="333.0" y="461.0" type="line" smooth="yes"/>
      <point x="368.0" y="461.0"/>
      <point x="368.0" y="409.0"/>
      <point x="333.0" y="409.0" type="qcurve" smooth="yes"/>
    </contour>
  </outline>
</glyph>
<glyph name="s" format="2">
  <advance width="586"/>
  <unicode hex="0073"/>
  <outline>
    <contour>
      <point x="398.0" y="262.0" type="line" smooth="yes"/>
      <point x="526.0" y="262.0"/>
      <point x="526.0" y="126.0" type="qcurve" smooth="yes"/>
      <point x="526.0" y="64.0"/>
      <point x="463.0" y="0.0"/>
      <point x="388.0" y="0.0" type="qcurve" smooth="yes"/>
      <point x="160.0" y="0.0" type="line" smooth="yes"/>
      <point x="76.0" y="0.0"/>
      <point x="63.0" y="71.0" type="qcurve" smooth="yes"/>
      <point x="60.0" y="88.0"/>
      <point x="60.0" y="147.0"/>
      <point x="112.0" y="147.0"/>
      <point x="112.0" y="80.0"/>
      <point x="135.0" y="52.0"/>
      <point x="167.0" y="52.0" type="qcurve" smooth="yes"/>
      <point x="415.0" y="52.0" type="line" smooth="yes"/>
      <point x="474.0" y="52.0"/>
      <point x="474.0" y="126.0" type="qcurve" smooth="yes"/>
      <point x="474.0" y="163.0"/>
      <point x="441.0" y="210.0"/>
      <point x="415.0" y="210.0" type="qcurve" smooth="yes"/>
      <point x="189.0" y="210.0" type="line" smooth="yes"/>
      <point x="60.0" y="210.0"/>
      <point x="60.0" y="340.0" type="qcurve" smooth="yes"/>
      <point x="60.0" y="400.0"/>
      <point x="122.0" y="461.0"/>
      <point x="199.0" y="461.0" type="qcurve" smooth="yes"/>
      <point x="424.0" y="461.0" type="line" smooth="yes"/>
      <point x="508.0" y="461.0"/>
      <point x="521.0" y="389.0" type="qcurve" smooth="yes"/>
      <point x="524.0" y="372.0"/>
      <point x="524.0" y="314.0"/>
      <point x="472.0" y="314.0"/>
      <point x="472.0" y="382.0"/>
      <point x="448.0" y="409.0"/>
      <point x="417.0" y="409.0" type="qcurve" smooth="yes"/>
      <point x="171.0" y="409.0" type="line" smooth="yes"/>
      <point x="112.0" y="409.0"/>
      <point x="112.0" y="340.0" type="qcurve" smooth="yes"/>
      <point x="112.0" y="302.0"/>
      <point x="145.0" y="262.0"/>
      <point x="171.0" y="262.0" type="qcurve" smooth="yes"/>
    </contour>
  </outline>
</glyph>
<glyph name="t" format="2">
  <advance width="344"/>
  <unicode hex="0074"/>
  <outline>
    <contour>
      <point x="130.0" y="177.0" type="line" smooth="yes"/>
      <point x="130.0" y="96.0"/>
      <point x="199.0" y="52.0"/>
      <point x="291.0" y="52.0" type="qcurve" smooth="yes"/>
      <point x="326.0" y="52.0"/>
      <point x="326.0" y="0.0"/>
      <point x="291.0" y="0.0" type="qcurve" smooth="yes"/>
      <point x="183.0" y="0.0"/>
      <point x="78.0" y="72.0"/>
      <point x="78.0" y="176.0" type="qcurve" smooth="yes"/>
      <point x="78.0" y="410.0" type="line"/>
      <point x="47.0" y="412.0"/>
      <point x="47.0" y="460.0"/>
      <point x="78.0" y="461.0" type="qcurve"/>
      <point x="78.0" y="565.0" type="line" smooth="yes"/>
      <point x="78.0" y="601.0"/>
      <point x="130.0" y="601.0"/>
      <point x="130.0" y="565.0" type="qcurve" smooth="yes"/>
      <point x="130.0" y="461.0" type="line"/>
      <point x="268.0" y="461.0" type="line" smooth="yes"/>
      <point x="304.0" y="461.0"/>
      <point x="304.0" y="409.0"/>
      <point x="268.0" y="409.0" type="qcurve" smooth="yes"/>
      <point x="130.0" y="409.0" type="line"/>
    </contour>
  </outline>
</glyph>
<glyph name="u" format="2">
  <advance width="618"/>
  <unicode hex="0075"/>
  <outline>
    <contour>
      <point x="321.0" y="52.0" type="line" smooth="yes"/>
      <point x="492.0" y="52.0"/>
      <point x="492.0" y="230.0" type="qcurve" smooth="yes"/>
      <point x="492.0" y="434.0" type="line" smooth="yes"/>
      <point x="492.0" y="468.0"/>
      <point x="544.0" y="468.0"/>
      <point x="544.0" y="434.0" type="qcurve" smooth="yes"/>
      <point x="544.0" y="28.0" type="line" smooth="yes"/>
      <point x="544.0" y="-7.0"/>
      <point x="492.0" y="-7.0"/>
      <point x="492.0" y="29.0" type="qcurve" smooth="yes"/>
      <point x="492.0" y="63.0" type="line"/>
      <point x="433.0" y="0.0"/>
      <point x="321.0" y="0.0" type="qcurve" smooth="yes"/>
      <point x="292.0" y="0.0" type="line" smooth="yes"/>
      <point x="177.0" y="0.0"/>
      <point x="70.0" y="71.0"/>
      <point x="70.0" y="176.0" type="qcurve" smooth="yes"/>
      <point x="70.0" y="434.0" type="line" smooth="yes"/>
      <point x="70.0" y="468.0"/>
      <point x="122.0" y="468.0"/>
      <point x="122.0" y="434.0" type="qcurve" smooth="yes"/>
      <point x="122.0" y="177.0" type="line" smooth="yes"/>
      <point x="122.0" y="94.0"/>
      <point x="162.0" y="72.0" type="qcurve" smooth="yes"/>
      <point x="199.0" y="52.0"/>
      <point x="292.0" y="52.0" type="qcurve" smooth="yes"/>
    </contour>
  </outline>
</glyph>
<glyph name="v" format="2">
  <advance width="509"/>
  <unicode hex="0076"/>
  <outline>
    <contour>
      <point x="212.0" y="0.0" type="line"/>
      <point x="32.0" y="436.0" type="line" smooth="yes"/>
      <point x="28.0" y="445.0"/>
      <point x="28.0" y="452.0" type="qcurve" smooth="yes"/>
      <point x="28.0" y="473.0"/>
      <point x="52.0" y="473.0" type="qcurve" smooth="yes"/>
      <point x="70.0" y="473.0"/>
      <point x="80.0" y="451.0" type="qcurve" smooth="yes"/>
      <point x="252.0" y="51.0" type="line"/>
      <point x="430.0" y="452.0" type="line"/>
      <point x="438.0" y="473.0"/>
      <point x="482.0" y="473.0"/>
      <point x="482.0" y="453.0" type="qcurve" smooth="yes"/>
      <point x="482.0" y="445.0"/>
      <point x="478.0" y="436.0" type="qcurve" smooth="yes"/>
      <point x="286.0" y="0.0" type="line"/>
    </contour>
  </outline>
</glyph>
<glyph name="w" format="2">
  <advance width="792"/>
  <unicode hex="0077"/>
  <outline>
    <contour>
      <point x="758.0" y="436.0" type="qcurve" smooth="yes"/>
      <point x="603.0" y="0.0" type="line"/>
      <point x="524.0" y="0.0" type="line"/>
      <point x="397.0" y="374.0" type="line"/>
      <point x="260.0" y="0.0" type="line"/>
      <point x="181.0" y="0.0" type="line"/>
      <point x="35.0" y="436.0" type="line" smooth="yes"/>
      <point x="31.0" y="448.0"/>
      <point x="31.0" y="454.0" type="qcurve" smooth="yes"/>
      <point x="31.0" y="473.0"/>
      <point x="75.0" y="473.0"/>
      <point x="83.0" y="451.0" type="qcurve" smooth="yes"/>
      <point x="223.0" y="48.0" type="line"/>
      <point x="369.0" y="446.0" type="line"/>
      <point x="378.0" y="467.0"/>
      <point x="418.0" y="467.0"/>
      <point x="425.0" y="446.0" type="qcurve" smooth="yes"/>
      <point x="565.0" y="48.0" type="line"/>
      <point x="710.0" y="451.0" type="line" smooth="yes"/>
      <point x="718.0" y="473.0"/>
      <point x="762.0" y="473.0"/>
      <point x="762.0" y="454.0" type="qcurve" smooth="yes"/>
      <point x="762.0" y="448.0"/>
    </contour>
  </outline>
</glyph>
<glyph name="x" format="2">
  <advance width="512"/>
  <unicode hex="0078"/>
  <outline>
    <contour>
      <point x="462.0" y="36.0" type="line"/>
      <point x="472.0" y="21.0"/>
      <point x="472.0" y="2.0"/>
      <point x="456.0" y="-11.0"/>
      <point x="435.0" y="-11.0"/>
      <point x="423.0" y="1.0" type="qcurve"/>
      <point x="257.0" y="194.0" type="line"/>
      <point x="90.0" y="1.0" type="line"/>
      <point x="76.0" y="-11.0"/>
      <point x="56.0" y="-11.0"/>
      <point x="40.0" y="2.0"/>
      <point x="40.0" y="16.0"/>
      <point x="50.0" y="36.0" type="qcurve"/>
      <point x="221.0" y="230.0" type="line"/>
      <point x="50.0" y="425.0" type="line" smooth="yes"/>
      <point x="40.0" y="437.0"/>
      <point x="40.0" y="458.0"/>
      <point x="56.0" y="472.0"/>
      <point x="76.0" y="472.0"/>
      <point x="90.0" y="460.0" type="qcurve"/>
      <point x="257.0" y="267.0" type="line"/>
      <point x="423.0" y="460.0" type="line"/>
      <point x="435.0" y="472.0"/>
      <point x="456.0" y="472.0"/>
      <point x="472.0" y="458.0"/>
      <point x="472.0" y="437.0"/>
      <point x="462.0" y="425.0" type="qcurve" smooth="yes"/>
      <point x="291.0" y="230.0" type="line"/>
    </contour>
  </outline>
</glyph>
<glyph name="y" format="2">
  <advance width="619"/>
  <unicode hex="0079"/>
  <outline>
    <contour>
      <point x="321.0" y="52.0" type="line" smooth="yes"/>
      <point x="492.0" y="52.0"/>
      <point x="492.0" y="230.0" type="qcurve" smooth="yes"/>
      <point x="492.0" y="434.0" type="line" smooth="yes"/>
      <point x="492.0" y="468.0"/>
      <point x="544.0" y="468.0"/>
      <point x="544.0" y="434.0" type="qcurve" smooth="yes"/>
      <point x="544.0" y="-87.0" type="line" smooth="yes"/>
      <point x="544.0" y="-152.0"/>
      <point x="506.0" y="-205.0"/>
      <point x="453.0" y="-205.0" type="qcurve" smooth="yes"/>
      <point x="170.0" y="-205.0" type="line" smooth="yes"/>
      <point x="86.0" y="-205.0"/>
      <point x="73.0" y="-133.0" type="qcurve" smooth="yes"/>
      <point x="70.0" y="-116.0"/>
      <point x="70.0" y="-58.0"/>
      <point x="122.0" y="-58.0"/>
      <point x="122.0" y="-126.0"/>
      <point x="146.0" y="-153.0"/>
      <point x="177.0" y="-153.0" type="qcurve" smooth="yes"/>
      <point x="446.0" y="-153.0" type="line" smooth="yes"/>
      <point x="475.0" y="-153.0"/>
      <point x="492.0" y="-133.0"/>
      <point x="492.0" y="-103.0" type="qcurve" smooth="yes"/>
      <point x="492.0" y="63.0" type="line"/>
      <point x="433.0" y="0.0"/>
      <point x="321.0" y="0.0" type="qcurve" smooth="yes"/>
      <point x="292.0" y="0.0" type="line" smooth="yes"/>
      <point x="177.0" y="0.0"/>
      <point x="70.0" y="71.0"/>
      <point x="70.0" y="176.0" type="qcurve" smooth="yes"/>
      <point x="70.0" y="434.0" type="line" smooth="yes"/>
      <point x="70.0" y="468.0"/>
      <point x="122.0" y="468.0"/>
      <point x="122.0" y="434.0" type="qcurve" smooth="yes"/>
      <point x="122.0" y="177.0" type="line" smooth="yes"/>
      <point x="122.0" y="94.0"/>
      <point x="162.0" y="72.0" type="qcurve" smooth="yes"/>
      <point x="199.0" y="52.0"/>
      <point x="292.0" y="52.0" type="qcurve" smooth="yes"/>
    </contour>
  </outline>
</glyph>
<glyph name="z" format="2">
  <advance width="552"/>
  <unicode hex="007A"/>
  <outline>
    <contour>
      <point x="126.0" y="52.0" type="line"/>
      <point x="393.0" y="52.0" type="line" smooth="yes"/>
      <point x="429.0" y="52.0"/>
      <point x="449.0" y="88.0"/>
      <point x="449.0" y="164.0"/>
      <point x="475.0" y="164.0" type="qcurve"/>
      <point x="476.0" y="165.0" type="line"/>
      <point x="501.0" y="165.0"/>
      <point x="501.0" y="129.0" type="qcurve" smooth="yes"/>
      <point x="501.0" y="59.0"/>
      <point x="459.0" y="0.0"/>
      <point x="401.0" y="0.0" type="qcurve" smooth="yes"/>
      <point x="59.0" y="0.0" type="line"/>
      <point x="59.0" y="64.0" type="line"/>
      <point x="416.0" y="409.0" type="line"/>
      <point x="166.0" y="409.0" type="line" smooth="yes"/>
      <point x="131.0" y="409.0"/>
      <point x="121.0" y="391.0" type="qcurve" smooth="yes"/>
      <point x="111.0" y="372.0"/>
      <point x="111.0" y="296.0"/>
      <point x="59.0" y="296.0"/>
      <point x="59.0" y="332.0" type="qcurve" smooth="yes"/>
      <point x="59.0" y="403.0"/>
      <point x="101.0" y="461.0"/>
      <point x="159.0" y="461.0" type="qcurve" smooth="yes"/>
      <point x="480.0" y="461.0" type="line"/>
      <point x="480.0" y="394.0" type="line"/>
    </contour>
  </outline>
</glyph>
<glyph name="braceleft" format="2">
  <advance width="262"/>
  <unicode hex="007B"/>
  <outline>
    <contour>
      <point x="163.0" y="236.0" type="qcurve" smooth="yes"/>
      <point x="163.0" y="210.0"/>
      <point x="135.0" y="118.0"/>
      <point x="135.0" y="38.0"/>
      <point x="160.0" y="5.0"/>
      <point x="213.0" y="5.0" type="qcurve"/>
      <point x="213.0" y="-47.0" type="line"/>
      <point x="143.0" y="-47.0"/>
      <point x="83.0" y="13.0"/>
      <point x="83.0" y="108.0" type="qcurve" smooth="yes"/>
      <point x="83.0" y="127.0"/>
      <point x="97.0" y="173.0" type="qcurve" smooth="yes"/>
      <point x="111.0" y="218.0"/>
      <point x="111.0" y="258.0"/>
      <point x="59.0" y="303.0"/>
      <point x="38.0" y="313.0" type="qcurve"/>
      <point x="38.0" y="321.0" type="line"/>
      <point x="59.0" y="332.0"/>
      <point x="111.0" y="378.0"/>
      <point x="111.0" y="418.0"/>
      <point x="83.0" y="509.0"/>
      <point x="83.0" y="528.0" type="qcurve" smooth="yes"/>
      <point x="83.0" y="623.0"/>
      <point x="143.0" y="683.0"/>
      <point x="213.0" y="683.0" type="qcurve"/>
      <point x="213.0" y="631.0" type="line"/>
      <point x="161.0" y="631.0"/>
      <point x="148.0" y="614.0" type="qcurve" smooth="yes"/>
      <point x="135.0" y="598.0"/>
      <point x="135.0" y="518.0"/>
      <point x="163.0" y="426.0"/>
      <point x="163.0" y="360.0"/>
      <point x="92.0" y="317.0" type="qcurve"/>
      <point x="163.0" y="278.0"/>
    </contour>
  </outline>
</glyph>
<glyph name="bar" format="2">
  <advance width="214"/>
  <unicode hex="007C"/>
  <outline>
    <contour>
      <point x="133.0" y="25.0" type="line" smooth="yes"/>
      <point x="133.0" y="-7.0"/>
      <point x="81.0" y="-7.0"/>
      <point x="81.0" y="25.0" type="qcurve" smooth="yes"/>
      <point x="81.0" y="610.0" type="line" smooth="yes"/>
      <point x="81.0" y="643.0"/>
      <point x="133.0" y="643.0"/>
      <point x="133.0" y="610.0" type="qcurve" smooth="yes"/>
    </contour>
  </outline>
</glyph>
<glyph name="braceright" format="2">
  <advance width="262"/>
  <unicode hex="007D"/>
  <outline>
    <contour>
      <point x="99.0" y="236.0" type="qcurve" smooth="yes"/>
      <point x="99.0" y="278.0"/>
      <point x="170.0" y="317.0" type="qcurve"/>
      <point x="99.0" y="360.0"/>
      <point x="99.0" y="426.0"/>
      <point x="127.0" y="518.0"/>
      <point x="127.0" y="598.0"/>
      <point x="101.0" y="631.0"/>
      <point x="49.0" y="631.0" type="qcurve"/>
      <point x="49.0" y="683.0" type="line"/>
      <point x="119.0" y="683.0"/>
      <point x="179.0" y="623.0"/>
      <point x="179.0" y="528.0" type="qcurve" smooth="yes"/>
      <point x="179.0" y="509.0"/>
      <point x="165.0" y="463.0" type="qcurve" smooth="yes"/>
      <point x="151.0" y="418.0"/>
      <point x="151.0" y="378.0"/>
      <point x="203.0" y="332.0"/>
      <point x="224.0" y="321.0" type="qcurve"/>
      <point x="224.0" y="313.0" type="line"/>
      <point x="203.0" y="303.0"/>
      <point x="151.0" y="258.0"/>
      <point x="151.0" y="218.0"/>
      <point x="179.0" y="127.0"/>
      <point x="179.0" y="108.0" type="qcurve" smooth="yes"/>
      <point x="179.0" y="13.0"/>
      <point x="119.0" y="-47.0"/>
      <point x="49.0" y="-47.0" type="qcurve"/>
      <point x="49.0" y="5.0" type="line"/>
      <point x="102.0" y="5.0"/>
      <point x="127.0" y="38.0"/>
      <point x="127.0" y="118.0"/>
      <point x="99.0" y="210.0"/>
    </contour>
  </outline>
</glyph>
<glyph name="asciitilde" format="2">
  <advance width="425"/>
  <unicode hex="007E"/>
  <outline>
    <contour>
      <point x="150.0" y="274.0" type="qcurve"/>
      <point x="163.0" y="272.0" type="line"/>
      <point x="261.0" y="236.0" type="line"/>
      <point x="266.0" y="234.0" type="line"/>
      <point x="269.0" y="234.0"/>
      <point x="274.0" y="238.0" type="qcurve"/>
      <point x="305.0" y="266.0" type="line"/>
      <point x="318.0" y="275.0"/>
      <point x="327.0" y="275.0" type="qcurve" smooth="yes"/>
      <point x="353.0" y="275.0"/>
      <point x="353.0" y="252.0" type="qcurve" smooth="yes"/>
      <point x="353.0" y="238.0"/>
      <point x="339.0" y="225.0" type="qcurve"/>
      <point x="292.0" y="186.0" type="line"/>
      <point x="284.0" y="178.0"/>
      <point x="278.0" y="178.0" type="qcurve" smooth="yes"/>
      <point x="269.0" y="178.0" type="line"/>
      <point x="267.0" y="180.0"/>
      <point x="262.0" y="180.0" type="qcurve" smooth="yes"/>
      <point x="261.0" y="180.0" type="line"/>
      <point x="163.0" y="216.0" type="line"/>
      <point x="161.0" y="218.0"/>
      <point x="154.0" y="218.0"/>
      <point x="149.0" y="214.0" type="qcurve"/>
      <point x="118.0" y="186.0" type="line"/>
      <point x="105.0" y="177.0"/>
      <point x="87.0" y="177.0"/>
      <point x="71.0" y="190.0"/>
      <point x="71.0" y="216.0"/>
      <point x="85.0" y="227.0" type="qcurve" smooth="yes"/>
      <point x="131.0" y="265.0" type="line"/>
      <point x="138.0" y="274.0"/>
    </contour>
  </outline>
</glyph>
<glyph name="exclamdown" format="2">
  <advance width="230"/>
  <unicode hex="00A1"/>
  <outline>
    <contour>
      <point x="141.0" y="-138.0" type="line" smooth="yes"/>
      <point x="141.0" y="-170.0"/>
      <point x="89.0" y="-170.0"/>
      <point x="89.0" y="-138.0" type="qcurve" smooth="yes"/>
      <point x="89.0" y="282.0" type="line" smooth="yes"/>
      <point x="89.0" y="315.0"/>
      <point x="141.0" y="315.0"/>
      <point x="141.0" y="282.0" type="qcurve" smooth="yes"/>
    </contour>
    <contour>
      <point x="63.0" y="467.0"/>
      <point x="98.0" y="491.0"/>
      <point x="132.0" y="491.0"/>
      <point x="166.0" y="467.0"/>
      <point x="166.0" y="433.0"/>
      <point x="131.0" y="409.0"/>
      <point x="98.0" y="409.0"/>
      <point x="63.0" y="433.0"/>
    </contour>
  </outline>
</glyph>
<glyph name="cent" format="2">
  <advance width="478"/>
  <unicode hex="00A2"/>
  <outline>
    <contour>
      <point x="270.0" y="20.0" type="line" smooth="yes"/>
      <point x="270.0" y="-12.0"/>
      <point x="218.0" y="-12.0"/>
      <point x="218.0" y="20.0" type="qcurve" smooth="yes"/>
      <point x="218.0" y="118.0" type="line"/>
      <point x="133.0" y="123.0"/>
      <point x="49.0" y="201.0"/>
      <point x="49.0" y="298.0" type="qcurve" smooth="yes"/>
      <point x="49.0" y="340.0" type="line" smooth="yes"/>
      <point x="49.0" y="435.0"/>
      <point x="135.0" y="514.0"/>
      <point x="218.0" y="519.0" type="qcurve"/>
      <point x="218.0" y="615.0" type="line" smooth="yes"/>
      <point x="218.0" y="648.0"/>
      <point x="270.0" y="648.0"/>
      <point x="270.0" y="615.0" type="qcurve" smooth="yes"/>
      <point x="270.0" y="520.0" type="line"/>
      <point x="322.0" y="520.0" type="line" smooth="yes"/>
      <point x="405.0" y="520.0"/>
      <point x="418.0" y="450.0" type="qcurve" smooth="yes"/>
      <point x="421.0" y="434.0"/>
      <point x="421.0" y="373.0"/>
      <point x="369.0" y="373.0"/>
      <point x="369.0" y="442.0"/>
      <point x="346.0" y="468.0"/>
      <point x="315.0" y="468.0" type="qcurve" smooth="yes"/>
      <point x="270.0" y="468.0" type="line"/>
      <point x="270.0" y="170.0" type="line"/>
      <point x="313.0" y="170.0" type="line" smooth="yes"/>
      <point x="344.0" y="170.0"/>
      <point x="369.0" y="196.0"/>
      <point x="369.0" y="265.0"/>
      <point x="421.0" y="265.0"/>
      <point x="421.0" y="206.0"/>
      <point x="414.0" y="172.0"/>
      <point x="404.0" y="154.0" type="qcurve" smooth="yes"/>
      <point x="385.0" y="118.0"/>
      <point x="323.0" y="118.0" type="qcurve" smooth="yes"/>
      <point x="321.0" y="118.0"/>
      <point x="320.0" y="118.0" type="qcurve" smooth="yes"/>
      <point x="270.0" y="118.0" type="line"/>
    </contour>
    <contour>
      <point x="218.0" y="171.0" type="qcurve"/>
      <point x="218.0" y="467.0" type="line"/>
      <point x="155.0" y="464.0"/>
      <point x="101.0" y="411.0"/>
      <point x="101.0" y="340.0" type="qcurve" smooth="yes"/>
      <point x="101.0" y="298.0" type="line" smooth="yes"/>
      <point x="101.0" y="225.0"/>
      <point x="153.0" y="174.0"/>
    </contour>
  </outline>
</glyph>
<glyph name="sterling" format="2">
  <advance width="501"/>
  <unicode hex="00A3"/>
  <outline>
    <contour>
      <point x="65.0" y="23.0" type="qcurve" smooth="yes"/>
      <point x="65.0" y="29.0"/>
      <point x="66.0" y="32.0" type="qcurve"/>
      <point x="104.0" y="468.0" type="line" smooth="yes"/>
      <point x="114.0" y="581.0"/>
      <point x="170.0" y="617.0" type="qcurve" smooth="yes"/>
      <point x="217.0" y="648.0"/>
      <point x="359.0" y="648.0"/>
      <point x="441.0" y="587.0"/>
      <point x="441.0" y="501.0" type="qcurve" smooth="yes"/>
      <point x="441.0" y="468.0"/>
      <point x="389.0" y="468.0"/>
      <point x="389.0" y="501.0" type="qcurve" smooth="yes"/>
      <point x="389.0" y="562.0"/>
      <point x="339.0" y="596.0"/>
      <point x="225.0" y="596.0"/>
      <point x="163.0" y="548.0"/>
      <point x="156.0" y="468.0" type="qcurve" smooth="yes"/>
      <point x="147.0" y="369.0" type="line"/>
      <point x="181.0" y="369.0" type="line" smooth="yes"/>
      <point x="213.0" y="369.0"/>
      <point x="213.0" y="317.0"/>
      <point x="181.0" y="317.0" type="qcurve" smooth="yes"/>
      <point x="143.0" y="317.0" type="line"/>
      <point x="119.0" y="47.0" type="line"/>
      <point x="410.0" y="47.0" type="line" smooth="yes"/>
      <point x="443.0" y="47.0"/>
      <point x="443.0" y="-5.0"/>
      <point x="410.0" y="-5.0" type="qcurve" smooth="yes"/>
      <point x="87.0" y="-5.0" type="line" smooth="yes"/>
      <point x="65.0" y="-5.0"/>
    </contour>
  </outline>
</glyph>
<glyph name="currency" format="2">
  <advance width="495"/>
  <unicode hex="00A4"/>
  <outline>
    <contour>
      <point x="204.0" y="335.0"/>
      <point x="143.0" y="274.0"/>
      <point x="143.0" y="187.0"/>
      <point x="205.0" y="126.0"/>
      <point x="291.0" y="126.0"/>
      <point x="352.0" y="187.0"/>
      <point x="352.0" y="273.0"/>
      <point x="291.0" y="335.0"/>
    </contour>
    <contour>
      <point x="125.0" y="146.0" type="line"/>
      <point x="99.0" y="183.0"/>
      <point x="99.0" y="278.0"/>
      <point x="125.0" y="315.0" type="qcurve"/>
      <point x="80.0" y="360.0" type="line"/>
      <point x="68.0" y="374.0"/>
      <point x="68.0" y="393.0"/>
      <point x="85.0" y="409.0"/>
      <point x="103.0" y="409.0"/>
      <point x="117.0" y="397.0" type="qcurve"/>
      <point x="162.0" y="352.0" type="line"/>
      <point x="200.0" y="379.0"/>
      <point x="296.0" y="379.0"/>
      <point x="333.0" y="352.0" type="qcurve"/>
      <point x="377.0" y="397.0" type="line"/>
      <point x="390.0" y="409.0"/>
      <point x="400.0" y="409.0" type="qcurve" smooth="yes"/>
      <point x="427.0" y="409.0"/>
      <point x="427.0" y="385.0" type="qcurve" smooth="yes"/>
      <point x="427.0" y="372.0"/>
      <point x="413.0" y="360.0" type="qcurve"/>
      <point x="369.0" y="315.0" type="line"/>
      <point x="396.0" y="279.0"/>
      <point x="396.0" y="182.0"/>
      <point x="369.0" y="145.0" type="qcurve"/>
      <point x="413.0" y="101.0" type="line" smooth="yes"/>
      <point x="427.0" y="87.0"/>
      <point x="427.0" y="69.0"/>
      <point x="410.0" y="51.0"/>
      <point x="390.0" y="51.0"/>
      <point x="377.0" y="65.0" type="qcurve" smooth="yes"/>
      <point x="333.0" y="109.0" type="line"/>
      <point x="296.0" y="82.0"/>
      <point x="200.0" y="82.0"/>
      <point x="162.0" y="109.0" type="qcurve"/>
      <point x="117.0" y="65.0" type="line"/>
      <point x="105.0" y="51.0"/>
      <point x="84.0" y="51.0"/>
      <point x="68.0" y="65.0"/>
      <point x="68.0" y="88.0"/>
      <point x="80.0" y="101.0" type="qcurve" smooth="yes"/>
    </contour>
  </outline>
</glyph>
<glyph name="yen" format="2">
  <advance width="538"/>
  <unicode hex="00A5"/>
  <outline>
    <contour>
      <point x="39.0" y="601.0" type="line"/>
      <point x="31.0" y="614.0"/>
      <point x="31.0" y="634.0"/>
      <point x="47.0" y="648.0"/>
      <point x="67.0" y="648.0"/>
      <point x="81.0" y="630.0" type="qcurve" smooth="yes"/>
      <point x="269.0" y="363.0" type="line"/>
      <point x="456.0" y="630.0" type="line" smooth="yes"/>
      <point x="468.0" y="648.0"/>
      <point x="490.0" y="648.0"/>
      <point x="507.0" y="633.0"/>
      <point x="507.0" y="613.0"/>
      <point x="499.0" y="601.0" type="qcurve" smooth="yes"/>
      <point x="295.0" y="308.0" type="line"/>
      <point x="295.0" y="277.0" type="line"/>
      <point x="389.0" y="277.0" type="line" smooth="yes"/>
      <point x="422.0" y="277.0"/>
      <point x="422.0" y="225.0"/>
      <point x="389.0" y="225.0" type="qcurve" smooth="yes"/>
      <point x="295.0" y="225.0" type="line"/>
      <point x="295.0" y="188.0" type="line"/>
      <point x="389.0" y="188.0" type="line" smooth="yes"/>
      <point x="422.0" y="188.0"/>
      <point x="422.0" y="136.0"/>
      <point x="389.0" y="136.0" type="qcurve" smooth="yes"/>
      <point x="295.0" y="136.0" type="line"/>
      <point x="295.0" y="20.0" type="line" smooth="yes"/>
      <point x="295.0" y="19.0"/>
      <point x="295.0" y="18.0" type="qcurve" smooth="yes"/>
      <point x="295.0" y="-12.0"/>
      <point x="270.0" y="-12.0" type="qcurve" smooth="yes"/>
      <point x="244.0" y="-12.0"/>
      <point x="244.0" y="20.0" type="qcurve" smooth="yes"/>
      <point x="244.0" y="136.0" type="line"/>
      <point x="144.0" y="136.0" type="line" smooth="yes"/>
      <point x="112.0" y="136.0"/>
      <point x="112.0" y="188.0"/>
      <point x="144.0" y="188.0" type="qcurve" smooth="yes"/>
      <point x="244.0" y="188.0" type="line"/>
      <point x="244.0" y="225.0" type="line"/>
      <point x="144.0" y="225.0" type="line" smooth="yes"/>
      <point x="112.0" y="225.0"/>
      <point x="112.0" y="277.0"/>
      <point x="144.0" y="277.0" type="qcurve" smooth="yes"/>
      <point x="244.0" y="277.0" type="line"/>
      <point x="244.0" y="308.0" type="line"/>
    </contour>
  </outline>
</glyph>
<glyph name="brokenbar" format="2">
  <advance width="213"/>
  <unicode hex="00A6"/>
  <outline>
    <contour>
      <point x="81.0" y="616.0" type="line" smooth="yes"/>
      <point x="81.0" y="648.0"/>
      <point x="132.0" y="648.0"/>
      <point x="132.0" y="616.0" type="qcurve" smooth="yes"/>
      <point x="132.0" y="401.0" type="line" smooth="yes"/>
      <point x="132.0" y="368.0"/>
      <point x="81.0" y="368.0"/>
      <point x="81.0" y="401.0" type="qcurve" smooth="yes"/>
    </contour>
    <contour>
      <point x="81.0" y="237.0" type="line" smooth="yes"/>
      <point x="81.0" y="268.0"/>
      <point x="132.0" y="268.0"/>
      <point x="132.0" y="237.0" type="qcurve" smooth="yes"/>
      <point x="132.0" y="22.0" type="line" smooth="yes"/>
      <point x="132.0" y="-12.0"/>
      <point x="81.0" y="-12.0"/>
      <point x="81.0" y="22.0" type="qcurve" smooth="yes"/>
    </contour>
  </outline>
</glyph>
<glyph name="section" format="2">
  <advance width="520"/>
  <unicode hex="00A7"/>
  <outline>
    <contour>
      <point x="353.0" y="547.0" type="qcurve" smooth="yes"/>
      <point x="169.0" y="547.0" type="line" smooth="yes"/>
      <point x="145.0" y="547.0"/>
      <point x="127.0" y="522.0"/>
      <point x="127.0" y="495.0" type="qcurve" smooth="yes"/>
      <point x="127.0" y="430.0"/>
      <point x="166.0" y="425.0" type="qcurve" smooth="yes"/>
      <point x="341.0" y="400.0" type="line" smooth="yes"/>
      <point x="445.0" y="386.0"/>
      <point x="445.0" y="289.0" type="qcurve" smooth="yes"/>
      <point x="445.0" y="217.0"/>
      <point x="399.0" y="194.0" type="qcurve"/>
      <point x="445.0" y="167.0"/>
      <point x="445.0" y="99.0" type="qcurve" smooth="yes"/>
      <point x="445.0" y="-5.0"/>
      <point x="340.0" y="-5.0" type="qcurve" smooth="yes"/>
      <point x="156.0" y="-5.0" type="line" smooth="yes"/>
      <point x="107.0" y="-5.0"/>
      <point x="75.0" y="44.0"/>
      <point x="75.0" y="116.0"/>
      <point x="127.0" y="116.0"/>
      <point x="127.0" y="62.0"/>
      <point x="141.0" y="47.0"/>
      <point x="167.0" y="47.0" type="qcurve" smooth="yes"/>
      <point x="351.0" y="47.0" type="line" smooth="yes"/>
      <point x="375.0" y="47.0"/>
      <point x="393.0" y="71.0"/>
      <point x="393.0" y="99.0" type="qcurve" smooth="yes"/>
      <point x="393.0" y="164.0"/>
      <point x="354.0" y="169.0" type="qcurve" smooth="yes"/>
      <point x="179.0" y="194.0" type="line" smooth="yes"/>
      <point x="75.0" y="208.0"/>
      <point x="75.0" y="306.0" type="qcurve" smooth="yes"/>
      <point x="75.0" y="377.0"/>
      <point x="121.0" y="400.0" type="qcurve"/>
      <point x="75.0" y="427.0"/>
      <point x="75.0" y="495.0" type="qcurve" smooth="yes"/>
      <point x="75.0" y="599.0"/>
      <point x="180.0" y="599.0" type="qcurve" smooth="yes"/>
      <point x="365.0" y="599.0" type="line" smooth="yes"/>
      <point x="400.0" y="598.0"/>
      <point x="418.0" y="584.0" type="qcurve" smooth="yes"/>
      <point x="445.0" y="563.0"/>
      <point x="445.0" y="512.0" type="qcurve" smooth="yes"/>
      <point x="445.0" y="510.0"/>
      <point x="445.0" y="508.0" type="qcurve" smooth="yes"/>
      <point x="445.0" y="478.0"/>
      <point x="393.0" y="478.0"/>
      <point x="393.0" y="532.0"/>
      <point x="379.0" y="547.0"/>
    </contour>
    <contour>
      <point x="156.0" y="368.0"/>
      <point x="127.0" y="348.0"/>
      <point x="127.0" y="266.0"/>
      <point x="232.0" y="226.0"/>
      <point x="364.0" y="226.0"/>
      <point x="393.0" y="246.0"/>
      <point x="393.0" y="331.0"/>
      <point x="280.0" y="368.0"/>
    </contour>
  </outline>
</glyph>
<glyph name="dieresis" format="2">
  <advance width="367"/>
  <unicode hex="00A8"/>
  <outline>
    <contour>
      <point x="60.0" y="647.0"/>
      <point x="94.0" y="671.0"/>
      <point x="127.0" y="671.0"/>
      <point x="162.0" y="647.0"/>
      <point x="162.0" y="613.0"/>
      <point x="127.0" y="589.0"/>
      <point x="94.0" y="589.0"/>
      <point x="60.0" y="613.0"/>
    </contour>
    <contour>
      <point x="206.0" y="647.0"/>
      <point x="240.0" y="671.0"/>
      <point x="273.0" y="671.0"/>
      <point x="308.0" y="647.0"/>
      <point x="308.0" y="613.0"/>
      <point x="273.0" y="589.0"/>
      <point x="240.0" y="589.0"/>
      <point x="206.0" y="613.0"/>
    </contour>
  </outline>
</glyph>
<glyph name="copyright" format="2">
  <advance width="612"/>
  <unicode hex="00A9"/>
  <outline>
    <contour>
      <point x="351.0" y="421.0" type="line" smooth="yes"/>
      <point x="406.0" y="421.0"/>
      <point x="406.0" y="363.0" type="qcurve" smooth="yes"/>
      <point x="406.0" y="346.0"/>
      <point x="367.0" y="346.0"/>
      <point x="367.0" y="380.0"/>
      <point x="349.0" y="380.0" type="qcurve" smooth="yes"/>
      <point x="301.0" y="380.0" type="line" smooth="yes"/>
      <point x="277.0" y="380.0"/>
      <point x="246.0" y="357.0"/>
      <point x="246.0" y="337.0" type="qcurve" smooth="yes"/>
      <point x="246.0" y="298.0" type="line" smooth="yes"/>
      <point x="246.0" y="278.0"/>
      <point x="277.0" y="255.0"/>
      <point x="301.0" y="255.0" type="qcurve" smooth="yes"/>
      <point x="349.0" y="255.0" type="line"/>
      <point x="364.0" y="254.0"/>
      <point x="366.0" y="268.0" type="qcurve" smooth="yes"/>
      <point x="368.0" y="288.0"/>
      <point x="406.0" y="289.0"/>
      <point x="406.0" y="272.0" type="qcurve" smooth="yes"/>
      <point x="406.0" y="214.0"/>
      <point x="351.0" y="214.0" type="qcurve" smooth="yes"/>
      <point x="301.0" y="214.0" type="line" smooth="yes"/>
      <point x="262.0" y="214.0"/>
      <point x="206.0" y="257.0"/>
      <point x="206.0" y="298.0" type="qcurve" smooth="yes"/>
      <point x="206.0" y="337.0" type="line" smooth="yes"/>
      <point x="206.0" y="378.0"/>
      <point x="262.0" y="421.0"/>
      <point x="301.0" y="421.0" type="qcurve" smooth="yes"/>
    </contour>
    <contour>
      <point x="292.0" y="82.0" type="line" smooth="yes"/>
      <point x="189.0" y="82.0"/>
      <point x="108.0" y="133.0"/>
      <point x="79.0" y="206.0"/>
      <point x="79.0" y="262.0" type="qcurve" smooth="yes"/>
      <point x="79.0" y="373.0" type="line" smooth="yes"/>
      <point x="79.0" y="484.0"/>
      <point x="138.0" y="521.0" type="qcurve" smooth="yes"/>
      <point x="189.0" y="553.0"/>
      <point x="292.0" y="553.0" type="qcurve" smooth="yes"/>
      <point x="321.0" y="553.0" type="line" smooth="yes"/>
      <point x="429.0" y="553.0"/>
      <point x="533.0" y="480.0"/>
      <point x="533.0" y="373.0" type="qcurve" smooth="yes"/>
      <point x="533.0" y="262.0" type="line" smooth="yes"/>
      <point x="533.0" y="155.0"/>
      <point x="429.0" y="82.0"/>
      <point x="321.0" y="82.0" type="qcurve" smooth="yes"/>
    </contour>
    <contour>
      <point x="292.0" y="134.0" type="qcurve" smooth="yes"/>
      <point x="321.0" y="134.0" type="line" smooth="yes"/>
      <point x="412.0" y="134.0"/>
      <point x="481.0" y="180.0"/>
      <point x="481.0" y="262.0" type="qcurve" smooth="yes"/>
      <point x="481.0" y="373.0" type="line" smooth="yes"/>
      <point x="481.0" y="455.0"/>
      <point x="412.0" y="501.0"/>
      <point x="321.0" y="501.0" type="qcurve" smooth="yes"/>
      <point x="292.0" y="501.0" type="line" smooth="yes"/>
      <point x="200.0" y="501.0"/>
      <point x="131.0" y="455.0"/>
      <point x="131.0" y="373.0" type="qcurve" smooth="yes"/>
      <point x="131.0" y="262.0" type="line" smooth="yes"/>
      <point x="131.0" y="180.0"/>
      <point x="200.0" y="134.0"/>
    </contour>
  </outline>
</glyph>
<glyph name="ordfeminine" format="2">
  <advance width="380"/>
  <unicode hex="00AA"/>
  <outline>
    <contour>
      <point x="91.0" y="159.0" type="line" smooth="yes"/>
      <point x="65.0" y="159.0"/>
      <point x="65.0" y="204.0"/>
      <point x="91.0" y="204.0" type="qcurve" smooth="yes"/>
      <point x="287.0" y="204.0" type="line" smooth="yes"/>
      <point x="315.0" y="204.0"/>
      <point x="315.0" y="159.0"/>
      <point x="287.0" y="159.0" type="qcurve" smooth="yes"/>
    </contour>
    <contour>
      <point x="150.0" y="285.0" type="qcurve" smooth="yes"/>
      <point x="187.0" y="285.0" type="line" smooth="yes"/>
      <point x="246.0" y="285.0"/>
      <point x="249.0" y="349.0" type="qcurve"/>
      <point x="192.0" y="349.0" type="line" smooth="yes"/>
      <point x="157.0" y="349.0"/>
      <point x="131.0" y="334.0"/>
      <point x="131.0" y="285.0"/>
    </contour>
    <contour>
      <point x="150.0" y="425.0" type="line" smooth="yes"/>
      <point x="131.0" y="425.0"/>
      <point x="131.0" y="387.0"/>
      <point x="90.0" y="387.0"/>
      <point x="90.0" y="430.0"/>
      <point x="122.0" y="466.0"/>
      <point x="147.0" y="466.0" type="qcurve" smooth="yes"/>
      <point x="232.0" y="466.0" type="line" smooth="yes"/>
      <point x="290.0" y="466.0"/>
      <point x="290.0" y="397.0" type="qcurve" smooth="yes"/>
      <point x="290.0" y="258.0" type="line"/>
      <point x="288.0" y="241.0"/>
      <point x="249.0" y="241.0"/>
      <point x="249.0" y="258.0" type="qcurve" smooth="yes"/>
      <point x="249.0" y="270.0" type="line"/>
      <point x="231.0" y="244.0"/>
      <point x="187.0" y="244.0" type="qcurve" smooth="yes"/>
      <point x="150.0" y="244.0" type="line" smooth="yes"/>
      <point x="124.0" y="244.0"/>
      <point x="90.0" y="284.0"/>
      <point x="90.0" y="320.0" type="qcurve" smooth="yes"/>
      <point x="90.0" y="390.0"/>
      <point x="192.0" y="390.0" type="qcurve" smooth="yes"/>
      <point x="249.0" y="390.0" type="line"/>
      <point x="249.0" y="404.0" type="line" smooth="yes"/>
      <point x="249.0" y="425.0"/>
      <point x="229.0" y="425.0" type="qcurve" smooth="yes"/>
    </contour>
  </outline>
</glyph>
<glyph name="logicalnot" format="2">
  <advance width="522"/>
  <unicode hex="00AC"/>
  <outline>
    <contour>
      <point x="443.0" y="141.0" type="line"/>
      <point x="442.0" y="108.0"/>
      <point x="390.0" y="108.0"/>
      <point x="390.0" y="141.0" type="qcurve" smooth="yes"/>
      <point x="390.0" y="204.0" type="line"/>
      <point x="111.0" y="204.0" type="line" smooth="yes"/>
      <point x="80.0" y="204.0"/>
      <point x="80.0" y="256.0"/>
      <point x="111.0" y="257.0" type="qcurve" smooth="yes"/>
      <point x="409.0" y="257.0" type="line" smooth="yes"/>
      <point x="443.0" y="257.0"/>
      <point x="443.0" y="225.0" type="qcurve" smooth="yes"/>
    </contour>
  </outline>
</glyph>
<glyph name="uni00AD" format="2">
  <advance width="456"/>
  <unicode hex="00AD"/>
  <outline>
    <contour>
      <point x="349.0" y="257.0" type="line" smooth="yes"/>
      <point x="383.0" y="257.0"/>
      <point x="383.0" y="204.0"/>
      <point x="349.0" y="204.0" type="qcurve" smooth="yes"/>
      <point x="104.0" y="204.0" type="line" smooth="yes"/>
      <point x="73.0" y="204.0"/>
      <point x="73.0" y="257.0"/>
      <point x="104.0" y="257.0" type="qcurve" smooth="yes"/>
    </contour>
  </outline>
</glyph>
<glyph name="macron" format="2">
  <advance width="429"/>
  <unicode hex="00AF"/>
  <outline>
    <contour>
      <point x="336.0" y="726.0" type="line" smooth="yes"/>
      <point x="370.0" y="726.0"/>
      <point x="370.0" y="673.0"/>
      <point x="336.0" y="673.0" type="qcurve" smooth="yes"/>
      <point x="91.0" y="673.0" type="line" smooth="yes"/>
      <point x="60.0" y="673.0"/>
      <point x="60.0" y="726.0"/>
      <point x="91.0" y="726.0" type="qcurve" smooth="yes"/>
    </contour>
  </outline>
</glyph>
<glyph name="degree" format="2">
  <advance width="403"/>
  <unicode hex="00B0"/>
  <outline>
    <contour>
      <point x="132.0" y="466.0" type="qcurve" smooth="yes"/>
      <point x="162.0" y="437.0"/>
      <point x="242.0" y="437.0"/>
      <point x="299.0" y="494.0"/>
      <point x="299.0" y="574.0"/>
      <point x="241.0" y="632.0"/>
      <point x="161.0" y="632.0"/>
      <point x="104.0" y="575.0"/>
      <point x="104.0" y="495.0"/>
    </contour>
    <contour>
      <point x="140.0" y="683.0"/>
      <point x="262.0" y="683.0"/>
      <point x="350.0" y="596.0"/>
      <point x="350.0" y="474.0"/>
      <point x="262.0" y="386.0"/>
      <point x="140.0" y="386.0"/>
      <point x="53.0" y="474.0"/>
      <point x="53.0" y="596.0"/>
    </contour>
  </outline>
</glyph>
<glyph name="plusminus" format="2">
  <advance width="579"/>
  <unicode hex="00B1"/>
  <outline>
    <contour>
      <point x="477.0" y="53.0" type="line" smooth="yes"/>
      <point x="511.0" y="53.0"/>
      <point x="511.0" y="0.0"/>
      <point x="477.0" y="0.0" type="qcurve" smooth="yes"/>
      <point x="99.0" y="0.0" type="line" smooth="yes"/>
      <point x="68.0" y="0.0"/>
      <point x="68.0" y="53.0"/>
      <point x="99.0" y="53.0" type="qcurve" smooth="yes"/>
    </contour>
    <contour>
      <point x="263.0" y="143.0" type="qcurve" smooth="yes"/>
      <point x="263.0" y="265.0" type="line"/>
      <point x="99.0" y="265.0" type="line" smooth="yes"/>
      <point x="68.0" y="265.0"/>
      <point x="68.0" y="318.0"/>
      <point x="99.0" y="318.0" type="qcurve" smooth="yes"/>
      <point x="263.0" y="318.0" type="line"/>
      <point x="263.0" y="440.0" type="line" smooth="yes"/>
      <point x="263.0" y="473.0"/>
      <point x="315.0" y="473.0"/>
      <point x="315.0" y="440.0" type="qcurve" smooth="yes"/>
      <point x="315.0" y="318.0" type="line"/>
      <point x="477.0" y="318.0" type="line" smooth="yes"/>
      <point x="511.0" y="318.0"/>
      <point x="511.0" y="265.0"/>
      <point x="477.0" y="265.0" type="qcurve" smooth="yes"/>
      <point x="315.0" y="265.0" type="line"/>
      <point x="315.0" y="143.0" type="line" smooth="yes"/>
      <point x="315.0" y="111.0"/>
      <point x="263.0" y="111.0"/>
    </contour>
  </outline>
</glyph>
<glyph name="twosuperior" format="2">
  <advance width="325"/>
  <unicode hex="00B2"/>
  <outline>
    <contour>
      <point x="253.0" y="499.0" type="line"/>
      <point x="280.0" y="497.0"/>
      <point x="280.0" y="477.0" type="qcurve" smooth="yes"/>
      <point x="280.0" y="471.0"/>
      <point x="263.0" y="456.0"/>
      <point x="253.0" y="456.0" type="qcurve" smooth="yes"/>
      <point x="45.0" y="456.0" type="line"/>
      <point x="45.0" y="483.0" type="line" smooth="yes"/>
      <point x="45.0" y="552.0"/>
      <point x="113.0" y="593.0" type="qcurve" smooth="yes"/>
      <point x="141.0" y="610.0"/>
      <point x="169.0" y="624.0" type="qcurve" smooth="yes"/>
      <point x="237.0" y="658.0"/>
      <point x="237.0" y="682.0" type="qcurve" smooth="yes"/>
      <point x="237.0" y="714.0"/>
      <point x="205.0" y="729.0"/>
      <point x="155.0" y="729.0" type="qcurve" smooth="yes"/>
      <point x="129.0" y="729.0" type="line" smooth="yes"/>
      <point x="91.0" y="729.0"/>
      <point x="91.0" y="703.0" type="qcurve" smooth="yes"/>
      <point x="91.0" y="693.0"/>
      <point x="77.0" y="680.0"/>
      <point x="60.0" y="680.0"/>
      <point x="45.0" y="693.0"/>
      <point x="45.0" y="733.0"/>
      <point x="93.0" y="772.0"/>
      <point x="125.0" y="772.0" type="qcurve" smooth="yes"/>
      <point x="155.0" y="772.0" type="line" smooth="yes"/>
      <point x="252.0" y="772.0"/>
      <point x="271.0" y="731.0" type="qcurve" smooth="yes"/>
      <point x="280.0" y="712.0"/>
      <point x="280.0" y="654.0"/>
      <point x="252.0" y="628.0" type="qcurve"/>
      <point x="223.0" y="604.0"/>
      <point x="189.0" y="588.0" type="qcurve" smooth="yes"/>
      <point x="97.0" y="545.0"/>
      <point x="92.0" y="499.0" type="qcurve"/>
    </contour>
  </outline>
</glyph>
<glyph name="threesuperior" format="2">
  <advance width="295"/>
  <unicode hex="00B3"/>
  <outline>
    <contour>
      <point x="210.0" y="709.0" type="qcurve" smooth="yes"/>
      <point x="202.0" y="729.0"/>
      <point x="150.0" y="729.0" type="qcurve" smooth="yes"/>
      <point x="138.0" y="729.0" type="line" smooth="yes"/>
      <point x="115.0" y="729.0"/>
      <point x="78.0" y="713.0"/>
      <point x="78.0" y="701.0" type="qcurve" smooth="yes"/>
      <point x="78.0" y="683.0"/>
      <point x="32.0" y="683.0"/>
      <point x="32.0" y="727.0"/>
      <point x="89.0" y="772.0"/>
      <point x="134.0" y="772.0" type="qcurve" smooth="yes"/>
      <point x="146.0" y="772.0" type="line" smooth="yes"/>
      <point x="205.0" y="772.0"/>
      <point x="255.0" y="731.0"/>
      <point x="255.0" y="643.0"/>
      <point x="196.0" y="618.0" type="qcurve"/>
      <point x="219.0" y="608.0"/>
      <point x="255.0" y="568.0"/>
      <point x="255.0" y="532.0" type="qcurve" smooth="yes"/>
      <point x="255.0" y="456.0"/>
      <point x="146.0" y="456.0" type="qcurve" smooth="yes"/>
      <point x="134.0" y="456.0" type="line" smooth="yes"/>
      <point x="89.0" y="456.0"/>
      <point x="32.0" y="501.0"/>
      <point x="32.0" y="545.0"/>
      <point x="78.0" y="545.0"/>
      <point x="78.0" y="527.0" type="qcurve" smooth="yes"/>
      <point x="78.0" y="515.0"/>
      <point x="115.0" y="499.0"/>
      <point x="138.0" y="499.0" type="qcurve" smooth="yes"/>
      <point x="150.0" y="499.0" type="line" smooth="yes"/>
      <point x="190.0" y="499.0"/>
      <point x="213.0" y="519.0"/>
      <point x="213.0" y="562.0"/>
      <point x="156.0" y="596.0"/>
      <point x="103.0" y="596.0"/>
      <point x="103.0" y="639.0"/>
      <point x="156.0" y="639.0"/>
      <point x="213.0" y="667.0"/>
      <point x="213.0" y="701.0"/>
    </contour>
  </outline>
</glyph>
<glyph name="paragraph" format="2">
  <advance width="467"/>
  <unicode hex="00B6"/>
  <outline>
    <contour>
      <point x="377.0" y="20.0" type="line" smooth="yes"/>
      <point x="377.0" y="-12.0"/>
      <point x="325.0" y="-12.0"/>
      <point x="325.0" y="20.0" type="qcurve" smooth="yes"/>
      <point x="325.0" y="589.0" type="line"/>
      <point x="294.0" y="589.0" type="line"/>
      <point x="294.0" y="20.0" type="line" smooth="yes"/>
      <point x="294.0" y="-12.0"/>
      <point x="242.0" y="-12.0"/>
      <point x="242.0" y="20.0" type="qcurve" smooth="yes"/>
      <point x="242.0" y="332.0" type="line"/>
      <point x="205.0" y="332.0" type="line" smooth="yes"/>
      <point x="125.0" y="332.0"/>
      <point x="35.0" y="411.0"/>
      <point x="35.0" y="575.0"/>
      <point x="142.0" y="641.0"/>
      <point x="247.0" y="641.0" type="qcurve" smooth="yes"/>
      <point x="377.0" y="641.0" type="line"/>
    </contour>
  </outline>
</glyph>
<glyph name="periodcentered" format="2">
  <advance width="242"/>
  <unicode hex="00B7"/>
  <outline>
    <contour>
      <point x="70.0" y="404.0"/>
      <point x="104.0" y="428.0"/>
      <point x="137.0" y="428.0"/>
      <point x="172.0" y="404.0"/>
      <point x="172.0" y="370.0"/>
      <point x="137.0" y="346.0"/>
      <point x="104.0" y="346.0"/>
      <point x="70.0" y="370.0"/>
    </contour>
  </outline>
</glyph>
<glyph name="cedilla" format="2">
  <advance width="242"/>
  <unicode hex="00B8"/>
  <outline>
    <contour>
      <point x="143.0" y="10.0" type="line"/>
      <point x="143.0" y="-19.0"/>
      <point x="212.0" y="-57.0"/>
      <point x="212.0" y="-130.0"/>
      <point x="156.0" y="-175.0"/>
      <point x="91.0" y="-175.0"/>
      <point x="37.0" y="-151.0"/>
      <point x="37.0" y="-107.0"/>
      <point x="52.0" y="-107.0" type="qcurve" smooth="yes"/>
      <point x="58.0" y="-107.0"/>
      <point x="104.0" y="-125.0"/>
      <point x="118.0" y="-125.0" type="qcurve" smooth="yes"/>
      <point x="160.0" y="-125.0"/>
      <point x="160.0" y="-99.0" type="qcurve" smooth="yes"/>
      <point x="160.0" y="-84.0"/>
      <point x="136.0" y="-67.0" type="qcurve" smooth="yes"/>
      <point x="91.0" y="-35.0"/>
      <point x="91.0" y="8.0" type="qcurve" smooth="yes"/>
      <point x="91.0" y="9.0"/>
      <point x="91.0" y="10.0" type="qcurve"/>
    </contour>
  </outline>
</glyph>
<glyph name="onesuperior" format="2">
  <advance width="154"/>
  <unicode hex="00B9"/>
  <outline>
    <contour>
      <point x="76.0" y="775.0" type="qcurve" smooth="yes"/>
      <point x="99.0" y="775.0"/>
      <point x="99.0" y="751.0" type="qcurve" smooth="yes"/>
      <point x="99.0" y="480.0" type="line" smooth="yes"/>
      <point x="99.0" y="453.0"/>
      <point x="55.0" y="453.0"/>
      <point x="55.0" y="480.0" type="qcurve" smooth="yes"/>
      <point x="55.0" y="703.0" type="line"/>
      <point x="37.0" y="685.0" type="line"/>
      <point x="28.0" y="673.0"/>
      <point x="16.0" y="673.0" type="qcurve" smooth="yes"/>
      <point x="-6.0" y="673.0"/>
      <point x="-7.0" y="692.0" type="qcurve"/>
      <point x="-7.0" y="704.0"/>
      <point x="5.0" y="714.0" type="qcurve"/>
      <point x="53.0" y="764.0" type="line"/>
      <point x="66.0" y="775.0"/>
    </contour>
  </outline>
</glyph>
<glyph name="ordmasculine" format="2">
  <advance width="380"/>
  <unicode hex="00BA"/>
  <outline>
    <contour>
      <point x="185.0" y="285.0" type="qcurve" smooth="yes"/>
      <point x="194.0" y="285.0" type="line" smooth="yes"/>
      <point x="228.0" y="285.0"/>
      <point x="249.0" y="301.0"/>
      <point x="249.0" y="333.0" type="qcurve" smooth="yes"/>
      <point x="249.0" y="377.0" type="line" smooth="yes"/>
      <point x="249.0" y="409.0"/>
      <point x="228.0" y="425.0"/>
      <point x="194.0" y="425.0" type="qcurve" smooth="yes"/>
      <point x="185.0" y="425.0" type="line" smooth="yes"/>
      <point x="151.0" y="425.0"/>
      <point x="131.0" y="409.0"/>
      <point x="131.0" y="377.0" type="qcurve" smooth="yes"/>
      <point x="131.0" y="333.0" type="line" smooth="yes"/>
      <point x="131.0" y="301.0"/>
      <point x="151.0" y="285.0"/>
    </contour>
    <contour>
      <point x="185.0" y="244.0" type="line" smooth="yes"/>
      <point x="131.0" y="244.0"/>
      <point x="90.0" y="281.0"/>
      <point x="90.0" y="333.0" type="qcurve" smooth="yes"/>
      <point x="90.0" y="377.0" type="line" smooth="yes"/>
      <point x="90.0" y="429.0"/>
      <point x="132.0" y="466.0"/>
      <point x="185.0" y="466.0" type="qcurve" smooth="yes"/>
      <point x="194.0" y="466.0" type="line" smooth="yes"/>
      <point x="248.0" y="466.0"/>
      <point x="290.0" y="429.0"/>
      <point x="290.0" y="377.0" type="qcurve" smooth="yes"/>
      <point x="290.0" y="333.0" type="line" smooth="yes"/>
      <point x="290.0" y="281.0"/>
      <point x="248.0" y="244.0"/>
      <point x="194.0" y="244.0" type="qcurve" smooth="yes"/>
    </contour>
    <contour>
      <point x="91.0" y="159.0" type="line" smooth="yes"/>
      <point x="65.0" y="159.0"/>
      <point x="65.0" y="204.0"/>
      <point x="91.0" y="204.0" type="qcurve" smooth="yes"/>
      <point x="287.0" y="204.0" type="line" smooth="yes"/>
      <point x="315.0" y="204.0"/>
      <point x="315.0" y="159.0"/>
      <point x="287.0" y="159.0" type="qcurve" smooth="yes"/>
    </contour>
  </outline>
</glyph>
<glyph name="questiondown" format="2">
  <advance width="529"/>
  <unicode hex="00BF"/>
  <outline>
    <contour>
      <point x="333.0" y="433.0"/>
      <point x="298.0" y="409.0"/>
      <point x="265.0" y="409.0"/>
      <point x="230.0" y="433.0"/>
      <point x="230.0" y="467.0"/>
      <point x="264.0" y="491.0"/>
      <point x="298.0" y="491.0"/>
      <point x="333.0" y="467.0"/>
    </contour>
    <contour>
      <point x="255.0" y="285.0" type="line" smooth="yes"/>
      <point x="255.0" y="318.0"/>
      <point x="307.0" y="318.0"/>
      <point x="307.0" y="285.0" type="qcurve" smooth="yes"/>
      <point x="307.0" y="141.0" type="line"/>
      <point x="150.0" y="98.0" type="line" smooth="yes"/>
      <point x="124.0" y="91.0"/>
      <point x="90.0" y="34.0"/>
      <point x="90.0" y="-47.0"/>
      <point x="137.0" y="-118.0"/>
      <point x="187.0" y="-118.0" type="qcurve" smooth="yes"/>
      <point x="281.0" y="-118.0" type="line" smooth="yes"/>
      <point x="367.0" y="-118.0"/>
      <point x="424.0" y="-87.0"/>
      <point x="441.0" y="-35.0"/>
      <point x="441.0" y="41.0"/>
      <point x="494.0" y="41.0"/>
      <point x="494.0" y="-48.0"/>
      <point x="480.0" y="-84.0" type="qcurve" smooth="yes"/>
      <point x="464.0" y="-121.0"/>
      <point x="434.0" y="-139.0" type="qcurve" smooth="yes"/>
      <point x="382.0" y="-170.0"/>
      <point x="281.0" y="-170.0" type="qcurve" smooth="yes"/>
      <point x="205.0" y="-170.0" type="line" smooth="yes"/>
      <point x="117.0" y="-170.0"/>
      <point x="38.0" y="-73.0"/>
      <point x="38.0" y="62.0"/>
      <point x="96.0" y="136.0"/>
      <point x="166.0" y="155.0" type="qcurve" smooth="yes"/>
      <point x="255.0" y="180.0" type="line"/>
    </contour>
  </outline>
</glyph>
<glyph name="AE" format="2">
  <advance width="867"/>
  <unicode hex="00C6"/>
  <outline>
    <contour>
      <point x="452.0" y="332.0" type="line"/>
      <point x="452.0" y="52.0" type="line"/>
      <point x="785.0" y="52.0" type="line" smooth="yes"/>
      <point x="819.0" y="52.0"/>
      <point x="819.0" y="0.0"/>
      <point x="785.0" y="0.0" type="qcurve" smooth="yes"/>
      <point x="424.0" y="0.0" type="line" smooth="yes"/>
      <point x="400.0" y="0.0"/>
      <point x="400.0" y="36.0" type="qcurve" smooth="yes"/>
      <point x="400.0" y="199.0" type="line"/>
      <point x="185.0" y="199.0" type="line"/>
      <point x="62.0" y="7.0" type="line" smooth="yes"/>
      <point x="47.0" y="-16.0"/>
      <point x="9.0" y="-16.0"/>
      <point x="9.0" y="2.0" type="qcurve" smooth="yes"/>
      <point x="9.0" y="12.0"/>
      <point x="17.0" y="25.0" type="qcurve" smooth="yes"/>
      <point x="405.0" y="631.0" type="line" smooth="yes"/>
      <point x="412.0" y="641.0"/>
      <point x="424.0" y="641.0" type="qcurve" smooth="yes"/>
      <point x="785.0" y="641.0" type="line" smooth="yes"/>
      <point x="819.0" y="641.0"/>
      <point x="819.0" y="589.0"/>
      <point x="785.0" y="589.0" type="qcurve" smooth="yes"/>
      <point x="452.0" y="589.0" type="line"/>
      <point x="452.0" y="384.0" type="line"/>
      <point x="666.0" y="384.0" type="line" smooth="yes"/>
      <point x="702.0" y="384.0"/>
      <point x="702.0" y="332.0"/>
      <point x="666.0" y="332.0" type="qcurve" smooth="yes"/>
    </contour>
    <contour>
      <point x="400.0" y="251.0" type="line"/>
      <point x="400.0" y="533.0" type="line"/>
      <point x="219.0" y="251.0" type="line"/>
    </contour>
  </outline>
</glyph>
<glyph name="Ccedilla" format="2">
  <advance width="590"/>
  <unicode hex="00C7"/>
  <outline>
    <contour>
      <point x="283.0" y="0.0" type="qcurve"/>
      <point x="173.0" y="1.0"/>
      <point x="71.0" y="74.0"/>
      <point x="71.0" y="180.0" type="qcurve" smooth="yes"/>
      <point x="71.0" y="466.0" type="line" smooth="yes"/>
      <point x="71.0" y="574.0"/>
      <point x="177.0" y="646.0"/>
      <point x="288.0" y="646.0" type="qcurve" smooth="yes"/>
      <point x="435.0" y="646.0" type="line" smooth="yes"/>
      <point x="519.0" y="646.0"/>
      <point x="532.0" y="575.0" type="qcurve" smooth="yes"/>
      <point x="535.0" y="558.0"/>
      <point x="535.0" y="499.0"/>
      <point x="483.0" y="499.0"/>
      <point x="483.0" y="567.0"/>
      <point x="459.0" y="594.0"/>
      <point x="428.0" y="594.0" type="qcurve" smooth="yes"/>
      <point x="288.0" y="594.0" type="line" smooth="yes"/>
      <point x="198.0" y="594.0"/>
      <point x="140.0" y="561.0"/>
      <point x="123.0" y="509.0"/>
      <point x="123.0" y="466.0" type="qcurve" smooth="yes"/>
      <point x="123.0" y="180.0" type="line" smooth="yes"/>
      <point x="123.0" y="97.0"/>
      <point x="195.0" y="52.0"/>
      <point x="294.0" y="52.0" type="qcurve" smooth="yes"/>
      <point x="428.0" y="52.0" type="line" smooth="yes"/>
      <point x="460.0" y="52.0"/>
      <point x="483.0" y="80.0"/>
      <point x="483.0" y="147.0"/>
      <point x="535.0" y="147.0"/>
      <point x="535.0" y="88.0"/>
      <point x="532.0" y="71.0" type="qcurve"/>
      <point x="530.0" y="54.0"/>
      <point x="520.0" y="36.0" type="qcurve" smooth="yes"/>
      <point x="501.0" y="0.0"/>
      <point x="438.0" y="-0.0" type="qcurve" smooth="yes"/>
      <point x="436.0" y="0.0"/>
      <point x="435.0" y="0.0" type="qcurve" smooth="yes"/>
      <point x="336.0" y="0.0" type="line"/>
      <point x="341.0" y="-22.0"/>
      <point x="363.0" y="-35.0" type="qcurve" smooth="yes"/>
      <point x="404.0" y="-58.0"/>
      <point x="404.0" y="-130.0"/>
      <point x="348.0" y="-175.0"/>
      <point x="283.0" y="-175.0"/>
      <point x="229.0" y="-151.0"/>
      <point x="229.0" y="-107.0"/>
      <point x="244.0" y="-107.0" type="qcurve" smooth="yes"/>
      <point x="250.0" y="-107.0"/>
      <point x="296.0" y="-125.0"/>
      <point x="310.0" y="-125.0" type="qcurve" smooth="yes"/>
      <point x="352.0" y="-125.0"/>
      <point x="352.0" y="-99.0" type="qcurve" smooth="yes"/>
      <point x="352.0" y="-88.0"/>
      <point x="336.0" y="-76.0" type="qcurve" smooth="yes"/>
      <point x="287.0" y="-38.0"/>
    </contour>
  </outline>
</glyph>
<glyph name="Eth" format="2">
  <advance width="620"/>
  <unicode hex="00D0"/>
  <outline>
    <contour>
      <point x="496.0" y="180.0" type="qcurve" smooth="yes"/>
      <point x="496.0" y="456.0" type="line" smooth="yes"/>
      <point x="496.0" y="538.0"/>
      <point x="426.0" y="584.0"/>
      <point x="332.0" y="584.0" type="qcurve" smooth="yes"/>
      <point x="136.0" y="584.0" type="line"/>
      <point x="136.0" y="351.0" type="line"/>
      <point x="240.0" y="351.0" type="line" smooth="yes"/>
      <point x="274.0" y="351.0"/>
      <point x="274.0" y="298.0"/>
      <point x="240.0" y="298.0" type="qcurve" smooth="yes"/>
      <point x="136.0" y="298.0" type="line"/>
      <point x="136.0" y="52.0" type="line"/>
      <point x="326.0" y="52.0" type="line" smooth="yes"/>
      <point x="424.0" y="52.0"/>
      <point x="496.0" y="97.0"/>
    </contour>
    <contour>
      <point x="548.0" y="456.0" type="qcurve" smooth="yes"/>
      <point x="548.0" y="180.0" type="line" smooth="yes"/>
      <point x="548.0" y="72.0"/>
      <point x="441.0" y="0.0"/>
      <point x="326.0" y="0.0" type="qcurve" smooth="yes"/>
      <point x="108.0" y="0.0" type="line" smooth="yes"/>
      <point x="84.0" y="0.0"/>
      <point x="84.0" y="36.0" type="qcurve" smooth="yes"/>
      <point x="84.0" y="298.0" type="line"/>
      <point x="52.0" y="298.0"/>
      <point x="52.0" y="351.0"/>
      <point x="84.0" y="351.0" type="qcurve"/>
      <point x="84.0" y="600.0" type="line" smooth="yes"/>
      <point x="84.0" y="636.0"/>
      <point x="108.0" y="636.0" type="qcurve" smooth="yes"/>
      <point x="332.0" y="636.0" type="line" smooth="yes"/>
      <point x="437.0" y="636.0"/>
      <point x="519.0" y="585.0"/>
      <point x="548.0" y="512.0"/>
    </contour>
  </outline>
</glyph>
<glyph name="multiply" format="2">
  <advance width="493"/>
  <unicode hex="00D7"/>
  <outline>
    <contour>
      <point x="83.0" y="358.0" type="line" smooth="yes"/>
      <point x="71.0" y="370.0"/>
      <point x="71.0" y="391.0"/>
      <point x="85.0" y="406.0"/>
      <point x="107.0" y="406.0"/>
      <point x="119.0" y="394.0" type="qcurve" smooth="yes"/>
      <point x="246.0" y="266.0" type="line"/>
      <point x="374.0" y="393.0" type="line" smooth="yes"/>
      <point x="386.0" y="405.0"/>
      <point x="407.0" y="405.0"/>
      <point x="422.0" y="391.0"/>
      <point x="422.0" y="369.0"/>
      <point x="410.0" y="357.0" type="qcurve" smooth="yes"/>
      <point x="282.0" y="230.0" type="line"/>
      <point x="409.0" y="102.0" type="line"/>
      <point x="422.0" y="91.0"/>
      <point x="422.0" y="69.0"/>
      <point x="407.0" y="54.0"/>
      <point x="385.0" y="54.0"/>
      <point x="373.0" y="66.0" type="qcurve" smooth="yes"/>
      <point x="246.0" y="194.0" type="line"/>
      <point x="118.0" y="67.0" type="line"/>
      <point x="107.0" y="54.0"/>
      <point x="85.0" y="54.0"/>
      <point x="70.0" y="69.0"/>
      <point x="70.0" y="91.0"/>
      <point x="82.0" y="103.0" type="qcurve" smooth="yes"/>
      <point x="210.0" y="230.0" type="line"/>
    </contour>
  </outline>
</glyph>
<glyph name="Oslash" format="2">
  <advance width="594"/>
  <unicode hex="00D8"/>
  <outline>
    <contour>
      <point x="415.0" y="558.0" type="line"/>
      <point x="368.0" y="593.0"/>
      <point x="211.0" y="593.0"/>
      <point x="117.0" y="493.0"/>
      <point x="117.0" y="404.0" type="qcurve" smooth="yes"/>
      <point x="117.0" y="222.0" type="line" smooth="yes"/>
      <point x="117.0" y="152.0"/>
      <point x="145.0" y="108.0" type="qcurve"/>
    </contour>
    <contour>
      <point x="450.0" y="619.0" type="line"/>
      <point x="458.0" y="638.0"/>
      <point x="470.0" y="638.0" type="qcurve" smooth="yes"/>
      <point x="500.0" y="638.0"/>
      <point x="501.0" y="613.0" type="qcurve" smooth="yes"/>
      <point x="501.0" y="605.0"/>
      <point x="495.0" y="593.0" type="qcurve"/>
      <point x="478.0" y="566.0" type="line"/>
      <point x="529.0" y="504.0"/>
      <point x="529.0" y="408.0" type="qcurve" smooth="yes"/>
      <point x="529.0" y="228.0" type="line" smooth="yes"/>
      <point x="529.0" y="118.0"/>
      <point x="399.0" y="-9.0"/>
      <point x="212.0" y="-9.0"/>
      <point x="156.0" y="33.0" type="qcurve"/>
      <point x="146.0" y="17.0" type="line"/>
      <point x="136.0" y="-2.0"/>
      <point x="124.0" y="-2.0" type="qcurve" smooth="yes"/>
      <point x="95.0" y="-2.0"/>
      <point x="95.0" y="20.0" type="qcurve" smooth="yes"/>
      <point x="95.0" y="21.0"/>
      <point x="95.0" y="22.0" type="qcurve" smooth="yes"/>
      <point x="95.0" y="31.0"/>
      <point x="101.0" y="43.0" type="qcurve"/>
      <point x="116.0" y="68.0" type="line"/>
      <point x="65.0" y="130.0"/>
      <point x="65.0" y="228.0" type="qcurve" smooth="yes"/>
      <point x="65.0" y="408.0" type="line" smooth="yes"/>
      <point x="65.0" y="519.0"/>
      <point x="195.0" y="645.0"/>
      <point x="384.0" y="645.0"/>
      <point x="440.0" y="602.0" type="qcurve"/>
    </contour>
    <contour>
      <point x="477.0" y="414.0" type="line" smooth="yes"/>
      <point x="477.0" y="483.0"/>
      <point x="450.0" y="526.0" type="qcurve"/>
      <point x="180.0" y="77.0" type="line"/>
      <point x="226.0" y="43.0"/>
      <point x="383.0" y="43.0"/>
      <point x="477.0" y="142.0"/>
      <point x="477.0" y="232.0" type="qcurve" smooth="yes"/>
    </contour>
  </outline>
</glyph>
<glyph name="Thorn" format="2">
  <advance width="520"/>
  <unicode hex="00DE"/>
  <outline>
    <contour>
      <point x="136.0" y="466.0" type="line"/>
      <point x="311.0" y="466.0" type="line" smooth="yes"/>
      <point x="393.0" y="466.0"/>
      <point x="485.0" y="388.0"/>
      <point x="485.0" y="238.0"/>
      <point x="392.0" y="159.0"/>
      <point x="310.0" y="159.0" type="qcurve" smooth="yes"/>
      <point x="136.0" y="159.0" type="line"/>
      <point x="136.0" y="25.0" type="line" smooth="yes"/>
      <point x="136.0" y="-7.0"/>
      <point x="84.0" y="-7.0"/>
      <point x="84.0" y="25.0" type="qcurve" smooth="yes"/>
      <point x="84.0" y="573.0" type="line" smooth="yes"/>
      <point x="84.0" y="606.0"/>
      <point x="136.0" y="606.0"/>
      <point x="136.0" y="573.0" type="qcurve" smooth="yes"/>
    </contour>
    <contour>
      <point x="266.0" y="414.0" type="qcurve" smooth="yes"/>
      <point x="136.0" y="414.0" type="line"/>
      <point x="136.0" y="208.0" type="line"/>
      <point x="265.0" y="208.0" type="line" smooth="yes"/>
      <point x="359.0" y="208.0"/>
      <point x="432.0" y="247.0"/>
      <point x="432.0" y="373.0"/>
      <point x="359.0" y="414.0"/>
    </contour>
  </outline>
</glyph>
<glyph name="germandbls" format="2">
  <advance width="464"/>
  <unicode hex="00DF"/>
  <outline>
    <contour>
      <point x="208.0" y="93.0" type="qcurve" smooth="yes"/>
      <point x="208.0" y="32.0"/>
      <point x="284.0" y="32.0" type="qcurve" smooth="yes"/>
      <point x="320.0" y="32.0"/>
      <point x="374.0" y="103.0"/>
      <point x="374.0" y="197.0" type="qcurve" smooth="yes"/>
      <point x="374.0" y="252.0"/>
      <point x="344.0" y="288.0" type="qcurve" smooth="yes"/>
      <point x="288.0" y="353.0"/>
      <point x="163.0" y="353.0" type="qcurve"/>
      <point x="163.0" y="404.0" type="line"/>
      <point x="276.0" y="404.0"/>
      <point x="300.0" y="483.0" type="qcurve" smooth="yes"/>
      <point x="306.0" y="501.0"/>
      <point x="306.0" y="550.0"/>
      <point x="263.0" y="584.0"/>
      <point x="167.0" y="584.0"/>
      <point x="115.0" y="539.0"/>
      <point x="115.0" y="461.0" type="qcurve" smooth="yes"/>
      <point x="115.0" y="29.0" type="line" smooth="yes"/>
      <point x="115.0" y="-7.0"/>
      <point x="63.0" y="-7.0"/>
      <point x="63.0" y="29.0" type="qcurve" smooth="yes"/>
      <point x="63.0" y="410.0" type="line"/>
      <point x="32.0" y="412.0"/>
      <point x="32.0" y="459.0"/>
      <point x="63.0" y="461.0" type="qcurve"/>
      <point x="66.0" y="604.0"/>
      <point x="167.0" y="630.0" type="qcurve" smooth="yes"/>
      <point x="192.0" y="636.0"/>
      <point x="289.0" y="636.0"/>
      <point x="358.0" y="567.0"/>
      <point x="358.0" y="520.0" type="qcurve" smooth="yes"/>
      <point x="358.0" y="431.0"/>
      <point x="284.0" y="383.0" type="qcurve"/>
      <point x="426.0" y="342.0"/>
      <point x="426.0" y="196.0" type="qcurve" smooth="yes"/>
      <point x="426.0" y="79.0"/>
      <point x="337.0" y="-20.0"/>
      <point x="231.0" y="-20.0"/>
      <point x="152.0" y="38.0"/>
      <point x="152.0" y="127.0"/>
      <point x="208.0" y="127.0"/>
    </contour>
  </outline>
</glyph>
<glyph name="ae" format="2">
  <advance width="944"/>
  <unicode hex="00E6"/>
  <outline>
    <contour>
      <point x="260.0" y="52.0" type="line" smooth="yes"/>
      <point x="430.0" y="52.0"/>
      <point x="430.0" y="228.0" type="qcurve" smooth="yes"/>
      <point x="430.0" y="243.0" type="line"/>
      <point x="283.0" y="243.0" type="line" smooth="yes"/>
      <point x="190.0" y="243.0"/>
      <point x="129.0" y="211.0"/>
      <point x="112.0" y="161.0"/>
      <point x="112.0" y="92.0"/>
      <point x="146.0" y="52.0"/>
      <point x="167.0" y="52.0" type="qcurve" smooth="yes"/>
    </contour>
    <contour>
      <point x="662.0" y="409.0" type="qcurve" smooth="yes"/>
      <point x="654.0" y="409.0" type="line" smooth="yes"/>
      <point x="558.0" y="409.0"/>
      <point x="484.0" y="367.0"/>
      <point x="483.0" y="295.0" type="qcurve"/>
      <point x="832.0" y="295.0" type="line"/>
      <point x="831.0" y="367.0"/>
      <point x="757.0" y="409.0"/>
    </contour>
    <contour>
      <point x="60.0" y="349.0" type="qcurve" smooth="yes"/>
      <point x="60.0" y="461.0"/>
      <point x="227.0" y="461.0" type="qcurve" smooth="yes"/>
      <point x="382.0" y="461.0" type="line" smooth="yes"/>
      <point x="453.0" y="461.0"/>
      <point x="472.0" y="414.0" type="qcurve"/>
      <point x="518.0" y="461.0"/>
      <point x="654.0" y="461.0" type="qcurve" smooth="yes"/>
      <point x="662.0" y="461.0" type="line" smooth="yes"/>
      <point x="777.0" y="461.0"/>
      <point x="884.0" y="390.0"/>
      <point x="884.0" y="285.0" type="qcurve" smooth="yes"/>
      <point x="884.0" y="243.0" type="line"/>
      <point x="483.0" y="243.0" type="line"/>
      <point x="483.0" y="177.0" type="line" smooth="yes"/>
      <point x="483.0" y="94.0"/>
      <point x="524.0" y="72.0" type="qcurve" smooth="yes"/>
      <point x="561.0" y="52.0"/>
      <point x="654.0" y="52.0" type="qcurve" smooth="yes"/>
      <point x="777.0" y="52.0" type="line" smooth="yes"/>
      <point x="809.0" y="52.0"/>
      <point x="832.0" y="80.0"/>
      <point x="832.0" y="147.0"/>
      <point x="884.0" y="147.0"/>
      <point x="884.0" y="88.0"/>
      <point x="878.0" y="54.0"/>
      <point x="868.0" y="36.0" type="qcurve" smooth="yes"/>
      <point x="848.0" y="0.0"/>
      <point x="784.0" y="0.0" type="qcurve" smooth="yes"/>
      <point x="654.0" y="0.0" type="line" smooth="yes"/>
      <point x="571.0" y="0.0"/>
      <point x="472.0" y="33.0"/>
      <point x="449.0" y="78.0" type="qcurve"/>
      <point x="422.0" y="42.0"/>
      <point x="309.0" y="0.0"/>
      <point x="260.0" y="0.0" type="qcurve" smooth="yes"/>
      <point x="167.0" y="0.0" type="line" smooth="yes"/>
      <point x="120.0" y="0.0"/>
      <point x="60.0" y="67.0"/>
      <point x="60.0" y="123.0" type="qcurve" smooth="yes"/>
      <point x="60.0" y="224.0"/>
      <point x="169.0" y="295.0"/>
      <point x="283.0" y="295.0" type="qcurve" smooth="yes"/>
      <point x="430.0" y="295.0" type="line"/>
      <point x="430.0" y="352.0" type="line" smooth="yes"/>
      <point x="430.0" y="383.0"/>
      <point x="407.0" y="409.0"/>
      <point x="375.0" y="409.0" type="qcurve" smooth="yes"/>
      <point x="234.0" y="409.0" type="line" smooth="yes"/>
      <point x="112.0" y="409.0"/>
      <point x="112.0" y="349.0" type="qcurve" smooth="yes"/>
      <point x="112.0" y="314.0"/>
      <point x="60.0" y="314.0"/>
    </contour>
  </outline>
</glyph>
<glyph name="ccedilla" format="2">
  <advance width="584"/>
  <unicode hex="00E7"/>
  <outline>
    <contour>
      <point x="268.0" y="0.0" type="qcurve"/>
      <point x="162.0" y="2.0"/>
      <point x="62.0" y="75.0"/>
      <point x="62.0" y="176.0" type="qcurve" smooth="yes"/>
      <point x="62.0" y="285.0" type="line" smooth="yes"/>
      <point x="62.0" y="390.0"/>
      <point x="170.0" y="461.0"/>
      <point x="285.0" y="461.0" type="qcurve" smooth="yes"/>
      <point x="426.0" y="461.0" type="line" smooth="yes"/>
      <point x="510.0" y="461.0"/>
      <point x="523.0" y="389.0" type="qcurve" smooth="yes"/>
      <point x="526.0" y="372.0"/>
      <point x="526.0" y="314.0"/>
      <point x="474.0" y="314.0"/>
      <point x="474.0" y="382.0"/>
      <point x="450.0" y="409.0"/>
      <point x="419.0" y="409.0" type="qcurve" smooth="yes"/>
      <point x="285.0" y="409.0" type="line" smooth="yes"/>
      <point x="192.0" y="409.0"/>
      <point x="131.0" y="377.0"/>
      <point x="114.0" y="327.0"/>
      <point x="114.0" y="284.0" type="qcurve" smooth="yes"/>
      <point x="114.0" y="177.0" type="line" smooth="yes"/>
      <point x="114.0" y="94.0"/>
      <point x="155.0" y="72.0" type="qcurve" smooth="yes"/>
      <point x="192.0" y="52.0"/>
      <point x="285.0" y="52.0" type="qcurve" smooth="yes"/>
      <point x="419.0" y="52.0" type="line" smooth="yes"/>
      <point x="451.0" y="52.0"/>
      <point x="474.0" y="80.0"/>
      <point x="474.0" y="147.0"/>
      <point x="526.0" y="147.0"/>
      <point x="526.0" y="88.0"/>
      <point x="520.0" y="54.0"/>
      <point x="510.0" y="36.0" type="qcurve" smooth="yes"/>
      <point x="491.0" y="0.0"/>
      <point x="429.0" y="-0.0" type="qcurve" smooth="yes"/>
      <point x="427.0" y="0.0"/>
      <point x="426.0" y="0.0" type="qcurve" smooth="yes"/>
      <point x="321.0" y="0.0" type="line"/>
      <point x="326.0" y="-22.0"/>
      <point x="348.0" y="-35.0" type="qcurve" smooth="yes"/>
      <point x="389.0" y="-58.0"/>
      <point x="389.0" y="-130.0"/>
      <point x="333.0" y="-175.0"/>
      <point x="268.0" y="-175.0"/>
      <point x="214.0" y="-151.0"/>
      <point x="214.0" y="-107.0"/>
      <point x="229.0" y="-107.0" type="qcurve" smooth="yes"/>
      <point x="235.0" y="-107.0"/>
      <point x="281.0" y="-125.0"/>
      <point x="295.0" y="-125.0" type="qcurve" smooth="yes"/>
      <point x="337.0" y="-125.0"/>
      <point x="337.0" y="-99.0" type="qcurve" smooth="yes"/>
      <point x="337.0" y="-88.0"/>
      <point x="321.0" y="-76.0" type="qcurve" smooth="yes"/>
      <point x="272.0" y="-38.0"/>
    </contour>
  </outline>
</glyph>
<glyph name="eth" format="2">
  <advance width="566"/>
  <unicode hex="00F0"/>
  <outline>
    <contour>
      <point x="245.0" y="568.0" type="line"/>
      <point x="201.0" y="583.0"/>
      <point x="122.0" y="583.0"/>
      <point x="122.0" y="636.0"/>
      <point x="153.0" y="636.0" type="qcurve" smooth="yes"/>
      <point x="224.0" y="636.0"/>
      <point x="288.0" y="610.0" type="qcurve"/>
      <point x="321.0" y="642.0" type="line"/>
      <point x="335.0" y="654.0"/>
      <point x="356.0" y="654.0"/>
      <point x="373.0" y="640.0"/>
      <point x="373.0" y="618.0"/>
      <point x="360.0" y="605.0" type="qcurve" smooth="yes"/>
      <point x="339.0" y="585.0" type="line"/>
      <point x="511.0" y="479.0"/>
      <point x="511.0" y="222.0" type="qcurve" smooth="yes"/>
      <point x="511.0" y="124.0"/>
      <point x="395.0" y="-16.0"/>
      <point x="185.0" y="-16.0"/>
      <point x="47.0" y="110.0"/>
      <point x="47.0" y="331.0"/>
      <point x="185.0" y="456.0"/>
      <point x="371.0" y="456.0"/>
      <point x="421.0" y="417.0" type="qcurve"/>
      <point x="380.0" y="504.0"/>
      <point x="299.0" y="546.0" type="qcurve"/>
      <point x="249.0" y="499.0" type="line" smooth="yes"/>
      <point x="237.0" y="487.0"/>
      <point x="216.0" y="487.0"/>
      <point x="197.0" y="502.0"/>
      <point x="197.0" y="522.0"/>
      <point x="211.0" y="536.0" type="qcurve" smooth="yes"/>
    </contour>
    <contour>
      <point x="375.0" y="36.0"/>
      <point x="459.0" y="152.0"/>
      <point x="459.0" y="297.0"/>
      <point x="377.0" y="404.0"/>
      <point x="205.0" y="404.0"/>
      <point x="99.0" y="301.0"/>
      <point x="99.0" y="139.0"/>
      <point x="205.0" y="36.0"/>
    </contour>
  </outline>
</glyph>
<glyph name="divide" format="2">
  <advance width="439"/>
  <unicode hex="00F7"/>
  <outline>
    <contour>
      <point x="340.0" y="257.0" type="line" smooth="yes"/>
      <point x="374.0" y="257.0"/>
      <point x="374.0" y="204.0"/>
      <point x="340.0" y="204.0" type="qcurve" smooth="yes"/>
      <point x="95.0" y="204.0" type="line" smooth="yes"/>
      <point x="64.0" y="204.0"/>
      <point x="64.0" y="257.0"/>
      <point x="95.0" y="257.0" type="qcurve" smooth="yes"/>
    </contour>
    <contour>
      <point x="164.0" y="145.0"/>
      <point x="198.0" y="169.0"/>
      <point x="231.0" y="169.0"/>
      <point x="266.0" y="145.0"/>
      <point x="266.0" y="111.0"/>
      <point x="231.0" y="87.0"/>
      <point x="198.0" y="87.0"/>
      <point x="164.0" y="111.0"/>
    </contour>
    <contour>
      <point x="164.0" y="350.0"/>
      <point x="198.0" y="374.0"/>
      <point x="231.0" y="374.0"/>
      <point x="266.0" y="350.0"/>
      <point x="266.0" y="316.0"/>
      <point x="231.0" y="292.0"/>
      <point x="198.0" y="292.0"/>
      <point x="164.0" y="316.0"/>
    </contour>
  </outline>
</glyph>
<glyph name="oslash" format="2">
  <advance width="598"/>
  <unicode hex="00F8"/>
  <outline>
    <contour>
      <point x="457.0" y="440.0" type="qcurve"/>
      <point x="478.0" y="469.0"/>
      <point x="490.0" y="469.0" type="qcurve" smooth="yes"/>
      <point x="518.0" y="469.0"/>
      <point x="518.0" y="444.0" type="qcurve" smooth="yes"/>
      <point x="518.0" y="432.0"/>
      <point x="499.0" y="411.0" type="qcurve"/>
      <point x="536.0" y="369.0"/>
      <point x="536.0" y="285.0" type="qcurve" smooth="yes"/>
      <point x="536.0" y="176.0" type="line" smooth="yes"/>
      <point x="536.0" y="71.0"/>
      <point x="429.0" y="0.0"/>
      <point x="314.0" y="0.0" type="qcurve" smooth="yes"/>
      <point x="285.0" y="0.0" type="line" smooth="yes"/>
      <point x="189.0" y="0.0"/>
      <point x="143.0" y="19.0" type="qcurve"/>
      <point x="118.0" y="-8.0"/>
      <point x="98.0" y="-8.0"/>
      <point x="81.0" y="7.0"/>
      <point x="81.0" y="28.0"/>
      <point x="100.0" y="49.0" type="qcurve"/>
      <point x="62.0" y="92.0"/>
      <point x="62.0" y="176.0" type="qcurve" smooth="yes"/>
      <point x="62.0" y="285.0" type="line" smooth="yes"/>
      <point x="62.0" y="390.0"/>
      <point x="170.0" y="461.0"/>
      <point x="285.0" y="461.0" type="qcurve" smooth="yes"/>
      <point x="314.0" y="461.0" type="line" smooth="yes"/>
      <point x="413.0" y="461.0"/>
    </contour>
    <contour>
      <point x="285.0" y="52.0" type="qcurve" smooth="yes"/>
      <point x="314.0" y="52.0" type="line" smooth="yes"/>
      <point x="412.0" y="52.0"/>
      <point x="484.0" y="97.0"/>
      <point x="484.0" y="180.0" type="qcurve" smooth="yes"/>
      <point x="484.0" y="291.0" type="line" smooth="yes"/>
      <point x="484.0" y="352.0"/>
      <point x="465.0" y="380.0" type="qcurve"/>
      <point x="178.0" y="61.0" type="line"/>
      <point x="211.0" y="52.0"/>
    </contour>
    <contour>
      <point x="114.0" y="170.0" type="line" smooth="yes"/>
      <point x="114.0" y="109.0"/>
      <point x="134.0" y="80.0" type="qcurve"/>
      <point x="421.0" y="400.0" type="line"/>
      <point x="388.0" y="409.0"/>
      <point x="314.0" y="409.0" type="qcurve" smooth="yes"/>
      <point x="285.0" y="409.0" type="line" smooth="yes"/>
      <point x="186.0" y="409.0"/>
      <point x="114.0" y="364.0"/>
      <point x="114.0" y="281.0" type="qcurve" smooth="yes"/>
    </contour>
  </outline>
</glyph>
<glyph name="thorn" format="2">
  <advance width="611"/>
  <unicode hex="00FE"/>
  <outline>
    <contour>
      <point x="497.0" y="284.0" type="line" smooth="yes"/>
      <point x="496.0" y="368.0"/>
      <point x="456.0" y="390.0" type="qcurve" smooth="yes"/>
      <point x="421.0" y="409.0"/>
      <point x="336.0" y="409.0" type="qcurve" smooth="yes"/>
      <point x="332.0" y="409.0"/>
      <point x="327.0" y="409.0" type="qcurve" smooth="yes"/>
      <point x="298.0" y="409.0" type="line" smooth="yes"/>
      <point x="127.0" y="409.0"/>
      <point x="127.0" y="232.0" type="qcurve" smooth="yes"/>
      <point x="127.0" y="52.0" type="line"/>
      <point x="328.0" y="52.0" type="line" smooth="yes"/>
      <point x="426.0" y="52.0"/>
      <point x="497.0" y="96.0"/>
      <point x="497.0" y="177.0" type="qcurve" smooth="yes"/>
    </contour>
    <contour>
      <point x="549.0" y="176.0" type="line" smooth="yes"/>
      <point x="549.0" y="71.0"/>
      <point x="442.0" y="0.0"/>
      <point x="328.0" y="0.0" type="qcurve" smooth="yes"/>
      <point x="127.0" y="0.0" type="line"/>
      <point x="127.0" y="-147.0" type="line" smooth="yes"/>
      <point x="127.0" y="-182.0"/>
      <point x="75.0" y="-182.0"/>
      <point x="75.0" y="-147.0" type="qcurve" smooth="yes"/>
      <point x="75.0" y="608.0" type="line" smooth="yes"/>
      <point x="75.0" y="643.0"/>
      <point x="127.0" y="643.0"/>
      <point x="127.0" y="608.0" type="qcurve" smooth="yes"/>
      <point x="127.0" y="398.0" type="line"/>
      <point x="186.0" y="461.0"/>
      <point x="298.0" y="461.0" type="qcurve" smooth="yes"/>
      <point x="327.0" y="461.0" type="line" smooth="yes"/>
      <point x="442.0" y="461.0"/>
      <point x="549.0" y="390.0"/>
      <point x="549.0" y="285.0" type="qcurve" smooth="yes"/>
    </contour>
  </outline>
</glyph>
<glyph name="Aogonek" format="2">
  <advance width="569"/>
  <unicode hex="0104"/>
  <outline>
    <contour>
      <point x="284.0" y="560.0" type="line"/>
      <point x="168.0" y="251.0" type="line"/>
      <point x="402.0" y="251.0" type="line"/>
    </contour>
    <contour>
      <point x="50.0" y="-16.0" type="qcurve" smooth="yes"/>
      <point x="24.0" y="-16.0"/>
      <point x="24.0" y="9.0" type="qcurve" smooth="yes"/>
      <point x="24.0" y="16.0"/>
      <point x="27.0" y="25.0" type="qcurve" smooth="yes"/>
      <point x="258.0" y="646.0" type="line"/>
      <point x="312.0" y="646.0" type="line"/>
      <point x="543.0" y="25.0" type="line" smooth="yes"/>
      <point x="546.0" y="16.0"/>
      <point x="546.0" y="-1.0"/>
      <point x="515.0" y="-31.0"/>
      <point x="485.0" y="-89.0"/>
      <point x="485.0" y="-101.0" type="qcurve" smooth="yes"/>
      <point x="485.0" y="-155.0"/>
      <point x="527.0" y="-155.0" type="qcurve" smooth="yes"/>
      <point x="543.0" y="-155.0"/>
      <point x="587.0" y="-138.0"/>
      <point x="593.0" y="-138.0" type="qcurve" smooth="yes"/>
      <point x="608.0" y="-138.0"/>
      <point x="608.0" y="-181.0"/>
      <point x="554.0" y="-205.0"/>
      <point x="488.0" y="-205.0"/>
      <point x="433.0" y="-147.0"/>
      <point x="433.0" y="-58.0"/>
      <point x="491.0" y="13.0" type="qcurve"/>
      <point x="422.0" y="199.0" type="line"/>
      <point x="148.0" y="199.0" type="line"/>
      <point x="77.0" y="7.0" type="line"/>
      <point x="67.0" y="-16.0"/>
    </contour>
  </outline>
</glyph>
<glyph name="aogonek" format="2">
  <advance width="554"/>
  <unicode hex="0105"/>
  <outline>
    <contour>
      <point x="430.0" y="29.0" type="qcurve"/>
      <point x="430.0" y="63.0" type="line"/>
      <point x="373.0" y="0.0"/>
      <point x="260.0" y="0.0" type="qcurve" smooth="yes"/>
      <point x="167.0" y="0.0" type="line" smooth="yes"/>
      <point x="120.0" y="0.0"/>
      <point x="60.0" y="67.0"/>
      <point x="60.0" y="123.0" type="qcurve" smooth="yes"/>
      <point x="60.0" y="224.0"/>
      <point x="169.0" y="295.0"/>
      <point x="283.0" y="295.0" type="qcurve" smooth="yes"/>
      <point x="430.0" y="295.0" type="line"/>
      <point x="430.0" y="352.0" type="line" smooth="yes"/>
      <point x="430.0" y="383.0"/>
      <point x="407.0" y="409.0"/>
      <point x="375.0" y="409.0" type="qcurve" smooth="yes"/>
      <point x="234.0" y="409.0" type="line" smooth="yes"/>
      <point x="112.0" y="409.0"/>
      <point x="112.0" y="349.0" type="qcurve" smooth="yes"/>
      <point x="112.0" y="314.0"/>
      <point x="60.0" y="314.0"/>
      <point x="60.0" y="349.0" type="qcurve" smooth="yes"/>
      <point x="60.0" y="461.0"/>
      <point x="227.0" y="461.0" type="qcurve" smooth="yes"/>
      <point x="382.0" y="461.0" type="line" smooth="yes"/>
      <point x="440.0" y="461.0"/>
      <point x="482.0" y="405.0"/>
      <point x="482.0" y="335.0" type="qcurve" smooth="yes"/>
      <point x="482.0" y="27.0" type="line" smooth="yes"/>
      <point x="482.0" y="4.0"/>
      <point x="446.0" y="-18.0"/>
      <point x="412.0" y="-84.0"/>
      <point x="412.0" y="-100.0" type="qcurve" smooth="yes"/>
      <point x="412.0" y="-154.0"/>
      <point x="454.0" y="-154.0" type="qcurve" smooth="yes"/>
      <point x="470.0" y="-154.0"/>
      <point x="514.0" y="-137.0"/>
      <point x="520.0" y="-137.0" type="qcurve" smooth="yes"/>
      <point x="535.0" y="-137.0"/>
      <point x="535.0" y="-180.0"/>
      <point x="481.0" y="-204.0"/>
      <point x="415.0" y="-204.0"/>
      <point x="360.0" y="-146.0"/>
      <point x="360.0" y="-52.0"/>
    </contour>
    <contour>
      <point x="260.0" y="52.0" type="line" smooth="yes"/>
      <point x="430.0" y="52.0"/>
      <point x="430.0" y="228.0" type="qcurve" smooth="yes"/>
      <point x="430.0" y="243.0" type="line"/>
      <point x="283.0" y="243.0" type="line" smooth="yes"/>
      <point x="190.0" y="243.0"/>
      <point x="129.0" y="211.0"/>
      <point x="112.0" y="161.0"/>
      <point x="112.0" y="92.0"/>
      <point x="146.0" y="52.0"/>
      <point x="167.0" y="52.0" type="qcurve" smooth="yes"/>
    </contour>
  </outline>
</glyph>
<glyph name="Eogonek" format="2">
  <advance width="597"/>
  <unicode hex="0118"/>
  <outline>
    <contour>
      <point x="136.0" y="332.0" type="line"/>
      <point x="136.0" y="52.0" type="line"/>
      <point x="514.0" y="52.0" type="line" smooth="yes"/>
      <point x="548.0" y="52.0"/>
      <point x="548.0" y="0.0"/>
      <point x="514.0" y="0.0" type="qcurve" smooth="yes"/>
      <point x="347.0" y="0.0" type="line"/>
      <point x="323.0" y="-16.0"/>
      <point x="283.0" y="-85.0"/>
      <point x="283.0" y="-101.0" type="qcurve" smooth="yes"/>
      <point x="283.0" y="-155.0"/>
      <point x="325.0" y="-155.0" type="qcurve" smooth="yes"/>
      <point x="341.0" y="-155.0"/>
      <point x="385.0" y="-138.0"/>
      <point x="391.0" y="-138.0" type="qcurve" smooth="yes"/>
      <point x="406.0" y="-138.0"/>
      <point x="406.0" y="-182.0"/>
      <point x="352.0" y="-205.0"/>
      <point x="286.0" y="-205.0"/>
      <point x="258.0" y="-176.0" type="qcurve" smooth="yes"/>
      <point x="231.0" y="-148.0"/>
      <point x="231.0" y="-64.0"/>
      <point x="279.0" y="0.0" type="qcurve"/>
      <point x="108.0" y="0.0" type="line" smooth="yes"/>
      <point x="84.0" y="0.0"/>
      <point x="84.0" y="36.0" type="qcurve" smooth="yes"/>
      <point x="84.0" y="605.0" type="line" smooth="yes"/>
      <point x="84.0" y="641.0"/>
      <point x="108.0" y="641.0" type="qcurve" smooth="yes"/>
      <point x="514.0" y="641.0" type="line" smooth="yes"/>
      <point x="548.0" y="641.0"/>
      <point x="548.0" y="589.0"/>
      <point x="514.0" y="589.0" type="qcurve" smooth="yes"/>
      <point x="136.0" y="589.0" type="line"/>
      <point x="136.0" y="384.0" type="line"/>
      <point x="395.0" y="384.0" type="line" smooth="yes"/>
      <point x="431.0" y="384.0"/>
      <point x="431.0" y="332.0"/>
      <point x="395.0" y="332.0" type="qcurve" smooth="yes"/>
    </contour>
  </outline>
</glyph>
<glyph name="eogonek" format="2">
  <advance width="592"/>
  <unicode hex="0119"/>
  <outline>
    <contour>
      <point x="314.0" y="409.0" type="qcurve" smooth="yes"/>
      <point x="285.0" y="409.0" type="line" smooth="yes"/>
      <point x="188.0" y="409.0"/>
      <point x="115.0" y="368.0"/>
      <point x="114.0" y="297.0" type="qcurve"/>
      <point x="484.0" y="297.0" type="line"/>
      <point x="483.0" y="368.0"/>
      <point x="410.0" y="409.0"/>
    </contour>
    <contour>
      <point x="536.0" y="285.0" type="qcurve" smooth="yes"/>
      <point x="536.0" y="245.0" type="line"/>
      <point x="114.0" y="245.0" type="line"/>
      <point x="114.0" y="177.0" type="line" smooth="yes"/>
      <point x="114.0" y="94.0"/>
      <point x="155.0" y="72.0" type="qcurve" smooth="yes"/>
      <point x="192.0" y="52.0"/>
      <point x="285.0" y="52.0" type="qcurve" smooth="yes"/>
      <point x="419.0" y="52.0" type="line" smooth="yes"/>
      <point x="451.0" y="52.0"/>
      <point x="474.0" y="80.0"/>
      <point x="474.0" y="147.0"/>
      <point x="526.0" y="147.0"/>
      <point x="526.0" y="88.0"/>
      <point x="520.0" y="54.0"/>
      <point x="510.0" y="36.0" type="qcurve" smooth="yes"/>
      <point x="491.0" y="0.0"/>
      <point x="429.0" y="-0.0" type="qcurve" smooth="yes"/>
      <point x="427.0" y="0.0"/>
      <point x="426.0" y="0.0" type="qcurve" smooth="yes"/>
      <point x="377.0" y="0.0" type="line"/>
      <point x="353.0" y="-16.0"/>
      <point x="313.0" y="-85.0"/>
      <point x="313.0" y="-101.0" type="qcurve" smooth="yes"/>
      <point x="313.0" y="-155.0"/>
      <point x="355.0" y="-155.0" type="qcurve" smooth="yes"/>
      <point x="371.0" y="-155.0"/>
      <point x="415.0" y="-138.0"/>
      <point x="421.0" y="-138.0" type="qcurve" smooth="yes"/>
      <point x="436.0" y="-138.0"/>
      <point x="436.0" y="-181.0"/>
      <point x="382.0" y="-205.0"/>
      <point x="316.0" y="-205.0"/>
      <point x="261.0" y="-147.0"/>
      <point x="261.0" y="-64.0"/>
      <point x="309.0" y="0.0" type="qcurve"/>
      <point x="285.0" y="0.0" type="line" smooth="yes"/>
      <point x="170.0" y="0.0"/>
      <point x="62.0" y="71.0"/>
      <point x="62.0" y="176.0" type="qcurve" smooth="yes"/>
      <point x="62.0" y="285.0" type="line" smooth="yes"/>
      <point x="62.0" y="390.0"/>
      <point x="170.0" y="461.0"/>
      <point x="285.0" y="461.0" type="qcurve" smooth="yes"/>
      <point x="314.0" y="461.0" type="line" smooth="yes"/>
      <point x="429.0" y="461.0"/>
      <point x="536.0" y="390.0"/>
    </contour>
  </outline>
</glyph>
<glyph name="Hbar" format="2">
  <advance width="636"/>
  <unicode hex="0126"/>
  <outline>
    <contour>
      <point x="54.0" y="508.0" type="line" smooth="yes"/>
      <point x="28.0" y="508.0"/>
      <point x="28.0" y="530.0" type="qcurve" smooth="yes"/>
      <point x="28.0" y="551.0"/>
      <point x="52.0" y="551.0" type="qcurve" smooth="yes"/>
      <point x="53.0" y="551.0"/>
      <point x="54.0" y="551.0" type="qcurve" smooth="yes"/>
      <point x="86.0" y="551.0" type="line"/>
      <point x="86.0" y="608.0" type="line" smooth="yes"/>
      <point x="86.0" y="643.0"/>
      <point x="138.0" y="643.0"/>
      <point x="138.0" y="608.0" type="qcurve" smooth="yes"/>
      <point x="138.0" y="551.0" type="line"/>
      <point x="498.0" y="551.0" type="line"/>
      <point x="498.0" y="608.0" type="line" smooth="yes"/>
      <point x="498.0" y="643.0"/>
      <point x="550.0" y="643.0"/>
      <point x="550.0" y="608.0" type="qcurve" smooth="yes"/>
      <point x="550.0" y="551.0" type="line"/>
      <point x="579.0" y="551.0" type="line" smooth="yes"/>
      <point x="580.0" y="551.0"/>
      <point x="581.0" y="551.0" type="qcurve" smooth="yes"/>
      <point x="608.0" y="551.0"/>
      <point x="608.0" y="530.0" type="qcurve" smooth="yes"/>
      <point x="608.0" y="508.0"/>
      <point x="579.0" y="508.0" type="qcurve" smooth="yes"/>
      <point x="550.0" y="508.0" type="line"/>
      <point x="550.0" y="27.0" type="line" smooth="yes"/>
      <point x="550.0" y="-7.0"/>
      <point x="498.0" y="-7.0"/>
      <point x="498.0" y="27.0" type="qcurve" smooth="yes"/>
      <point x="498.0" y="317.0" type="line"/>
      <point x="138.0" y="317.0" type="line"/>
      <point x="138.0" y="27.0" type="line" smooth="yes"/>
      <point x="138.0" y="-7.0"/>
      <point x="86.0" y="-7.0"/>
      <point x="86.0" y="27.0" type="qcurve" smooth="yes"/>
      <point x="86.0" y="508.0" type="line"/>
    </contour>
    <contour>
      <point x="498.0" y="508.0" type="line"/>
      <point x="138.0" y="508.0" type="line"/>
      <point x="138.0" y="369.0" type="line"/>
      <point x="498.0" y="369.0" type="line"/>
    </contour>
  </outline>
</glyph>
<glyph name="hbar" format="2">
  <advance width="619"/>
  <unicode hex="0127"/>
  <outline>
    <contour>
      <point x="298.0" y="409.0" type="line" smooth="yes"/>
      <point x="127.0" y="409.0"/>
      <point x="127.0" y="231.0" type="qcurve" smooth="yes"/>
      <point x="127.0" y="27.0" type="line" smooth="yes"/>
      <point x="127.0" y="-7.0"/>
      <point x="75.0" y="-7.0"/>
      <point x="75.0" y="27.0" type="qcurve" smooth="yes"/>
      <point x="75.0" y="500.0" type="line"/>
      <point x="37.0" y="500.0"/>
      <point x="37.0" y="553.0"/>
      <point x="75.0" y="553.0" type="qcurve"/>
      <point x="75.0" y="607.0" type="line" smooth="yes"/>
      <point x="75.0" y="643.0"/>
      <point x="127.0" y="643.0"/>
      <point x="127.0" y="607.0" type="qcurve" smooth="yes"/>
      <point x="127.0" y="553.0" type="line"/>
      <point x="337.0" y="553.0" type="line" smooth="yes"/>
      <point x="375.0" y="553.0"/>
      <point x="375.0" y="500.0"/>
      <point x="337.0" y="500.0" type="qcurve" smooth="yes"/>
      <point x="127.0" y="500.0" type="line"/>
      <point x="127.0" y="398.0" type="line"/>
      <point x="186.0" y="461.0"/>
      <point x="298.0" y="461.0" type="qcurve" smooth="yes"/>
      <point x="327.0" y="461.0" type="line" smooth="yes"/>
      <point x="442.0" y="461.0"/>
      <point x="549.0" y="390.0"/>
      <point x="549.0" y="285.0" type="qcurve" smooth="yes"/>
      <point x="549.0" y="27.0" type="line" smooth="yes"/>
      <point x="549.0" y="-7.0"/>
      <point x="497.0" y="-7.0"/>
      <point x="497.0" y="27.0" type="qcurve" smooth="yes"/>
      <point x="497.0" y="284.0" type="line" smooth="yes"/>
      <point x="496.0" y="368.0"/>
      <point x="456.0" y="390.0" type="qcurve" smooth="yes"/>
      <point x="421.0" y="409.0"/>
      <point x="336.0" y="409.0" type="qcurve" smooth="yes"/>
      <point x="332.0" y="409.0"/>
      <point x="327.0" y="409.0" type="qcurve" smooth="yes"/>
    </contour>
  </outline>
</glyph>
<glyph name="Iogonek" format="2">
  <advance width="221"/>
  <unicode hex="012E"/>
  <outline>
    <contour>
      <point x="78.0" y="-91.0" type="qcurve" smooth="yes"/>
      <point x="78.0" y="-145.0"/>
      <point x="120.0" y="-145.0" type="qcurve" smooth="yes"/>
      <point x="136.0" y="-145.0"/>
      <point x="180.0" y="-128.0"/>
      <point x="186.0" y="-128.0" type="qcurve" smooth="yes"/>
      <point x="201.0" y="-128.0"/>
      <point x="201.0" y="-172.0"/>
      <point x="147.0" y="-195.0"/>
      <point x="81.0" y="-195.0"/>
      <point x="26.0" y="-137.0"/>
      <point x="26.0" y="-47.0"/>
      <point x="85.0" y="25.0" type="qcurve"/>
      <point x="85.0" y="610.0" type="line" smooth="yes"/>
      <point x="85.0" y="643.0"/>
      <point x="137.0" y="643.0"/>
      <point x="137.0" y="610.0" type="qcurve" smooth="yes"/>
      <point x="137.0" y="25.0" type="line" smooth="yes"/>
      <point x="137.0" y="24.0"/>
      <point x="137.0" y="23.0" type="qcurve" smooth="yes"/>
      <point x="137.0" y="7.0"/>
      <point x="122.0" y="-6.0" type="qcurve" smooth="yes"/>
      <point x="106.0" y="-20.0"/>
      <point x="78.0" y="-78.0"/>
    </contour>
  </outline>
</glyph>
<glyph name="iogonek" format="2">
  <advance width="201"/>
  <unicode hex="012F"/>
  <outline>
    <contour>
      <point x="50.0" y="618.0"/>
      <point x="84.0" y="642.0"/>
      <point x="117.0" y="642.0"/>
      <point x="152.0" y="618.0"/>
      <point x="152.0" y="584.0"/>
      <point x="117.0" y="560.0"/>
      <point x="84.0" y="560.0"/>
      <point x="50.0" y="584.0"/>
    </contour>
    <contour>
      <point x="75.0" y="22.0" type="qcurve"/>
      <point x="75.0" y="440.0" type="line" smooth="yes"/>
      <point x="75.0" y="473.0"/>
      <point x="127.0" y="473.0"/>
      <point x="127.0" y="440.0" type="qcurve" smooth="yes"/>
      <point x="127.0" y="20.0" type="line" smooth="yes"/>
      <point x="127.0" y="1.0"/>
      <point x="98.0" y="-21.0"/>
      <point x="62.0" y="-87.0"/>
      <point x="62.0" y="-101.0" type="qcurve" smooth="yes"/>
      <point x="62.0" y="-155.0"/>
      <point x="104.0" y="-155.0" type="qcurve" smooth="yes"/>
      <point x="120.0" y="-155.0"/>
      <point x="164.0" y="-138.0"/>
      <point x="170.0" y="-138.0" type="qcurve" smooth="yes"/>
      <point x="185.0" y="-138.0"/>
      <point x="185.0" y="-181.0"/>
      <point x="131.0" y="-205.0"/>
      <point x="65.0" y="-205.0"/>
      <point x="10.0" y="-147.0"/>
      <point x="10.0" y="-53.0"/>
    </contour>
  </outline>
</glyph>
<glyph name="dotlessi" format="2">
  <advance width="200"/>
  <unicode hex="0131"/>
  <outline>
    <contour>
      <point x="126.0" y="20.0" type="line" smooth="yes"/>
      <point x="126.0" y="-12.0"/>
      <point x="74.0" y="-12.0"/>
      <point x="74.0" y="20.0" type="qcurve" smooth="yes"/>
      <point x="74.0" y="440.0" type="line" smooth="yes"/>
      <point x="74.0" y="473.0"/>
      <point x="126.0" y="473.0"/>
      <point x="126.0" y="440.0" type="qcurve" smooth="yes"/>
    </contour>
  </outline>
</glyph>
<glyph name="Lslash" format="2">
  <advance width="525"/>
  <unicode hex="0141"/>
  <outline>
    <contour>
      <point x="208.0" y="418.0" type="qcurve" smooth="yes"/>
      <point x="235.0" y="418.0"/>
      <point x="235.0" y="392.0" type="qcurve" smooth="yes"/>
      <point x="235.0" y="378.0"/>
      <point x="210.0" y="365.0" type="qcurve" smooth="yes"/>
      <point x="145.0" y="333.0" type="line"/>
      <point x="145.0" y="52.0" type="line"/>
      <point x="468.0" y="52.0" type="line" smooth="yes"/>
      <point x="501.0" y="52.0"/>
      <point x="501.0" y="0.0"/>
      <point x="468.0" y="0.0" type="qcurve" smooth="yes"/>
      <point x="117.0" y="0.0" type="line" smooth="yes"/>
      <point x="93.0" y="0.0"/>
      <point x="93.0" y="35.0" type="qcurve" smooth="yes"/>
      <point x="93.0" y="307.0" type="line"/>
      <point x="40.0" y="281.0" type="line"/>
      <point x="32.0" y="278.0"/>
      <point x="25.0" y="278.0" type="qcurve" smooth="yes"/>
      <point x="-1.0" y="278.0"/>
      <point x="-1.0" y="306.0" type="qcurve" smooth="yes"/>
      <point x="-1.0" y="319.0"/>
      <point x="21.0" y="330.0" type="qcurve" smooth="yes"/>
      <point x="93.0" y="366.0" type="line"/>
      <point x="93.0" y="611.0" type="line" smooth="yes"/>
      <point x="93.0" y="643.0"/>
      <point x="145.0" y="643.0"/>
      <point x="145.0" y="611.0" type="qcurve" smooth="yes"/>
      <point x="145.0" y="392.0" type="line"/>
      <point x="191.0" y="415.0" type="line"/>
      <point x="206.0" y="418.0"/>
    </contour>
  </outline>
</glyph>
<glyph name="lslash" format="2">
  <advance width="317"/>
  <unicode hex="0142"/>
  <outline>
    <contour>
      <point x="242.0" y="418.0" type="qcurve" smooth="yes"/>
      <point x="269.0" y="418.0"/>
      <point x="269.0" y="392.0" type="qcurve" smooth="yes"/>
      <point x="269.0" y="378.0"/>
      <point x="244.0" y="365.0" type="qcurve" smooth="yes"/>
      <point x="182.0" y="334.0" type="line"/>
      <point x="182.0" y="110.0" type="line" smooth="yes"/>
      <point x="182.0" y="78.0"/>
      <point x="205.0" y="52.0"/>
      <point x="272.0" y="52.0"/>
      <point x="272.0" y="0.0"/>
      <point x="237.0" y="0.0" type="qcurve" smooth="yes"/>
      <point x="230.0" y="0.0" type="line" smooth="yes"/>
      <point x="172.0" y="0.0"/>
      <point x="130.0" y="57.0"/>
      <point x="130.0" y="127.0" type="qcurve" smooth="yes"/>
      <point x="130.0" y="309.0" type="line"/>
      <point x="74.0" y="281.0" type="line"/>
      <point x="66.0" y="278.0"/>
      <point x="59.0" y="278.0" type="qcurve" smooth="yes"/>
      <point x="33.0" y="278.0"/>
      <point x="33.0" y="306.0" type="qcurve" smooth="yes"/>
      <point x="33.0" y="319.0"/>
      <point x="55.0" y="330.0" type="qcurve" smooth="yes"/>
      <point x="130.0" y="368.0" type="line"/>
      <point x="130.0" y="608.0" type="line" smooth="yes"/>
      <point x="130.0" y="643.0"/>
      <point x="182.0" y="643.0"/>
      <point x="182.0" y="608.0" type="qcurve" smooth="yes"/>
      <point x="182.0" y="394.0" type="line"/>
      <point x="225.0" y="415.0" type="line"/>
      <point x="240.0" y="418.0"/>
    </contour>
  </outline>
</glyph>
<glyph name="Eng" format="2">
  <advance width="633"/>
  <unicode hex="014A"/>
  <outline>
    <contour>
      <point x="496.0" y="96.0" type="line"/>
      <point x="496.0" y="607.0" type="line" smooth="yes"/>
      <point x="496.0" y="643.0"/>
      <point x="548.0" y="643.0"/>
      <point x="548.0" y="608.0" type="qcurve" smooth="yes"/>
      <point x="548.0" y="0.0" type="line" smooth="yes"/>
      <point x="548.0" y="-110.0"/>
      <point x="488.0" y="-145.0" type="qcurve" smooth="yes"/>
      <point x="437.0" y="-175.0"/>
      <point x="335.0" y="-175.0" type="qcurve" smooth="yes"/>
      <point x="299.0" y="-175.0"/>
      <point x="299.0" y="-123.0"/>
      <point x="335.0" y="-123.0" type="qcurve" smooth="yes"/>
      <point x="427.0" y="-123.0"/>
      <point x="496.0" y="-79.0"/>
      <point x="496.0" y="0.0" type="qcurve" smooth="yes"/>
      <point x="496.0" y="10.0" type="line"/>
      <point x="136.0" y="543.0" type="line"/>
      <point x="136.0" y="26.0" type="line" smooth="yes"/>
      <point x="136.0" y="-7.0"/>
      <point x="84.0" y="-7.0"/>
      <point x="84.0" y="27.0" type="qcurve" smooth="yes"/>
      <point x="84.0" y="608.0" type="line" smooth="yes"/>
      <point x="84.0" y="643.0"/>
      <point x="108.0" y="643.0" type="qcurve" smooth="yes"/>
      <point x="126.0" y="643.0"/>
      <point x="138.0" y="624.0" type="qcurve" smooth="yes"/>
    </contour>
  </outline>
</glyph>
<glyph name="eng" format="2">
  <advance width="619"/>
  <unicode hex="014B"/>
  <outline>
    <contour>
      <point x="297.0" y="409.0" type="line" smooth="yes"/>
      <point x="126.0" y="409.0"/>
      <point x="126.0" y="231.0" type="qcurve" smooth="yes"/>
      <point x="126.0" y="27.0" type="line" smooth="yes"/>
      <point x="126.0" y="-7.0"/>
      <point x="74.0" y="-7.0"/>
      <point x="74.0" y="27.0" type="qcurve" smooth="yes"/>
      <point x="74.0" y="433.0" type="line" smooth="yes"/>
      <point x="74.0" y="468.0"/>
      <point x="126.0" y="468.0"/>
      <point x="126.0" y="432.0" type="qcurve" smooth="yes"/>
      <point x="126.0" y="398.0" type="line"/>
      <point x="185.0" y="461.0"/>
      <point x="297.0" y="461.0" type="qcurve" smooth="yes"/>
      <point x="326.0" y="461.0" type="line" smooth="yes"/>
      <point x="441.0" y="461.0"/>
      <point x="548.0" y="390.0"/>
      <point x="548.0" y="285.0" type="qcurve" smooth="yes"/>
      <point x="548.0" y="0.0" type="line" smooth="yes"/>
      <point x="548.0" y="-110.0"/>
      <point x="488.0" y="-145.0" type="qcurve" smooth="yes"/>
      <point x="437.0" y="-175.0"/>
      <point x="335.0" y="-175.0" type="qcurve" smooth="yes"/>
      <point x="299.0" y="-175.0"/>
      <point x="299.0" y="-123.0"/>
      <point x="335.0" y="-123.0" type="qcurve" smooth="yes"/>
      <point x="427.0" y="-123.0"/>
      <point x="496.0" y="-79.0"/>
      <point x="496.0" y="0.0" type="qcurve" smooth="yes"/>
      <point x="496.0" y="284.0" type="line" smooth="yes"/>
      <point x="496.0" y="368.0"/>
      <point x="456.0" y="390.0" type="qcurve" smooth="yes"/>
      <point x="421.0" y="409.0"/>
      <point x="335.0" y="409.0" type="qcurve" smooth="yes"/>
      <point x="331.0" y="409.0"/>
      <point x="326.0" y="409.0" type="qcurve" smooth="yes"/>
    </contour>
  </outline>
</glyph>
<glyph name="OE" format="2">
  <advance width="726"/>
  <unicode hex="0152"/>
  <outline>
    <contour>
      <point x="382.0" y="620.0" type="qcurve"/>
      <point x="386.0" y="636.0"/>
      <point x="404.0" y="636.0" type="qcurve" smooth="yes"/>
      <point x="647.0" y="636.0" type="line" smooth="yes"/>
      <point x="682.0" y="636.0"/>
      <point x="682.0" y="585.0"/>
      <point x="647.0" y="585.0" type="qcurve" smooth="yes"/>
      <point x="433.0" y="585.0" type="line"/>
      <point x="433.0" y="384.0" type="line"/>
      <point x="528.0" y="384.0" type="line" smooth="yes"/>
      <point x="564.0" y="384.0"/>
      <point x="564.0" y="332.0"/>
      <point x="528.0" y="332.0" type="qcurve" smooth="yes"/>
      <point x="433.0" y="332.0" type="line"/>
      <point x="433.0" y="52.0" type="line"/>
      <point x="647.0" y="52.0" type="line" smooth="yes"/>
      <point x="682.0" y="52.0"/>
      <point x="682.0" y="0.0"/>
      <point x="647.0" y="0.0" type="qcurve" smooth="yes"/>
      <point x="408.0" y="0.0" type="line" smooth="yes"/>
      <point x="388.0" y="0.0"/>
      <point x="384.0" y="15.0" type="qcurve"/>
      <point x="338.0" y="-9.0"/>
      <point x="199.0" y="-9.0"/>
      <point x="64.0" y="122.0"/>
      <point x="64.0" y="228.0" type="qcurve" smooth="yes"/>
      <point x="64.0" y="408.0" type="line" smooth="yes"/>
      <point x="64.0" y="514.0"/>
      <point x="198.0" y="645.0"/>
      <point x="336.0" y="645.0"/>
    </contour>
    <contour>
      <point x="381.0" y="76.0" type="qcurve"/>
      <point x="381.0" y="560.0" type="line"/>
      <point x="345.0" y="593.0"/>
      <point x="214.0" y="593.0"/>
      <point x="115.0" y="490.0"/>
      <point x="115.0" y="407.0" type="qcurve" smooth="yes"/>
      <point x="115.0" y="229.0" type="line" smooth="yes"/>
      <point x="115.0" y="146.0"/>
      <point x="215.0" y="43.0"/>
      <point x="344.0" y="43.0"/>
    </contour>
  </outline>
</glyph>
